G04 #@! TF.GenerationSoftware,KiCad,Pcbnew,7.0.10*
G04 #@! TF.CreationDate,2024-04-11T23:27:50-07:00*
G04 #@! TF.ProjectId,vibration_circuit,76696272-6174-4696-9f6e-5f6369726375,rev?*
G04 #@! TF.SameCoordinates,Original*
G04 #@! TF.FileFunction,Paste,Top*
G04 #@! TF.FilePolarity,Positive*
%FSLAX46Y46*%
G04 Gerber Fmt 4.6, Leading zero omitted, Abs format (unit mm)*
G04 Created by KiCad (PCBNEW 7.0.10) date 2024-04-11 23:27:50*
%MOMM*%
%LPD*%
G01*
G04 APERTURE LIST*
G04 Aperture macros list*
%AMRoundRect*
0 Rectangle with rounded corners*
0 $1 Rounding radius*
0 $2 $3 $4 $5 $6 $7 $8 $9 X,Y pos of 4 corners*
0 Add a 4 corners polygon primitive as box body*
4,1,4,$2,$3,$4,$5,$6,$7,$8,$9,$2,$3,0*
0 Add four circle primitives for the rounded corners*
1,1,$1+$1,$2,$3*
1,1,$1+$1,$4,$5*
1,1,$1+$1,$6,$7*
1,1,$1+$1,$8,$9*
0 Add four rect primitives between the rounded corners*
20,1,$1+$1,$2,$3,$4,$5,0*
20,1,$1+$1,$4,$5,$6,$7,0*
20,1,$1+$1,$6,$7,$8,$9,0*
20,1,$1+$1,$8,$9,$2,$3,0*%
G04 Aperture macros list end*
%ADD10R,1.150000X0.600000*%
%ADD11R,1.150000X0.300000*%
%ADD12R,0.900000X0.900000*%
%ADD13R,1.500000X0.900000*%
%ADD14R,0.900000X1.500000*%
%ADD15R,2.000000X1.500000*%
%ADD16R,2.000000X3.800000*%
%ADD17RoundRect,0.225000X0.250000X-0.225000X0.250000X0.225000X-0.250000X0.225000X-0.250000X-0.225000X0*%
%ADD18RoundRect,0.200000X0.200000X0.275000X-0.200000X0.275000X-0.200000X-0.275000X0.200000X-0.275000X0*%
%ADD19RoundRect,0.218750X-0.218750X-0.256250X0.218750X-0.256250X0.218750X0.256250X-0.218750X0.256250X0*%
%ADD20RoundRect,0.225000X0.225000X0.250000X-0.225000X0.250000X-0.225000X-0.250000X0.225000X-0.250000X0*%
%ADD21RoundRect,0.200000X-0.200000X-0.275000X0.200000X-0.275000X0.200000X0.275000X-0.200000X0.275000X0*%
%ADD22RoundRect,0.150000X-0.150000X0.512500X-0.150000X-0.512500X0.150000X-0.512500X0.150000X0.512500X0*%
%ADD23RoundRect,0.200000X-0.275000X0.200000X-0.275000X-0.200000X0.275000X-0.200000X0.275000X0.200000X0*%
%ADD24R,1.200000X2.500000*%
%ADD25RoundRect,0.225000X-0.225000X-0.250000X0.225000X-0.250000X0.225000X0.250000X-0.225000X0.250000X0*%
%ADD26RoundRect,0.218750X-0.256250X0.218750X-0.256250X-0.218750X0.256250X-0.218750X0.256250X0.218750X0*%
%ADD27R,2.500000X1.200000*%
%ADD28R,0.250000X0.500000*%
%ADD29R,0.650000X0.750000*%
%ADD30RoundRect,0.250000X-0.450000X0.262500X-0.450000X-0.262500X0.450000X-0.262500X0.450000X0.262500X0*%
G04 APERTURE END LIST*
D10*
X113665000Y-129265000D03*
X113665000Y-130065000D03*
D11*
X113665000Y-131215000D03*
X113665000Y-132215000D03*
X113665000Y-132715000D03*
X113665000Y-133715000D03*
D10*
X113665000Y-135665000D03*
X113665000Y-134865000D03*
D11*
X113665000Y-134215000D03*
X113665000Y-133215000D03*
X113665000Y-131715000D03*
X113665000Y-130715000D03*
D12*
X138938000Y-126898400D03*
X137538000Y-126898400D03*
X136138000Y-126898400D03*
X138938000Y-125498400D03*
X137538000Y-125498400D03*
X136138000Y-125498400D03*
X138938000Y-124098400D03*
X137538000Y-124098400D03*
X136138000Y-124098400D03*
D13*
X147788000Y-117778400D03*
X147788000Y-119048400D03*
X147788000Y-120318400D03*
X147788000Y-121588400D03*
X147788000Y-122858400D03*
X147788000Y-124128400D03*
X147788000Y-125398400D03*
X147788000Y-126668400D03*
X147788000Y-127938400D03*
X147788000Y-129208400D03*
X147788000Y-130478400D03*
X147788000Y-131748400D03*
X147788000Y-133018400D03*
X147788000Y-134288400D03*
D14*
X146023000Y-135538400D03*
X144753000Y-135538400D03*
X143483000Y-135538400D03*
X142213000Y-135538400D03*
X140943000Y-135538400D03*
X139673000Y-135538400D03*
X138403000Y-135538400D03*
X137133000Y-135538400D03*
X135863000Y-135538400D03*
X134593000Y-135538400D03*
X133323000Y-135538400D03*
X132053000Y-135538400D03*
D13*
X130288000Y-134288400D03*
X130288000Y-133018400D03*
X130288000Y-131748400D03*
X130288000Y-130478400D03*
X130288000Y-129208400D03*
X130288000Y-127938400D03*
X130288000Y-126668400D03*
X130288000Y-125398400D03*
X130288000Y-124128400D03*
X130288000Y-122858400D03*
X130288000Y-121588400D03*
X130288000Y-120318400D03*
X130288000Y-119048400D03*
X130288000Y-117778400D03*
D15*
X126542000Y-101332000D03*
X126542000Y-103632000D03*
D16*
X132842000Y-103632000D03*
D15*
X126542000Y-105932000D03*
D17*
X119888000Y-122732800D03*
X119888000Y-121182800D03*
D18*
X120924700Y-134523900D03*
X119274700Y-134523900D03*
D19*
X119888800Y-127842800D03*
X121463800Y-127842800D03*
D20*
X147817800Y-139896400D03*
X146267800Y-139896400D03*
D18*
X125958600Y-125353600D03*
X124308600Y-125353600D03*
D20*
X114427600Y-109372600D03*
X112877600Y-109372600D03*
D21*
X124308600Y-127863600D03*
X125958600Y-127863600D03*
X119236100Y-131374300D03*
X120886100Y-131374300D03*
D22*
X116657200Y-107024800D03*
X114757200Y-107024800D03*
X114757200Y-104749800D03*
X115707200Y-104749800D03*
X116657200Y-104749800D03*
D23*
X116687600Y-109297400D03*
X116687600Y-110947400D03*
D24*
X148463000Y-143547200D03*
X145963000Y-143547200D03*
X143463000Y-143547200D03*
X148463000Y-149047200D03*
X145963000Y-149047200D03*
X143463000Y-149047200D03*
D17*
X128371600Y-143154400D03*
X128371600Y-141604400D03*
D25*
X121399000Y-110490000D03*
X122949000Y-110490000D03*
D17*
X130962400Y-143154400D03*
X130962400Y-141604400D03*
D25*
X112877600Y-114554000D03*
X114427600Y-114554000D03*
D26*
X116814600Y-100558400D03*
X116814600Y-102133400D03*
D23*
X112699800Y-100534200D03*
X112699800Y-102184200D03*
D27*
X114872400Y-122961400D03*
X114872400Y-120461400D03*
X114872400Y-117961400D03*
X109372400Y-122961400D03*
X109372400Y-120461400D03*
X109372400Y-117961400D03*
D28*
X134351600Y-141416600D03*
X134851600Y-141416600D03*
X135351600Y-141416600D03*
X135851600Y-141416600D03*
X135851600Y-143316600D03*
X135351600Y-143316600D03*
X134851600Y-143316600D03*
X134351600Y-143316600D03*
D29*
X135501600Y-142366600D03*
X134701600Y-142366600D03*
D19*
X119888800Y-125302800D03*
X121463800Y-125302800D03*
D20*
X120650000Y-105892600D03*
X122200000Y-105892600D03*
D30*
X119888000Y-117348000D03*
X119888000Y-119173000D03*
M02*
