G04 #@! TF.GenerationSoftware,KiCad,Pcbnew,7.0.10*
G04 #@! TF.CreationDate,2024-04-11T23:27:50-07:00*
G04 #@! TF.ProjectId,vibration_circuit,76696272-6174-4696-9f6e-5f6369726375,rev?*
G04 #@! TF.SameCoordinates,Original*
G04 #@! TF.FileFunction,Copper,L1,Top*
G04 #@! TF.FilePolarity,Positive*
%FSLAX46Y46*%
G04 Gerber Fmt 4.6, Leading zero omitted, Abs format (unit mm)*
G04 Created by KiCad (PCBNEW 7.0.10) date 2024-04-11 23:27:50*
%MOMM*%
%LPD*%
G01*
G04 APERTURE LIST*
G04 Aperture macros list*
%AMRoundRect*
0 Rectangle with rounded corners*
0 $1 Rounding radius*
0 $2 $3 $4 $5 $6 $7 $8 $9 X,Y pos of 4 corners*
0 Add a 4 corners polygon primitive as box body*
4,1,4,$2,$3,$4,$5,$6,$7,$8,$9,$2,$3,0*
0 Add four circle primitives for the rounded corners*
1,1,$1+$1,$2,$3*
1,1,$1+$1,$4,$5*
1,1,$1+$1,$6,$7*
1,1,$1+$1,$8,$9*
0 Add four rect primitives between the rounded corners*
20,1,$1+$1,$2,$3,$4,$5,0*
20,1,$1+$1,$4,$5,$6,$7,0*
20,1,$1+$1,$6,$7,$8,$9,0*
20,1,$1+$1,$8,$9,$2,$3,0*%
G04 Aperture macros list end*
G04 #@! TA.AperFunction,SMDPad,CuDef*
%ADD10R,1.150000X0.600000*%
G04 #@! TD*
G04 #@! TA.AperFunction,SMDPad,CuDef*
%ADD11R,1.150000X0.300000*%
G04 #@! TD*
G04 #@! TA.AperFunction,ComponentPad*
%ADD12O,2.100000X1.000000*%
G04 #@! TD*
G04 #@! TA.AperFunction,ComponentPad*
%ADD13RoundRect,0.250000X-0.650000X0.250000X-0.650000X-0.250000X0.650000X-0.250000X0.650000X0.250000X0*%
G04 #@! TD*
G04 #@! TA.AperFunction,SMDPad,CuDef*
%ADD14R,0.900000X0.900000*%
G04 #@! TD*
G04 #@! TA.AperFunction,SMDPad,CuDef*
%ADD15R,1.500000X0.900000*%
G04 #@! TD*
G04 #@! TA.AperFunction,SMDPad,CuDef*
%ADD16R,0.900000X1.500000*%
G04 #@! TD*
G04 #@! TA.AperFunction,SMDPad,CuDef*
%ADD17R,2.000000X1.500000*%
G04 #@! TD*
G04 #@! TA.AperFunction,SMDPad,CuDef*
%ADD18R,2.000000X3.800000*%
G04 #@! TD*
G04 #@! TA.AperFunction,SMDPad,CuDef*
%ADD19RoundRect,0.225000X0.250000X-0.225000X0.250000X0.225000X-0.250000X0.225000X-0.250000X-0.225000X0*%
G04 #@! TD*
G04 #@! TA.AperFunction,SMDPad,CuDef*
%ADD20RoundRect,0.200000X0.200000X0.275000X-0.200000X0.275000X-0.200000X-0.275000X0.200000X-0.275000X0*%
G04 #@! TD*
G04 #@! TA.AperFunction,SMDPad,CuDef*
%ADD21RoundRect,0.218750X-0.218750X-0.256250X0.218750X-0.256250X0.218750X0.256250X-0.218750X0.256250X0*%
G04 #@! TD*
G04 #@! TA.AperFunction,ComponentPad*
%ADD22R,1.700000X1.700000*%
G04 #@! TD*
G04 #@! TA.AperFunction,ComponentPad*
%ADD23O,1.700000X1.700000*%
G04 #@! TD*
G04 #@! TA.AperFunction,SMDPad,CuDef*
%ADD24RoundRect,0.225000X0.225000X0.250000X-0.225000X0.250000X-0.225000X-0.250000X0.225000X-0.250000X0*%
G04 #@! TD*
G04 #@! TA.AperFunction,SMDPad,CuDef*
%ADD25RoundRect,0.200000X-0.200000X-0.275000X0.200000X-0.275000X0.200000X0.275000X-0.200000X0.275000X0*%
G04 #@! TD*
G04 #@! TA.AperFunction,SMDPad,CuDef*
%ADD26RoundRect,0.150000X-0.150000X0.512500X-0.150000X-0.512500X0.150000X-0.512500X0.150000X0.512500X0*%
G04 #@! TD*
G04 #@! TA.AperFunction,SMDPad,CuDef*
%ADD27RoundRect,0.200000X-0.275000X0.200000X-0.275000X-0.200000X0.275000X-0.200000X0.275000X0.200000X0*%
G04 #@! TD*
G04 #@! TA.AperFunction,SMDPad,CuDef*
%ADD28R,1.200000X2.500000*%
G04 #@! TD*
G04 #@! TA.AperFunction,SMDPad,CuDef*
%ADD29RoundRect,0.225000X-0.225000X-0.250000X0.225000X-0.250000X0.225000X0.250000X-0.225000X0.250000X0*%
G04 #@! TD*
G04 #@! TA.AperFunction,SMDPad,CuDef*
%ADD30RoundRect,0.218750X-0.256250X0.218750X-0.256250X-0.218750X0.256250X-0.218750X0.256250X0.218750X0*%
G04 #@! TD*
G04 #@! TA.AperFunction,SMDPad,CuDef*
%ADD31R,2.500000X1.200000*%
G04 #@! TD*
G04 #@! TA.AperFunction,SMDPad,CuDef*
%ADD32R,1.600000X0.900000*%
G04 #@! TD*
G04 #@! TA.AperFunction,SMDPad,CuDef*
%ADD33R,0.250000X0.500000*%
G04 #@! TD*
G04 #@! TA.AperFunction,SMDPad,CuDef*
%ADD34RoundRect,0.250000X-0.450000X0.262500X-0.450000X-0.262500X0.450000X-0.262500X0.450000X0.262500X0*%
G04 #@! TD*
G04 #@! TA.AperFunction,ViaPad*
%ADD35C,0.711200*%
G04 #@! TD*
G04 #@! TA.AperFunction,ViaPad*
%ADD36C,0.800000*%
G04 #@! TD*
G04 #@! TA.AperFunction,Conductor*
%ADD37C,0.203200*%
G04 #@! TD*
G04 #@! TA.AperFunction,Conductor*
%ADD38C,0.200000*%
G04 #@! TD*
G04 #@! TA.AperFunction,Conductor*
%ADD39C,0.250000*%
G04 #@! TD*
G04 #@! TA.AperFunction,Conductor*
%ADD40C,0.304800*%
G04 #@! TD*
G04 APERTURE END LIST*
D10*
X113665000Y-129265000D03*
X113665000Y-130065000D03*
D11*
X113665000Y-131215000D03*
X113665000Y-132215000D03*
X113665000Y-132715000D03*
X113665000Y-133715000D03*
D10*
X113665000Y-135665000D03*
X113665000Y-134865000D03*
D11*
X113665000Y-134215000D03*
X113665000Y-133215000D03*
X113665000Y-131715000D03*
X113665000Y-130715000D03*
D12*
X113090000Y-128145000D03*
X113090000Y-136785000D03*
D13*
X108910000Y-128145000D03*
X108910000Y-136785000D03*
D14*
X138938000Y-126898400D03*
X137538000Y-126898400D03*
X136138000Y-126898400D03*
X138938000Y-125498400D03*
X137538000Y-125498400D03*
X136138000Y-125498400D03*
X138938000Y-124098400D03*
X137538000Y-124098400D03*
X136138000Y-124098400D03*
D15*
X147788000Y-117778400D03*
X147788000Y-119048400D03*
X147788000Y-120318400D03*
X147788000Y-121588400D03*
X147788000Y-122858400D03*
X147788000Y-124128400D03*
X147788000Y-125398400D03*
X147788000Y-126668400D03*
X147788000Y-127938400D03*
X147788000Y-129208400D03*
X147788000Y-130478400D03*
X147788000Y-131748400D03*
X147788000Y-133018400D03*
X147788000Y-134288400D03*
D16*
X146023000Y-135538400D03*
X144753000Y-135538400D03*
X143483000Y-135538400D03*
X142213000Y-135538400D03*
X140943000Y-135538400D03*
X139673000Y-135538400D03*
X138403000Y-135538400D03*
X137133000Y-135538400D03*
X135863000Y-135538400D03*
X134593000Y-135538400D03*
X133323000Y-135538400D03*
X132053000Y-135538400D03*
D15*
X130288000Y-134288400D03*
X130288000Y-133018400D03*
X130288000Y-131748400D03*
X130288000Y-130478400D03*
X130288000Y-129208400D03*
X130288000Y-127938400D03*
X130288000Y-126668400D03*
X130288000Y-125398400D03*
X130288000Y-124128400D03*
X130288000Y-122858400D03*
X130288000Y-121588400D03*
X130288000Y-120318400D03*
X130288000Y-119048400D03*
X130288000Y-117778400D03*
D17*
X126542000Y-101332000D03*
X126542000Y-103632000D03*
D18*
X132842000Y-103632000D03*
D17*
X126542000Y-105932000D03*
D19*
X119888000Y-122732800D03*
X119888000Y-121182800D03*
D20*
X120924700Y-134523900D03*
X119274700Y-134523900D03*
D21*
X119888800Y-127842800D03*
X121463800Y-127842800D03*
D22*
X133908800Y-147243800D03*
D23*
X136448800Y-147243800D03*
D24*
X147817800Y-139896400D03*
X146267800Y-139896400D03*
D20*
X125958600Y-125353600D03*
X124308600Y-125353600D03*
D24*
X114427600Y-109372600D03*
X112877600Y-109372600D03*
D25*
X124308600Y-127863600D03*
X125958600Y-127863600D03*
X119236100Y-131374300D03*
X120886100Y-131374300D03*
D26*
X116657200Y-107024800D03*
X114757200Y-107024800D03*
X114757200Y-104749800D03*
X115707200Y-104749800D03*
X116657200Y-104749800D03*
D22*
X109474000Y-110744000D03*
D23*
X109474000Y-113284000D03*
D27*
X116687600Y-109297400D03*
X116687600Y-110947400D03*
D28*
X148463000Y-143547200D03*
X145963000Y-143547200D03*
X143463000Y-143547200D03*
X148463000Y-149047200D03*
X145963000Y-149047200D03*
X143463000Y-149047200D03*
D19*
X128371600Y-143154400D03*
X128371600Y-141604400D03*
D29*
X121399000Y-110490000D03*
X122949000Y-110490000D03*
D19*
X130962400Y-143154400D03*
X130962400Y-141604400D03*
D29*
X112877600Y-114554000D03*
X114427600Y-114554000D03*
D30*
X116814600Y-100558400D03*
X116814600Y-102133400D03*
D27*
X112699800Y-100534200D03*
X112699800Y-102184200D03*
D31*
X114872400Y-122961400D03*
X114872400Y-120461400D03*
X114872400Y-117961400D03*
X109372400Y-122961400D03*
X109372400Y-120461400D03*
X109372400Y-117961400D03*
D32*
X135101600Y-142366600D03*
D33*
X134351600Y-141416600D03*
X134851600Y-141416600D03*
X135351600Y-141416600D03*
X135851600Y-141416600D03*
X135851600Y-143316600D03*
X135351600Y-143316600D03*
X134851600Y-143316600D03*
X134351600Y-143316600D03*
D21*
X119888800Y-125302800D03*
X121463800Y-125302800D03*
D24*
X120650000Y-105892600D03*
X122200000Y-105892600D03*
D34*
X119888000Y-117348000D03*
X119888000Y-119173000D03*
D35*
X111455200Y-134213600D03*
X117144800Y-134823200D03*
X123037600Y-136347200D03*
X110744000Y-132283200D03*
X128168400Y-133045200D03*
X116941600Y-132791200D03*
X124815600Y-132791200D03*
X118008400Y-129184400D03*
X119989600Y-149504400D03*
X148945600Y-101447600D03*
X109626400Y-149453600D03*
X114452400Y-110794800D03*
X122224800Y-107797600D03*
X109474000Y-108305600D03*
X112776000Y-104952800D03*
X119278400Y-102057200D03*
X122224800Y-104190800D03*
X112649000Y-103505000D03*
X118364000Y-104775000D03*
D36*
X126771400Y-138785600D03*
X127685800Y-116992400D03*
D37*
X111456600Y-134215000D02*
X111455200Y-134213600D01*
X113665000Y-134215000D02*
X111456600Y-134215000D01*
X117144800Y-134823200D02*
X117103000Y-134865000D01*
X117103000Y-134865000D02*
X113665000Y-134865000D01*
X123037600Y-129235200D02*
X123037600Y-136347200D01*
X118008400Y-129184400D02*
X122986800Y-129184400D01*
X122986800Y-129184400D02*
X123037600Y-129235200D01*
D38*
X111058200Y-131715000D02*
X113665000Y-131715000D01*
X110744000Y-132029200D02*
X111058200Y-131715000D01*
X110744000Y-132283200D02*
X110744000Y-132029200D01*
X111175800Y-132715000D02*
X113665000Y-132715000D01*
X110744000Y-132283200D02*
X111175800Y-132715000D01*
X110998000Y-132283200D02*
X110744000Y-132283200D01*
X128195200Y-133018400D02*
X128168400Y-133045200D01*
X130288000Y-133018400D02*
X128195200Y-133018400D01*
D37*
X118008400Y-129184400D02*
X117127800Y-130065000D01*
X117127800Y-130065000D02*
X113665000Y-130065000D01*
D38*
X116941600Y-132791200D02*
X114619400Y-132791200D01*
X114517800Y-132689600D02*
X114517800Y-133142800D01*
X114619400Y-132791200D02*
X114517800Y-132689600D01*
X114517800Y-132287200D02*
X114517800Y-132689600D01*
X126312800Y-134288400D02*
X124815600Y-132791200D01*
X130288000Y-134288400D02*
X126312800Y-134288400D01*
X114517800Y-133142800D02*
X114445600Y-133215000D01*
X114445600Y-133215000D02*
X113665000Y-133215000D01*
X114445600Y-132215000D02*
X114517800Y-132287200D01*
X113665000Y-132215000D02*
X114445600Y-132215000D01*
D39*
X119274700Y-134523900D02*
X119274700Y-131412900D01*
X119274700Y-131412900D02*
X119236100Y-131374300D01*
X119076800Y-131215000D02*
X113665000Y-131215000D01*
X119236100Y-131374300D02*
X119076800Y-131215000D01*
D40*
X122415000Y-109474000D02*
X121399000Y-110490000D01*
X127000000Y-109474000D02*
X122415000Y-109474000D01*
X132842000Y-103632000D02*
X127000000Y-109474000D01*
D39*
X114427600Y-110770000D02*
X114452400Y-110794800D01*
X114427600Y-109372600D02*
X114427600Y-110770000D01*
X122200000Y-107772800D02*
X122224800Y-107797600D01*
X122200000Y-105892600D02*
X122200000Y-107772800D01*
D37*
X119888000Y-110617000D02*
X119888000Y-117348000D01*
X120015000Y-110490000D02*
X119888000Y-110617000D01*
X112979000Y-104749800D02*
X114757200Y-104749800D01*
X112776000Y-104952800D02*
X112979000Y-104749800D01*
X109474000Y-110744000D02*
X109474000Y-108305600D01*
D39*
X119278400Y-102057200D02*
X116890800Y-102057200D01*
X122200000Y-104215600D02*
X122224800Y-104190800D01*
X122200000Y-105892600D02*
X122200000Y-104215600D01*
X116890800Y-102057200D02*
X116814600Y-102133400D01*
D37*
X116682400Y-104775000D02*
X116657200Y-104749800D01*
X118364000Y-104775000D02*
X116682400Y-104775000D01*
X112699800Y-103454200D02*
X112649000Y-103505000D01*
X112699800Y-102184200D02*
X112699800Y-103454200D01*
X139271800Y-139896400D02*
X146267800Y-139896400D01*
X135851600Y-143316600D02*
X139271800Y-139896400D01*
X121399000Y-110490000D02*
X120015000Y-110490000D01*
X112877600Y-114147600D02*
X109474000Y-110744000D01*
X112877600Y-114554000D02*
X112877600Y-114147600D01*
D38*
X130184200Y-132914600D02*
X130288000Y-133018400D01*
D39*
X119274700Y-134523900D02*
X119165400Y-134414600D01*
X119236100Y-131374300D02*
X119195800Y-131414600D01*
X122200000Y-105892600D02*
X126502600Y-105892600D01*
X114757200Y-107024800D02*
X114757200Y-109043000D01*
X122200000Y-105892600D02*
X121909052Y-105892600D01*
X126502600Y-105892600D02*
X126542000Y-105932000D01*
X114757200Y-109043000D02*
X114427600Y-109372600D01*
X119888000Y-117348000D02*
X121588400Y-119048400D01*
X128371600Y-140385800D02*
X126771400Y-138785600D01*
X127685800Y-116992400D02*
X127685800Y-119048400D01*
X130962400Y-141604400D02*
X132867400Y-141604400D01*
X133976600Y-143316600D02*
X132867400Y-142207400D01*
D40*
X132842000Y-103632000D02*
X126542000Y-103632000D01*
D39*
X130962400Y-141604400D02*
X128371600Y-141604400D01*
X132867400Y-141604400D02*
X134163800Y-141604400D01*
X132867400Y-142207400D02*
X132867400Y-141604400D01*
X134163800Y-141604400D02*
X134351600Y-141416600D01*
X121588400Y-119048400D02*
X127685800Y-119048400D01*
X128371600Y-141604400D02*
X128371600Y-140385800D01*
X127685800Y-119048400D02*
X130288000Y-119048400D01*
X134351600Y-143316600D02*
X133976600Y-143316600D01*
X120752400Y-120318400D02*
X130288000Y-120318400D01*
X119888000Y-121182800D02*
X120752400Y-120318400D01*
X119888000Y-119454000D02*
X120752400Y-120318400D01*
X119888000Y-119173000D02*
X119888000Y-119454000D01*
X119166600Y-120461400D02*
X119888000Y-121182800D01*
X114872400Y-120461400D02*
X119166600Y-120461400D01*
X147817800Y-139896400D02*
X147817800Y-134318200D01*
X147817800Y-134318200D02*
X147788000Y-134288400D01*
X148463000Y-143547200D02*
X148463000Y-140541600D01*
X148463000Y-140541600D02*
X147817800Y-139896400D01*
X112699800Y-100534200D02*
X116790400Y-100534200D01*
X116790400Y-100534200D02*
X116814600Y-100558400D01*
X124308600Y-127863600D02*
X121484600Y-127863600D01*
X121484600Y-127863600D02*
X121463800Y-127842800D01*
X121463800Y-125302800D02*
X124257800Y-125302800D01*
X124257800Y-125302800D02*
X124308600Y-125353600D01*
X134851600Y-143316600D02*
X134851600Y-146301000D01*
X134851600Y-146301000D02*
X133908800Y-147243800D01*
X135351600Y-146146600D02*
X136448800Y-147243800D01*
X135351600Y-143316600D02*
X135351600Y-146146600D01*
X116657200Y-107024800D02*
X116657200Y-109267000D01*
X116657200Y-109267000D02*
X116687600Y-109297400D01*
X129843400Y-131748400D02*
X130288000Y-131748400D01*
X125958600Y-127863600D02*
X129843400Y-131748400D01*
X125958600Y-125353600D02*
X130243200Y-125353600D01*
X130243200Y-125353600D02*
X130288000Y-125398400D01*
X137133000Y-140135200D02*
X137133000Y-135538400D01*
X135851600Y-141416600D02*
X137133000Y-140135200D01*
X135863000Y-140405200D02*
X135863000Y-135538400D01*
X135351600Y-141416600D02*
X135351600Y-140916600D01*
X135351600Y-140916600D02*
X135863000Y-140405200D01*
X134851600Y-141416600D02*
X134851600Y-135797000D01*
X134851600Y-135797000D02*
X134593000Y-135538400D01*
G04 #@! TA.AperFunction,Conductor*
G36*
X151453539Y-98699185D02*
G01*
X151499294Y-98751989D01*
X151510500Y-98803500D01*
X151510500Y-152656500D01*
X151490815Y-152723539D01*
X151438011Y-152769294D01*
X151386500Y-152780500D01*
X105788500Y-152780500D01*
X105721461Y-152760815D01*
X105675706Y-152708011D01*
X105664500Y-152656500D01*
X105664500Y-150345070D01*
X142362500Y-150345070D01*
X142362501Y-150345076D01*
X142368908Y-150404683D01*
X142419202Y-150539528D01*
X142419206Y-150539535D01*
X142505452Y-150654744D01*
X142505455Y-150654747D01*
X142620664Y-150740993D01*
X142620671Y-150740997D01*
X142755517Y-150791291D01*
X142755516Y-150791291D01*
X142762444Y-150792035D01*
X142815127Y-150797700D01*
X144110872Y-150797699D01*
X144170483Y-150791291D01*
X144305331Y-150740996D01*
X144420546Y-150654746D01*
X144506796Y-150539531D01*
X144557091Y-150404683D01*
X144563500Y-150345073D01*
X144563500Y-150345070D01*
X144862500Y-150345070D01*
X144862501Y-150345076D01*
X144868908Y-150404683D01*
X144919202Y-150539528D01*
X144919206Y-150539535D01*
X145005452Y-150654744D01*
X145005455Y-150654747D01*
X145120664Y-150740993D01*
X145120671Y-150740997D01*
X145255517Y-150791291D01*
X145255516Y-150791291D01*
X145262444Y-150792035D01*
X145315127Y-150797700D01*
X146610872Y-150797699D01*
X146670483Y-150791291D01*
X146805331Y-150740996D01*
X146920546Y-150654746D01*
X147006796Y-150539531D01*
X147057091Y-150404683D01*
X147063500Y-150345073D01*
X147063500Y-150345070D01*
X147362500Y-150345070D01*
X147362501Y-150345076D01*
X147368908Y-150404683D01*
X147419202Y-150539528D01*
X147419206Y-150539535D01*
X147505452Y-150654744D01*
X147505455Y-150654747D01*
X147620664Y-150740993D01*
X147620671Y-150740997D01*
X147755517Y-150791291D01*
X147755516Y-150791291D01*
X147762444Y-150792035D01*
X147815127Y-150797700D01*
X149110872Y-150797699D01*
X149170483Y-150791291D01*
X149305331Y-150740996D01*
X149420546Y-150654746D01*
X149506796Y-150539531D01*
X149557091Y-150404683D01*
X149563500Y-150345073D01*
X149563499Y-147749328D01*
X149557091Y-147689717D01*
X149506796Y-147554869D01*
X149506795Y-147554868D01*
X149506793Y-147554864D01*
X149420547Y-147439655D01*
X149420544Y-147439652D01*
X149305335Y-147353406D01*
X149305328Y-147353402D01*
X149170482Y-147303108D01*
X149170483Y-147303108D01*
X149110883Y-147296701D01*
X149110881Y-147296700D01*
X149110873Y-147296700D01*
X149110864Y-147296700D01*
X147815129Y-147296700D01*
X147815123Y-147296701D01*
X147755516Y-147303108D01*
X147620671Y-147353402D01*
X147620664Y-147353406D01*
X147505455Y-147439652D01*
X147505452Y-147439655D01*
X147419206Y-147554864D01*
X147419202Y-147554871D01*
X147368908Y-147689717D01*
X147362501Y-147749316D01*
X147362501Y-147749323D01*
X147362500Y-147749335D01*
X147362500Y-150345070D01*
X147063500Y-150345070D01*
X147063499Y-147749328D01*
X147057091Y-147689717D01*
X147006796Y-147554869D01*
X147006795Y-147554868D01*
X147006793Y-147554864D01*
X146920547Y-147439655D01*
X146920544Y-147439652D01*
X146805335Y-147353406D01*
X146805328Y-147353402D01*
X146670482Y-147303108D01*
X146670483Y-147303108D01*
X146610883Y-147296701D01*
X146610881Y-147296700D01*
X146610873Y-147296700D01*
X146610864Y-147296700D01*
X145315129Y-147296700D01*
X145315123Y-147296701D01*
X145255516Y-147303108D01*
X145120671Y-147353402D01*
X145120664Y-147353406D01*
X145005455Y-147439652D01*
X145005452Y-147439655D01*
X144919206Y-147554864D01*
X144919202Y-147554871D01*
X144868908Y-147689717D01*
X144862501Y-147749316D01*
X144862501Y-147749323D01*
X144862500Y-147749335D01*
X144862500Y-150345070D01*
X144563500Y-150345070D01*
X144563499Y-147749328D01*
X144557091Y-147689717D01*
X144506796Y-147554869D01*
X144506795Y-147554868D01*
X144506793Y-147554864D01*
X144420547Y-147439655D01*
X144420544Y-147439652D01*
X144305335Y-147353406D01*
X144305328Y-147353402D01*
X144170482Y-147303108D01*
X144170483Y-147303108D01*
X144110883Y-147296701D01*
X144110881Y-147296700D01*
X144110873Y-147296700D01*
X144110864Y-147296700D01*
X142815129Y-147296700D01*
X142815123Y-147296701D01*
X142755516Y-147303108D01*
X142620671Y-147353402D01*
X142620664Y-147353406D01*
X142505455Y-147439652D01*
X142505452Y-147439655D01*
X142419206Y-147554864D01*
X142419202Y-147554871D01*
X142368908Y-147689717D01*
X142362501Y-147749316D01*
X142362501Y-147749323D01*
X142362500Y-147749335D01*
X142362500Y-150345070D01*
X105664500Y-150345070D01*
X105664500Y-143404400D01*
X127396601Y-143404400D01*
X127396601Y-143427722D01*
X127406744Y-143527007D01*
X127460052Y-143687881D01*
X127460057Y-143687892D01*
X127549024Y-143832128D01*
X127549027Y-143832132D01*
X127668867Y-143951972D01*
X127668871Y-143951975D01*
X127813107Y-144040942D01*
X127813118Y-144040947D01*
X127973993Y-144094255D01*
X128073283Y-144104399D01*
X128121599Y-144104398D01*
X128121600Y-144104398D01*
X128121600Y-143404400D01*
X128621600Y-143404400D01*
X128621600Y-144104399D01*
X128669908Y-144104399D01*
X128669922Y-144104398D01*
X128769207Y-144094255D01*
X128930081Y-144040947D01*
X128930092Y-144040942D01*
X129074328Y-143951975D01*
X129074332Y-143951972D01*
X129194172Y-143832132D01*
X129194175Y-143832128D01*
X129283142Y-143687892D01*
X129283147Y-143687881D01*
X129336455Y-143527006D01*
X129346599Y-143427722D01*
X129346600Y-143427709D01*
X129346600Y-143404400D01*
X129987401Y-143404400D01*
X129987401Y-143427722D01*
X129997544Y-143527007D01*
X130050852Y-143687881D01*
X130050857Y-143687892D01*
X130139824Y-143832128D01*
X130139827Y-143832132D01*
X130259667Y-143951972D01*
X130259671Y-143951975D01*
X130403907Y-144040942D01*
X130403918Y-144040947D01*
X130564793Y-144094255D01*
X130664083Y-144104399D01*
X130712399Y-144104398D01*
X130712400Y-144104398D01*
X130712400Y-143404400D01*
X131212400Y-143404400D01*
X131212400Y-144104399D01*
X131260708Y-144104399D01*
X131260722Y-144104398D01*
X131360007Y-144094255D01*
X131520881Y-144040947D01*
X131520892Y-144040942D01*
X131665128Y-143951975D01*
X131665132Y-143951972D01*
X131784972Y-143832132D01*
X131784975Y-143832128D01*
X131873942Y-143687892D01*
X131873947Y-143687881D01*
X131927255Y-143527006D01*
X131937399Y-143427722D01*
X131937400Y-143427709D01*
X131937400Y-143404400D01*
X131212400Y-143404400D01*
X130712400Y-143404400D01*
X129987401Y-143404400D01*
X129346600Y-143404400D01*
X128621600Y-143404400D01*
X128121600Y-143404400D01*
X127396601Y-143404400D01*
X105664500Y-143404400D01*
X105664500Y-136535000D01*
X107510000Y-136535000D01*
X108343889Y-136535000D01*
X108304390Y-136559457D01*
X108236799Y-136648962D01*
X108206105Y-136756840D01*
X108216454Y-136868521D01*
X108266448Y-136968922D01*
X108338931Y-137035000D01*
X107510001Y-137035000D01*
X107510001Y-137084986D01*
X107520494Y-137187697D01*
X107575641Y-137354119D01*
X107575643Y-137354124D01*
X107667684Y-137503345D01*
X107791654Y-137627315D01*
X107940875Y-137719356D01*
X107940880Y-137719358D01*
X108107302Y-137774505D01*
X108107309Y-137774506D01*
X108210019Y-137784999D01*
X108659999Y-137784999D01*
X108660000Y-137784998D01*
X108660000Y-137085000D01*
X109160000Y-137085000D01*
X109160000Y-137784999D01*
X109609972Y-137784999D01*
X109609986Y-137784998D01*
X109712697Y-137774505D01*
X109879119Y-137719358D01*
X109879124Y-137719356D01*
X110028345Y-137627315D01*
X110152315Y-137503345D01*
X110244356Y-137354124D01*
X110244358Y-137354119D01*
X110299505Y-137187697D01*
X110299506Y-137187690D01*
X110309999Y-137084986D01*
X110310000Y-137084973D01*
X110310000Y-137035000D01*
X109476111Y-137035000D01*
X109515610Y-137010543D01*
X109583201Y-136921038D01*
X109613895Y-136813160D01*
X109603546Y-136701479D01*
X109553552Y-136601078D01*
X109481069Y-136535000D01*
X110309999Y-136535000D01*
X110309999Y-136485028D01*
X110309998Y-136485013D01*
X110299505Y-136382302D01*
X110244358Y-136215880D01*
X110244356Y-136215875D01*
X110152315Y-136066654D01*
X110028345Y-135942684D01*
X109879124Y-135850643D01*
X109879119Y-135850641D01*
X109712697Y-135795494D01*
X109712690Y-135795493D01*
X109609986Y-135785000D01*
X109160000Y-135785000D01*
X109160000Y-136485000D01*
X108660000Y-136485000D01*
X108660000Y-135785000D01*
X108210028Y-135785000D01*
X108210012Y-135785001D01*
X108107302Y-135795494D01*
X107940880Y-135850641D01*
X107940875Y-135850643D01*
X107791654Y-135942684D01*
X107667684Y-136066654D01*
X107575643Y-136215875D01*
X107575641Y-136215880D01*
X107520494Y-136382302D01*
X107520493Y-136382309D01*
X107510000Y-136485013D01*
X107510000Y-136535000D01*
X105664500Y-136535000D01*
X105664500Y-132283200D01*
X109883184Y-132283200D01*
X109901995Y-132462175D01*
X109901996Y-132462177D01*
X109950749Y-132612226D01*
X109957605Y-132633325D01*
X110047585Y-132789175D01*
X110168002Y-132922911D01*
X110313592Y-133028689D01*
X110477993Y-133101885D01*
X110477996Y-133101885D01*
X110477997Y-133101886D01*
X110506128Y-133107865D01*
X110654020Y-133139300D01*
X110700236Y-133139300D01*
X110767275Y-133158985D01*
X110775722Y-133164924D01*
X110824819Y-133202597D01*
X110872959Y-133239536D01*
X111019038Y-133300044D01*
X111097419Y-133310363D01*
X111175799Y-133320682D01*
X111175800Y-133320682D01*
X111207102Y-133316560D01*
X111223287Y-133315500D01*
X112467649Y-133315500D01*
X112534688Y-133335185D01*
X112580443Y-133387989D01*
X112590939Y-133426251D01*
X112593679Y-133451748D01*
X112593679Y-133478250D01*
X112589500Y-133517122D01*
X112589500Y-133912869D01*
X112589501Y-133912880D01*
X112593931Y-133954093D01*
X112593931Y-133980596D01*
X112590000Y-134017165D01*
X112590000Y-134065000D01*
X112605611Y-134080611D01*
X112619484Y-134084685D01*
X112651713Y-134114690D01*
X112671176Y-134140690D01*
X112695592Y-134206155D01*
X112680740Y-134274428D01*
X112671176Y-134289310D01*
X112651713Y-134315310D01*
X112603890Y-134351109D01*
X112590000Y-134365000D01*
X112590000Y-134412832D01*
X112593931Y-134449399D01*
X112593931Y-134475905D01*
X112589500Y-134517122D01*
X112589500Y-134585032D01*
X112569815Y-134652071D01*
X112517011Y-134697826D01*
X112481042Y-134708054D01*
X112425688Y-134715047D01*
X112425686Y-134715047D01*
X112271702Y-134776014D01*
X112271693Y-134776019D01*
X112137715Y-134873360D01*
X112137712Y-134873363D01*
X112032144Y-135000972D01*
X111961626Y-135150831D01*
X111930594Y-135313516D01*
X111940993Y-135478804D01*
X111940993Y-135478807D01*
X111953334Y-135516788D01*
X111992172Y-135636317D01*
X112010691Y-135665499D01*
X112066740Y-135753817D01*
X112086041Y-135820968D01*
X112065974Y-135887894D01*
X112022222Y-135928678D01*
X111965788Y-135960002D01*
X111965783Y-135960005D01*
X111811469Y-136092478D01*
X111811468Y-136092479D01*
X111686981Y-136253304D01*
X111597411Y-136435906D01*
X111571754Y-136535000D01*
X112373889Y-136535000D01*
X112334390Y-136559457D01*
X112266799Y-136648962D01*
X112236105Y-136756840D01*
X112246454Y-136868521D01*
X112296448Y-136968922D01*
X112368931Y-137035000D01*
X111566634Y-137035000D01*
X111566931Y-137036946D01*
X111566933Y-137036952D01*
X111637562Y-137227657D01*
X111637565Y-137227664D01*
X111745149Y-137400267D01*
X111885264Y-137547668D01*
X111885266Y-137547669D01*
X112052195Y-137663856D01*
X112239092Y-137744059D01*
X112438310Y-137785000D01*
X112840000Y-137785000D01*
X112840000Y-137085000D01*
X113340000Y-137085000D01*
X113340000Y-137785000D01*
X113690713Y-137785000D01*
X113842338Y-137769581D01*
X114036381Y-137708700D01*
X114036391Y-137708695D01*
X114214215Y-137609994D01*
X114214216Y-137609994D01*
X114368530Y-137477521D01*
X114368531Y-137477520D01*
X114493018Y-137316695D01*
X114582588Y-137134093D01*
X114608246Y-137035000D01*
X113806111Y-137035000D01*
X113845610Y-137010543D01*
X113913201Y-136921038D01*
X113943895Y-136813160D01*
X113933546Y-136701479D01*
X113883552Y-136601078D01*
X113811069Y-136535000D01*
X114613366Y-136535000D01*
X114613068Y-136533053D01*
X114613067Y-136533050D01*
X114579017Y-136441112D01*
X114574193Y-136371409D01*
X114596032Y-136323735D01*
X114683350Y-136207093D01*
X114683354Y-136207086D01*
X114733596Y-136072379D01*
X114733598Y-136072372D01*
X114739999Y-136012844D01*
X114740000Y-136012827D01*
X114740000Y-135915000D01*
X113539000Y-135915000D01*
X113471961Y-135895315D01*
X113426206Y-135842511D01*
X113415000Y-135791000D01*
X113415000Y-135789499D01*
X113434685Y-135722460D01*
X113487489Y-135676705D01*
X113539000Y-135665499D01*
X114287871Y-135665499D01*
X114287872Y-135665499D01*
X114347483Y-135659091D01*
X114482331Y-135608796D01*
X114597546Y-135522546D01*
X114597549Y-135522542D01*
X114601857Y-135516788D01*
X114657792Y-135474917D01*
X114701123Y-135467100D01*
X116534277Y-135467100D01*
X116601316Y-135486785D01*
X116607163Y-135490782D01*
X116714392Y-135568689D01*
X116878793Y-135641885D01*
X116878796Y-135641885D01*
X116878797Y-135641886D01*
X116906928Y-135647865D01*
X117054820Y-135679300D01*
X117234780Y-135679300D01*
X117410807Y-135641885D01*
X117575208Y-135568689D01*
X117720798Y-135462911D01*
X117841215Y-135329175D01*
X117931195Y-135173325D01*
X117986805Y-135002174D01*
X118005616Y-134823200D01*
X117986805Y-134644226D01*
X117931195Y-134473075D01*
X117841215Y-134317225D01*
X117720798Y-134183489D01*
X117584807Y-134084685D01*
X117575211Y-134077713D01*
X117575210Y-134077712D01*
X117575208Y-134077711D01*
X117410807Y-134004515D01*
X117410806Y-134004514D01*
X117410802Y-134004513D01*
X117234780Y-133967100D01*
X117054820Y-133967100D01*
X116878797Y-134004513D01*
X116850342Y-134017182D01*
X116742942Y-134065000D01*
X116714388Y-134077713D01*
X116568799Y-134183491D01*
X116568796Y-134183493D01*
X116534241Y-134221872D01*
X116474755Y-134258521D01*
X116442091Y-134262900D01*
X114841462Y-134262900D01*
X114774423Y-134243215D01*
X114728668Y-134190411D01*
X114718724Y-134121253D01*
X114740000Y-134074664D01*
X114740000Y-134017182D01*
X114739999Y-134017164D01*
X114736068Y-133980602D01*
X114736068Y-133954093D01*
X114740500Y-133912873D01*
X114740499Y-133806779D01*
X114760183Y-133739741D01*
X114789013Y-133708404D01*
X114873882Y-133643282D01*
X114893109Y-133618223D01*
X114903790Y-133606043D01*
X114908843Y-133600990D01*
X114921023Y-133590309D01*
X114946082Y-133571082D01*
X114999167Y-133501900D01*
X115046501Y-133440214D01*
X115102929Y-133399011D01*
X115144877Y-133391700D01*
X116275088Y-133391700D01*
X116342127Y-133411385D01*
X116360431Y-133426942D01*
X116360773Y-133426563D01*
X116365598Y-133430908D01*
X116365601Y-133430910D01*
X116365602Y-133430911D01*
X116511192Y-133536689D01*
X116675593Y-133609885D01*
X116675596Y-133609885D01*
X116675597Y-133609886D01*
X116703728Y-133615865D01*
X116851620Y-133647300D01*
X117031580Y-133647300D01*
X117207607Y-133609885D01*
X117372008Y-133536689D01*
X117517598Y-133430911D01*
X117638015Y-133297175D01*
X117727995Y-133141325D01*
X117783605Y-132970174D01*
X117802416Y-132791200D01*
X117783605Y-132612226D01*
X117727995Y-132441075D01*
X117638015Y-132285225D01*
X117517598Y-132151489D01*
X117398305Y-132064817D01*
X117355641Y-132009488D01*
X117349662Y-131939874D01*
X117382268Y-131878079D01*
X117443107Y-131843722D01*
X117471192Y-131840500D01*
X118270717Y-131840500D01*
X118337756Y-131860185D01*
X118383511Y-131912989D01*
X118389101Y-131927607D01*
X118392622Y-131938906D01*
X118480628Y-132084485D01*
X118600915Y-132204772D01*
X118600917Y-132204773D01*
X118601670Y-132205363D01*
X118602078Y-132205934D01*
X118606219Y-132210075D01*
X118605530Y-132210763D01*
X118642304Y-132262201D01*
X118649200Y-132302976D01*
X118649200Y-133632380D01*
X118629515Y-133699419D01*
X118612881Y-133720061D01*
X118519231Y-133813710D01*
X118519230Y-133813711D01*
X118431222Y-133959293D01*
X118380613Y-134121707D01*
X118374200Y-134192286D01*
X118374200Y-134855513D01*
X118380613Y-134926092D01*
X118380613Y-134926094D01*
X118380614Y-134926096D01*
X118431222Y-135088506D01*
X118518264Y-135232491D01*
X118519230Y-135234088D01*
X118639511Y-135354369D01*
X118639513Y-135354370D01*
X118639515Y-135354372D01*
X118785094Y-135442378D01*
X118947504Y-135492986D01*
X119018084Y-135499400D01*
X119018087Y-135499400D01*
X119531313Y-135499400D01*
X119531316Y-135499400D01*
X119601896Y-135492986D01*
X119764306Y-135442378D01*
X119909885Y-135354372D01*
X120012373Y-135251883D01*
X120073694Y-135218399D01*
X120143385Y-135223383D01*
X120187734Y-135251884D01*
X120289822Y-135353972D01*
X120435304Y-135441919D01*
X120435303Y-135441919D01*
X120597594Y-135492490D01*
X120597593Y-135492490D01*
X120668108Y-135498898D01*
X120668126Y-135498899D01*
X120674699Y-135498898D01*
X120674700Y-135498898D01*
X120674700Y-134773900D01*
X121174700Y-134773900D01*
X121174700Y-135498899D01*
X121181281Y-135498899D01*
X121251802Y-135492491D01*
X121251807Y-135492490D01*
X121414096Y-135441918D01*
X121559577Y-135353972D01*
X121679772Y-135233777D01*
X121767719Y-135088295D01*
X121818290Y-134926006D01*
X121824700Y-134855472D01*
X121824700Y-134773900D01*
X121174700Y-134773900D01*
X120674700Y-134773900D01*
X120674700Y-133548900D01*
X121174700Y-133548900D01*
X121174700Y-134273900D01*
X121824699Y-134273900D01*
X121824699Y-134192317D01*
X121818291Y-134121797D01*
X121818290Y-134121792D01*
X121767718Y-133959503D01*
X121679772Y-133814022D01*
X121559577Y-133693827D01*
X121414095Y-133605880D01*
X121414096Y-133605880D01*
X121251805Y-133555309D01*
X121251806Y-133555309D01*
X121181272Y-133548900D01*
X121174700Y-133548900D01*
X120674700Y-133548900D01*
X120674699Y-133548899D01*
X120668136Y-133548900D01*
X120668117Y-133548901D01*
X120597597Y-133555308D01*
X120597592Y-133555309D01*
X120435303Y-133605881D01*
X120289822Y-133693827D01*
X120289821Y-133693828D01*
X120187735Y-133795915D01*
X120126412Y-133829400D01*
X120056720Y-133824416D01*
X120012373Y-133795915D01*
X119936519Y-133720061D01*
X119903034Y-133658738D01*
X119900200Y-133632380D01*
X119900200Y-132227219D01*
X119919885Y-132160180D01*
X119936518Y-132139539D01*
X119945619Y-132130438D01*
X119973773Y-132102283D01*
X120035093Y-132068799D01*
X120104785Y-132073783D01*
X120149134Y-132102284D01*
X120251222Y-132204372D01*
X120396704Y-132292319D01*
X120396703Y-132292319D01*
X120558994Y-132342890D01*
X120558993Y-132342890D01*
X120629508Y-132349298D01*
X120629526Y-132349299D01*
X120636099Y-132349298D01*
X120636100Y-132349298D01*
X120636100Y-131624300D01*
X121136100Y-131624300D01*
X121136100Y-132349299D01*
X121142681Y-132349299D01*
X121213202Y-132342891D01*
X121213207Y-132342890D01*
X121375496Y-132292318D01*
X121520977Y-132204372D01*
X121641172Y-132084177D01*
X121729119Y-131938695D01*
X121779690Y-131776406D01*
X121786100Y-131705872D01*
X121786100Y-131624300D01*
X121136100Y-131624300D01*
X120636100Y-131624300D01*
X120636100Y-130399300D01*
X121136100Y-130399300D01*
X121136100Y-131124300D01*
X121786099Y-131124300D01*
X121786099Y-131042717D01*
X121779691Y-130972197D01*
X121779690Y-130972192D01*
X121729118Y-130809903D01*
X121641172Y-130664422D01*
X121520977Y-130544227D01*
X121375495Y-130456280D01*
X121375496Y-130456280D01*
X121213205Y-130405709D01*
X121213206Y-130405709D01*
X121142672Y-130399300D01*
X121136100Y-130399300D01*
X120636100Y-130399300D01*
X120636099Y-130399299D01*
X120629536Y-130399300D01*
X120629517Y-130399301D01*
X120558997Y-130405708D01*
X120558992Y-130405709D01*
X120396703Y-130456281D01*
X120251222Y-130544227D01*
X120251221Y-130544228D01*
X120149135Y-130646315D01*
X120087812Y-130679800D01*
X120018120Y-130674816D01*
X119973773Y-130646315D01*
X119871288Y-130543830D01*
X119725706Y-130455822D01*
X119700132Y-130447853D01*
X119563296Y-130405214D01*
X119563294Y-130405213D01*
X119563292Y-130405213D01*
X119513878Y-130400723D01*
X119492716Y-130398800D01*
X118979484Y-130398800D01*
X118960245Y-130400548D01*
X118908907Y-130405213D01*
X118746493Y-130455822D01*
X118600911Y-130543830D01*
X118600910Y-130543831D01*
X118591561Y-130553181D01*
X118530238Y-130586666D01*
X118503880Y-130589500D01*
X117754159Y-130589500D01*
X117687120Y-130569815D01*
X117641365Y-130517011D01*
X117631421Y-130447853D01*
X117660446Y-130384297D01*
X117666478Y-130377819D01*
X117813798Y-130230500D01*
X117967479Y-130076819D01*
X118028802Y-130043334D01*
X118055160Y-130040500D01*
X118098380Y-130040500D01*
X118274407Y-130003085D01*
X118438808Y-129929889D01*
X118584398Y-129824111D01*
X118584403Y-129824104D01*
X118589228Y-129819762D01*
X118590906Y-129821626D01*
X118640790Y-129790884D01*
X118673471Y-129786500D01*
X122311500Y-129786500D01*
X122378539Y-129806185D01*
X122424294Y-129858989D01*
X122435500Y-129910500D01*
X122435500Y-135688878D01*
X122415815Y-135755917D01*
X122403650Y-135771850D01*
X122341184Y-135841225D01*
X122251204Y-135997076D01*
X122195596Y-136168222D01*
X122195595Y-136168224D01*
X122191510Y-136207093D01*
X122176784Y-136347200D01*
X122195595Y-136526174D01*
X122251205Y-136697325D01*
X122341185Y-136853175D01*
X122437615Y-136960271D01*
X122445404Y-136968922D01*
X122461602Y-136986911D01*
X122607192Y-137092689D01*
X122771593Y-137165885D01*
X122771596Y-137165885D01*
X122771597Y-137165886D01*
X122799728Y-137171865D01*
X122947620Y-137203300D01*
X123127580Y-137203300D01*
X123303607Y-137165885D01*
X123468008Y-137092689D01*
X123613598Y-136986911D01*
X123734015Y-136853175D01*
X123823995Y-136697325D01*
X123879605Y-136526174D01*
X123898416Y-136347200D01*
X123879605Y-136168226D01*
X123823995Y-135997075D01*
X123734015Y-135841225D01*
X123729884Y-135836637D01*
X123671550Y-135771850D01*
X123641320Y-135708858D01*
X123639700Y-135688878D01*
X123639700Y-129282779D01*
X123640761Y-129266594D01*
X123644894Y-129235201D01*
X123644894Y-129235198D01*
X123640231Y-129199779D01*
X123640230Y-129199764D01*
X123624202Y-129078021D01*
X123624202Y-129078020D01*
X123563533Y-128931553D01*
X123530804Y-128888900D01*
X123529119Y-128886704D01*
X123503913Y-128821542D01*
X123517938Y-128753094D01*
X123566743Y-128703095D01*
X123634831Y-128687419D01*
X123691630Y-128705083D01*
X123818994Y-128782078D01*
X123981404Y-128832686D01*
X124051984Y-128839100D01*
X124051987Y-128839100D01*
X124565213Y-128839100D01*
X124565216Y-128839100D01*
X124635796Y-128832686D01*
X124798206Y-128782078D01*
X124943785Y-128694072D01*
X124986940Y-128650917D01*
X125045919Y-128591939D01*
X125107242Y-128558454D01*
X125176934Y-128563438D01*
X125221281Y-128591939D01*
X125323411Y-128694069D01*
X125323413Y-128694070D01*
X125323415Y-128694072D01*
X125468994Y-128782078D01*
X125631404Y-128832686D01*
X125701984Y-128839100D01*
X125998148Y-128839100D01*
X126065187Y-128858785D01*
X126085829Y-128875419D01*
X129001181Y-131790772D01*
X129034666Y-131852095D01*
X129037500Y-131878453D01*
X129037500Y-132246269D01*
X129037501Y-132246276D01*
X129041196Y-132280647D01*
X129028789Y-132349406D01*
X128981178Y-132400543D01*
X128917906Y-132417900D01*
X128801770Y-132417900D01*
X128734731Y-132398215D01*
X128728899Y-132394228D01*
X128598808Y-132299711D01*
X128434407Y-132226515D01*
X128434406Y-132226514D01*
X128434402Y-132226513D01*
X128258380Y-132189100D01*
X128078420Y-132189100D01*
X127902397Y-132226513D01*
X127858018Y-132246272D01*
X127775077Y-132283200D01*
X127737988Y-132299713D01*
X127592400Y-132405490D01*
X127471984Y-132539226D01*
X127382004Y-132695076D01*
X127326396Y-132866222D01*
X127326395Y-132866224D01*
X127307584Y-133045200D01*
X127326395Y-133224175D01*
X127326396Y-133224177D01*
X127382004Y-133395323D01*
X127443536Y-133501900D01*
X127460009Y-133569801D01*
X127437156Y-133635827D01*
X127382235Y-133679018D01*
X127336149Y-133687900D01*
X126612897Y-133687900D01*
X126545858Y-133668215D01*
X126525216Y-133651581D01*
X125708825Y-132835190D01*
X125675340Y-132773867D01*
X125673188Y-132760490D01*
X125657605Y-132612226D01*
X125601995Y-132441075D01*
X125512015Y-132285225D01*
X125391598Y-132151489D01*
X125299377Y-132084486D01*
X125246011Y-132045713D01*
X125246010Y-132045712D01*
X125246008Y-132045711D01*
X125081607Y-131972515D01*
X125081606Y-131972514D01*
X125081602Y-131972513D01*
X124905580Y-131935100D01*
X124725620Y-131935100D01*
X124549597Y-131972513D01*
X124385188Y-132045713D01*
X124239600Y-132151490D01*
X124119184Y-132285226D01*
X124029204Y-132441076D01*
X123973596Y-132612222D01*
X123973595Y-132612224D01*
X123954784Y-132791200D01*
X123973595Y-132970175D01*
X123973596Y-132970177D01*
X124028546Y-133139299D01*
X124029205Y-133141325D01*
X124119185Y-133297175D01*
X124153410Y-133335185D01*
X124223359Y-133412872D01*
X124239602Y-133430911D01*
X124385192Y-133536689D01*
X124549593Y-133609885D01*
X124549596Y-133609885D01*
X124549597Y-133609886D01*
X124577728Y-133615865D01*
X124725620Y-133647300D01*
X124771103Y-133647300D01*
X124838142Y-133666985D01*
X124858784Y-133683619D01*
X125854599Y-134679434D01*
X125865293Y-134691628D01*
X125883263Y-134715047D01*
X125884518Y-134716682D01*
X125961842Y-134776014D01*
X125975209Y-134786271D01*
X125975210Y-134786273D01*
X126003399Y-134807902D01*
X126009959Y-134812936D01*
X126009961Y-134812936D01*
X126009963Y-134812938D01*
X126034738Y-134823200D01*
X126156038Y-134873444D01*
X126281492Y-134889961D01*
X126312799Y-134894083D01*
X126312800Y-134894083D01*
X126312801Y-134894083D01*
X126344108Y-134889961D01*
X126360294Y-134888900D01*
X128973859Y-134888900D01*
X129040898Y-134908585D01*
X129086653Y-134961389D01*
X129090030Y-134969540D01*
X129094204Y-134980731D01*
X129094205Y-134980732D01*
X129094206Y-134980735D01*
X129180452Y-135095944D01*
X129180455Y-135095947D01*
X129295664Y-135182193D01*
X129295671Y-135182197D01*
X129430517Y-135232491D01*
X129430516Y-135232491D01*
X129437444Y-135233235D01*
X129490127Y-135238900D01*
X130978500Y-135238899D01*
X131045539Y-135258584D01*
X131091294Y-135311387D01*
X131102500Y-135362899D01*
X131102500Y-136336270D01*
X131102501Y-136336276D01*
X131108908Y-136395883D01*
X131159202Y-136530728D01*
X131159206Y-136530735D01*
X131245452Y-136645944D01*
X131245455Y-136645947D01*
X131360664Y-136732193D01*
X131360671Y-136732197D01*
X131495517Y-136782491D01*
X131495516Y-136782491D01*
X131502444Y-136783235D01*
X131555127Y-136788900D01*
X132550872Y-136788899D01*
X132610483Y-136782491D01*
X132644667Y-136769740D01*
X132714358Y-136764757D01*
X132731327Y-136769738D01*
X132765517Y-136782491D01*
X132825127Y-136788900D01*
X133820872Y-136788899D01*
X133880483Y-136782491D01*
X133914667Y-136769740D01*
X133984358Y-136764757D01*
X134001327Y-136769738D01*
X134035517Y-136782491D01*
X134070596Y-136786262D01*
X134095117Y-136788899D01*
X134095118Y-136788899D01*
X134095127Y-136788900D01*
X134102091Y-136788899D01*
X134169129Y-136808577D01*
X134214889Y-136861377D01*
X134226100Y-136912899D01*
X134226100Y-140549623D01*
X134206415Y-140616662D01*
X134153611Y-140662417D01*
X134126465Y-140669866D01*
X134126668Y-140670724D01*
X134119120Y-140672507D01*
X133984271Y-140722802D01*
X133984264Y-140722806D01*
X133869055Y-140809052D01*
X133779103Y-140929212D01*
X133723169Y-140971082D01*
X133679837Y-140978900D01*
X132938247Y-140978900D01*
X132915015Y-140976704D01*
X132906988Y-140975173D01*
X132906985Y-140975172D01*
X132851641Y-140978655D01*
X132843855Y-140978900D01*
X131886947Y-140978900D01*
X131819908Y-140959215D01*
X131789676Y-140931805D01*
X131785367Y-140926355D01*
X131730410Y-140871398D01*
X131665444Y-140806432D01*
X131665441Y-140806430D01*
X131665440Y-140806429D01*
X131521105Y-140717401D01*
X131521099Y-140717398D01*
X131521097Y-140717397D01*
X131498005Y-140709745D01*
X131360109Y-140664051D01*
X131260746Y-140653900D01*
X130664062Y-140653900D01*
X130664044Y-140653901D01*
X130564692Y-140664050D01*
X130564689Y-140664051D01*
X130403705Y-140717396D01*
X130403694Y-140717401D01*
X130259359Y-140806429D01*
X130139432Y-140926355D01*
X130135124Y-140931805D01*
X130078104Y-140972185D01*
X130037853Y-140978900D01*
X129296147Y-140978900D01*
X129229108Y-140959215D01*
X129198876Y-140931805D01*
X129194563Y-140926350D01*
X129074647Y-140806434D01*
X129056000Y-140794932D01*
X129009277Y-140742982D01*
X128997100Y-140689395D01*
X128997100Y-140468542D01*
X128998824Y-140452922D01*
X128998539Y-140452895D01*
X128999273Y-140445133D01*
X128997161Y-140377912D01*
X128997100Y-140374018D01*
X128997100Y-140346456D01*
X128997100Y-140346450D01*
X128996596Y-140342468D01*
X128995681Y-140330829D01*
X128994310Y-140287173D01*
X128988719Y-140267930D01*
X128984773Y-140248878D01*
X128982264Y-140229008D01*
X128966179Y-140188383D01*
X128962406Y-140177362D01*
X128950218Y-140135410D01*
X128950217Y-140135409D01*
X128950217Y-140135407D01*
X128950216Y-140135406D01*
X128940023Y-140118171D01*
X128931461Y-140100694D01*
X128924087Y-140082069D01*
X128898416Y-140046737D01*
X128892005Y-140036977D01*
X128869770Y-139999380D01*
X128869768Y-139999378D01*
X128869765Y-139999374D01*
X128855606Y-139985215D01*
X128842968Y-139970419D01*
X128837076Y-139962309D01*
X128831194Y-139954213D01*
X128797540Y-139926372D01*
X128788899Y-139918509D01*
X127710360Y-138839969D01*
X127676875Y-138778646D01*
X127674723Y-138765268D01*
X127657074Y-138597344D01*
X127598579Y-138417316D01*
X127503933Y-138253384D01*
X127377271Y-138112712D01*
X127377270Y-138112711D01*
X127224134Y-138001451D01*
X127224129Y-138001448D01*
X127051207Y-137924457D01*
X127051202Y-137924455D01*
X126905401Y-137893465D01*
X126866046Y-137885100D01*
X126676754Y-137885100D01*
X126644297Y-137891998D01*
X126491597Y-137924455D01*
X126491592Y-137924457D01*
X126318670Y-138001448D01*
X126318665Y-138001451D01*
X126165529Y-138112711D01*
X126038866Y-138253385D01*
X125944221Y-138417315D01*
X125944218Y-138417322D01*
X125885727Y-138597340D01*
X125885726Y-138597344D01*
X125865940Y-138785600D01*
X125885726Y-138973856D01*
X125885727Y-138973859D01*
X125944218Y-139153877D01*
X125944221Y-139153884D01*
X126038867Y-139317816D01*
X126165529Y-139458488D01*
X126318665Y-139569748D01*
X126318670Y-139569751D01*
X126491592Y-139646742D01*
X126491597Y-139646744D01*
X126676754Y-139686100D01*
X126735948Y-139686100D01*
X126802987Y-139705785D01*
X126823629Y-139722419D01*
X127705540Y-140604330D01*
X127739025Y-140665653D01*
X127734041Y-140735345D01*
X127692169Y-140791278D01*
X127682959Y-140797548D01*
X127668554Y-140806433D01*
X127548629Y-140926359D01*
X127459601Y-141070694D01*
X127459596Y-141070705D01*
X127406251Y-141231690D01*
X127396100Y-141331047D01*
X127396100Y-141877737D01*
X127396101Y-141877755D01*
X127406250Y-141977107D01*
X127406251Y-141977110D01*
X127459596Y-142138094D01*
X127459601Y-142138105D01*
X127548629Y-142282440D01*
X127548632Y-142282444D01*
X127558260Y-142292072D01*
X127591745Y-142353395D01*
X127586761Y-142423087D01*
X127558263Y-142467431D01*
X127549028Y-142476665D01*
X127549024Y-142476671D01*
X127460057Y-142620907D01*
X127460052Y-142620918D01*
X127406744Y-142781793D01*
X127396600Y-142881077D01*
X127396600Y-142904400D01*
X129346599Y-142904400D01*
X129346599Y-142881092D01*
X129346598Y-142881077D01*
X129336455Y-142781792D01*
X129283147Y-142620918D01*
X129283142Y-142620907D01*
X129194175Y-142476671D01*
X129194172Y-142476667D01*
X129184939Y-142467434D01*
X129151454Y-142406111D01*
X129156438Y-142336419D01*
X129184943Y-142292068D01*
X129194568Y-142282444D01*
X129194570Y-142282439D01*
X129198881Y-142276990D01*
X129255903Y-142236613D01*
X129296148Y-142229900D01*
X130037853Y-142229900D01*
X130104892Y-142249585D01*
X130135124Y-142276995D01*
X130139436Y-142282449D01*
X130149059Y-142292072D01*
X130182544Y-142353395D01*
X130177560Y-142423087D01*
X130149065Y-142467428D01*
X130139830Y-142476664D01*
X130139824Y-142476671D01*
X130050857Y-142620907D01*
X130050852Y-142620918D01*
X129997544Y-142781793D01*
X129987400Y-142881077D01*
X129987400Y-142904400D01*
X131937399Y-142904400D01*
X131937399Y-142881092D01*
X131937398Y-142881077D01*
X131927255Y-142781792D01*
X131873947Y-142620918D01*
X131873942Y-142620907D01*
X131784975Y-142476671D01*
X131784972Y-142476667D01*
X131775739Y-142467434D01*
X131742254Y-142406111D01*
X131747238Y-142336419D01*
X131775743Y-142292068D01*
X131785368Y-142282444D01*
X131785370Y-142282439D01*
X131789681Y-142276990D01*
X131846703Y-142236613D01*
X131886948Y-142229900D01*
X132129472Y-142229900D01*
X132196511Y-142249585D01*
X132242266Y-142302389D01*
X132248545Y-142319294D01*
X132250276Y-142325250D01*
X132254224Y-142344311D01*
X132255372Y-142353395D01*
X132256736Y-142364192D01*
X132272814Y-142404803D01*
X132276597Y-142415852D01*
X132288782Y-142457790D01*
X132294483Y-142467431D01*
X132298980Y-142475034D01*
X132307538Y-142492503D01*
X132314914Y-142511132D01*
X132340581Y-142546460D01*
X132346993Y-142556221D01*
X132369228Y-142593817D01*
X132369233Y-142593824D01*
X132383390Y-142607980D01*
X132396028Y-142622776D01*
X132407805Y-142638986D01*
X132407806Y-142638987D01*
X132441457Y-142666825D01*
X132450098Y-142674688D01*
X133475794Y-143700384D01*
X133485619Y-143712648D01*
X133485840Y-143712466D01*
X133490810Y-143718474D01*
X133539839Y-143764515D01*
X133542636Y-143767226D01*
X133562130Y-143786720D01*
X133565295Y-143789175D01*
X133574171Y-143796756D01*
X133606018Y-143826662D01*
X133615968Y-143832132D01*
X133623573Y-143836313D01*
X133639831Y-143846992D01*
X133655664Y-143859274D01*
X133691010Y-143874568D01*
X133695755Y-143876622D01*
X133706235Y-143881755D01*
X133744508Y-143902797D01*
X133763912Y-143907779D01*
X133782310Y-143914078D01*
X133800705Y-143922038D01*
X133843850Y-143928870D01*
X133855283Y-143931239D01*
X133866862Y-143934212D01*
X133910335Y-143955049D01*
X133984269Y-144010396D01*
X133984270Y-144010396D01*
X133984271Y-144010397D01*
X134119117Y-144060691D01*
X134126662Y-144062474D01*
X134126123Y-144064751D01*
X134179887Y-144087008D01*
X134219747Y-144144393D01*
X134226100Y-144183575D01*
X134226100Y-145769300D01*
X134206415Y-145836339D01*
X134153611Y-145882094D01*
X134102100Y-145893300D01*
X133010929Y-145893300D01*
X133010923Y-145893301D01*
X132951316Y-145899708D01*
X132816471Y-145950002D01*
X132816464Y-145950006D01*
X132701255Y-146036252D01*
X132701252Y-146036255D01*
X132615006Y-146151464D01*
X132615002Y-146151471D01*
X132564708Y-146286317D01*
X132558301Y-146345916D01*
X132558300Y-146345935D01*
X132558300Y-148141670D01*
X132558301Y-148141676D01*
X132564708Y-148201283D01*
X132615002Y-148336128D01*
X132615006Y-148336135D01*
X132701252Y-148451344D01*
X132701255Y-148451347D01*
X132816464Y-148537593D01*
X132816471Y-148537597D01*
X132951317Y-148587891D01*
X132951316Y-148587891D01*
X132958244Y-148588635D01*
X133010927Y-148594300D01*
X134806672Y-148594299D01*
X134866283Y-148587891D01*
X135001131Y-148537596D01*
X135116346Y-148451346D01*
X135202596Y-148336131D01*
X135251610Y-148204716D01*
X135293481Y-148148784D01*
X135358945Y-148124366D01*
X135427218Y-148139217D01*
X135455473Y-148160369D01*
X135577399Y-148282295D01*
X135674184Y-148350065D01*
X135770965Y-148417832D01*
X135770967Y-148417833D01*
X135770970Y-148417835D01*
X135985137Y-148517703D01*
X136213392Y-148578863D01*
X136389834Y-148594300D01*
X136448799Y-148599459D01*
X136448800Y-148599459D01*
X136448801Y-148599459D01*
X136507766Y-148594300D01*
X136684208Y-148578863D01*
X136912463Y-148517703D01*
X137126630Y-148417835D01*
X137320201Y-148282295D01*
X137487295Y-148115201D01*
X137622835Y-147921630D01*
X137722703Y-147707463D01*
X137783863Y-147479208D01*
X137804459Y-147243800D01*
X137783863Y-147008392D01*
X137722703Y-146780137D01*
X137622835Y-146565971D01*
X137487295Y-146372399D01*
X137487294Y-146372397D01*
X137320202Y-146205306D01*
X137320195Y-146205301D01*
X137126634Y-146069767D01*
X137126630Y-146069765D01*
X136912463Y-145969897D01*
X136912459Y-145969896D01*
X136912455Y-145969894D01*
X136684213Y-145908738D01*
X136684203Y-145908736D01*
X136448801Y-145888141D01*
X136448799Y-145888141D01*
X136213390Y-145908737D01*
X136213389Y-145908737D01*
X136133191Y-145930225D01*
X136063342Y-145928561D01*
X136005480Y-145889398D01*
X135977977Y-145825169D01*
X135977100Y-145810450D01*
X135977100Y-144845070D01*
X142362500Y-144845070D01*
X142362501Y-144845076D01*
X142368908Y-144904683D01*
X142419202Y-145039528D01*
X142419206Y-145039535D01*
X142505452Y-145154744D01*
X142505455Y-145154747D01*
X142620664Y-145240993D01*
X142620671Y-145240997D01*
X142755517Y-145291291D01*
X142755516Y-145291291D01*
X142762444Y-145292035D01*
X142815127Y-145297700D01*
X144110872Y-145297699D01*
X144170483Y-145291291D01*
X144305331Y-145240996D01*
X144420546Y-145154746D01*
X144506796Y-145039531D01*
X144557091Y-144904683D01*
X144563500Y-144845073D01*
X144563499Y-143797200D01*
X144863000Y-143797200D01*
X144863000Y-144845044D01*
X144869401Y-144904572D01*
X144869403Y-144904579D01*
X144919645Y-145039286D01*
X144919649Y-145039293D01*
X145005809Y-145154387D01*
X145005812Y-145154390D01*
X145120906Y-145240550D01*
X145120913Y-145240554D01*
X145255620Y-145290796D01*
X145255627Y-145290798D01*
X145315155Y-145297199D01*
X145315172Y-145297200D01*
X145713000Y-145297200D01*
X145713000Y-143797200D01*
X146213000Y-143797200D01*
X146213000Y-145297200D01*
X146610828Y-145297200D01*
X146610844Y-145297199D01*
X146670372Y-145290798D01*
X146670379Y-145290796D01*
X146805086Y-145240554D01*
X146805093Y-145240550D01*
X146920187Y-145154390D01*
X146920190Y-145154387D01*
X147006350Y-145039293D01*
X147006354Y-145039286D01*
X147056596Y-144904579D01*
X147056598Y-144904572D01*
X147062999Y-144845044D01*
X147063000Y-144845027D01*
X147063000Y-143797200D01*
X146213000Y-143797200D01*
X145713000Y-143797200D01*
X144863000Y-143797200D01*
X144563499Y-143797200D01*
X144563499Y-143297200D01*
X144863000Y-143297200D01*
X145713000Y-143297200D01*
X145713000Y-141797200D01*
X146213000Y-141797200D01*
X146213000Y-143297200D01*
X147063000Y-143297200D01*
X147063000Y-142249372D01*
X147062999Y-142249355D01*
X147056598Y-142189827D01*
X147056596Y-142189820D01*
X147006354Y-142055113D01*
X147006350Y-142055106D01*
X146920190Y-141940012D01*
X146920187Y-141940009D01*
X146805093Y-141853849D01*
X146805086Y-141853845D01*
X146670379Y-141803603D01*
X146670372Y-141803601D01*
X146610844Y-141797200D01*
X146213000Y-141797200D01*
X145713000Y-141797200D01*
X145315155Y-141797200D01*
X145255627Y-141803601D01*
X145255620Y-141803603D01*
X145120913Y-141853845D01*
X145120906Y-141853849D01*
X145005812Y-141940009D01*
X145005809Y-141940012D01*
X144919649Y-142055106D01*
X144919645Y-142055113D01*
X144869403Y-142189820D01*
X144869401Y-142189827D01*
X144863000Y-142249355D01*
X144863000Y-143297200D01*
X144563499Y-143297200D01*
X144563499Y-142249328D01*
X144557091Y-142189717D01*
X144506884Y-142055106D01*
X144506797Y-142054871D01*
X144506793Y-142054864D01*
X144420547Y-141939655D01*
X144420544Y-141939652D01*
X144305335Y-141853406D01*
X144305328Y-141853402D01*
X144170482Y-141803108D01*
X144170483Y-141803108D01*
X144110883Y-141796701D01*
X144110881Y-141796700D01*
X144110873Y-141796700D01*
X144110864Y-141796700D01*
X142815129Y-141796700D01*
X142815123Y-141796701D01*
X142755516Y-141803108D01*
X142620671Y-141853402D01*
X142620664Y-141853406D01*
X142505455Y-141939652D01*
X142505452Y-141939655D01*
X142419206Y-142054864D01*
X142419202Y-142054871D01*
X142368908Y-142189717D01*
X142363867Y-142236613D01*
X142362501Y-142249323D01*
X142362500Y-142249335D01*
X142362500Y-144845070D01*
X135977100Y-144845070D01*
X135977100Y-144183071D01*
X135996785Y-144116032D01*
X136049589Y-144070277D01*
X136076639Y-144062856D01*
X136076432Y-144061980D01*
X136083979Y-144060196D01*
X136218686Y-144009954D01*
X136218693Y-144009950D01*
X136333787Y-143923790D01*
X136333790Y-143923787D01*
X136419950Y-143808693D01*
X136419954Y-143808686D01*
X136470196Y-143673979D01*
X136470198Y-143673972D01*
X136476599Y-143614444D01*
X136476600Y-143614427D01*
X136476600Y-143441600D01*
X136274430Y-143441600D01*
X136207391Y-143421915D01*
X136161636Y-143369111D01*
X136151692Y-143299953D01*
X136180717Y-143236397D01*
X136200103Y-143218345D01*
X136202780Y-143216340D01*
X136268240Y-143191917D01*
X136277101Y-143191600D01*
X136476600Y-143191600D01*
X136476600Y-143018772D01*
X136476599Y-143018755D01*
X136470198Y-142959227D01*
X136470197Y-142959223D01*
X136419952Y-142824510D01*
X136417267Y-142819593D01*
X136402099Y-142760168D01*
X136402099Y-141974087D01*
X136417266Y-141914662D01*
X136420390Y-141908938D01*
X136420396Y-141908931D01*
X136470691Y-141774083D01*
X136477096Y-141714506D01*
X136503833Y-141649959D01*
X136512694Y-141640094D01*
X137516787Y-140636002D01*
X137529042Y-140626186D01*
X137528859Y-140625964D01*
X137534868Y-140620991D01*
X137534877Y-140620986D01*
X137580949Y-140571922D01*
X137583566Y-140569223D01*
X137603120Y-140549671D01*
X137605576Y-140546503D01*
X137613156Y-140537627D01*
X137643062Y-140505782D01*
X137652713Y-140488224D01*
X137663396Y-140471961D01*
X137675673Y-140456136D01*
X137693021Y-140416044D01*
X137698151Y-140405571D01*
X137719197Y-140367292D01*
X137724180Y-140347880D01*
X137730481Y-140329480D01*
X137738437Y-140311096D01*
X137745270Y-140267948D01*
X137747633Y-140256538D01*
X137758500Y-140214219D01*
X137758500Y-140194183D01*
X137760027Y-140174782D01*
X137763160Y-140155004D01*
X137762347Y-140146400D01*
X145317801Y-140146400D01*
X145317801Y-140194722D01*
X145327944Y-140294007D01*
X145381252Y-140454881D01*
X145381257Y-140454892D01*
X145470224Y-140599128D01*
X145470227Y-140599132D01*
X145590067Y-140718972D01*
X145590071Y-140718975D01*
X145734307Y-140807942D01*
X145734318Y-140807947D01*
X145895193Y-140861255D01*
X145994483Y-140871399D01*
X146017800Y-140871398D01*
X146017800Y-140146400D01*
X145317801Y-140146400D01*
X137762347Y-140146400D01*
X137759050Y-140111524D01*
X137758500Y-140099855D01*
X137758500Y-139646400D01*
X145317800Y-139646400D01*
X146017800Y-139646400D01*
X146017800Y-138921399D01*
X145994493Y-138921400D01*
X145994474Y-138921401D01*
X145895192Y-138931544D01*
X145734318Y-138984852D01*
X145734307Y-138984857D01*
X145590071Y-139073824D01*
X145590067Y-139073827D01*
X145470227Y-139193667D01*
X145470224Y-139193671D01*
X145381257Y-139337907D01*
X145381252Y-139337918D01*
X145327944Y-139498793D01*
X145317800Y-139598077D01*
X145317800Y-139646400D01*
X137758500Y-139646400D01*
X137758500Y-136911181D01*
X137778185Y-136844142D01*
X137830989Y-136798387D01*
X137895756Y-136787892D01*
X137905127Y-136788900D01*
X138900872Y-136788899D01*
X138960483Y-136782491D01*
X138994667Y-136769740D01*
X139064358Y-136764757D01*
X139081327Y-136769738D01*
X139115517Y-136782491D01*
X139175127Y-136788900D01*
X140170872Y-136788899D01*
X140230483Y-136782491D01*
X140264667Y-136769740D01*
X140334358Y-136764757D01*
X140351327Y-136769738D01*
X140385517Y-136782491D01*
X140445127Y-136788900D01*
X141440872Y-136788899D01*
X141500483Y-136782491D01*
X141534667Y-136769740D01*
X141604358Y-136764757D01*
X141621327Y-136769738D01*
X141655517Y-136782491D01*
X141715127Y-136788900D01*
X142710872Y-136788899D01*
X142770483Y-136782491D01*
X142804667Y-136769740D01*
X142874358Y-136764757D01*
X142891327Y-136769738D01*
X142925517Y-136782491D01*
X142985127Y-136788900D01*
X143980872Y-136788899D01*
X144040483Y-136782491D01*
X144074667Y-136769740D01*
X144144358Y-136764757D01*
X144161327Y-136769738D01*
X144195517Y-136782491D01*
X144255127Y-136788900D01*
X145250872Y-136788899D01*
X145310483Y-136782491D01*
X145344667Y-136769740D01*
X145414358Y-136764757D01*
X145431327Y-136769738D01*
X145465517Y-136782491D01*
X145525127Y-136788900D01*
X146520872Y-136788899D01*
X146580483Y-136782491D01*
X146715331Y-136732196D01*
X146830546Y-136645946D01*
X146916796Y-136530731D01*
X146952118Y-136436028D01*
X146993989Y-136380094D01*
X147059453Y-136355677D01*
X147127726Y-136370528D01*
X147177132Y-136419933D01*
X147192300Y-136479361D01*
X147192300Y-138971852D01*
X147172615Y-139038891D01*
X147145215Y-139069115D01*
X147139754Y-139073432D01*
X147130124Y-139083063D01*
X147068800Y-139116546D01*
X146999108Y-139111559D01*
X146954765Y-139083060D01*
X146945532Y-139073827D01*
X146945528Y-139073824D01*
X146801292Y-138984857D01*
X146801281Y-138984852D01*
X146640406Y-138931544D01*
X146541122Y-138921400D01*
X146517800Y-138921400D01*
X146517800Y-140871399D01*
X146541108Y-140871399D01*
X146541122Y-140871398D01*
X146640407Y-140861255D01*
X146801281Y-140807947D01*
X146801292Y-140807942D01*
X146945531Y-140718973D01*
X146954759Y-140709745D01*
X147016079Y-140676256D01*
X147085771Y-140681235D01*
X147130127Y-140709739D01*
X147139755Y-140719367D01*
X147139759Y-140719370D01*
X147284094Y-140808398D01*
X147284097Y-140808399D01*
X147284103Y-140808403D01*
X147445092Y-140861749D01*
X147544455Y-140871900D01*
X147713500Y-140871899D01*
X147780539Y-140891583D01*
X147826294Y-140944387D01*
X147837500Y-140995899D01*
X147837500Y-141686435D01*
X147817815Y-141753474D01*
X147765011Y-141799229D01*
X147756834Y-141802617D01*
X147620669Y-141853403D01*
X147620664Y-141853406D01*
X147505455Y-141939652D01*
X147505452Y-141939655D01*
X147419206Y-142054864D01*
X147419202Y-142054871D01*
X147368908Y-142189717D01*
X147363867Y-142236613D01*
X147362501Y-142249323D01*
X147362500Y-142249335D01*
X147362500Y-144845070D01*
X147362501Y-144845076D01*
X147368908Y-144904683D01*
X147419202Y-145039528D01*
X147419206Y-145039535D01*
X147505452Y-145154744D01*
X147505455Y-145154747D01*
X147620664Y-145240993D01*
X147620671Y-145240997D01*
X147755517Y-145291291D01*
X147755516Y-145291291D01*
X147762444Y-145292035D01*
X147815127Y-145297700D01*
X149110872Y-145297699D01*
X149170483Y-145291291D01*
X149305331Y-145240996D01*
X149420546Y-145154746D01*
X149506796Y-145039531D01*
X149557091Y-144904683D01*
X149563500Y-144845073D01*
X149563499Y-142249328D01*
X149557091Y-142189717D01*
X149506884Y-142055106D01*
X149506797Y-142054871D01*
X149506793Y-142054864D01*
X149420547Y-141939655D01*
X149420544Y-141939652D01*
X149305335Y-141853406D01*
X149305330Y-141853403D01*
X149169166Y-141802617D01*
X149113233Y-141760745D01*
X149088816Y-141695281D01*
X149088500Y-141686435D01*
X149088500Y-140624342D01*
X149090224Y-140608722D01*
X149089939Y-140608695D01*
X149090673Y-140600933D01*
X149088561Y-140533712D01*
X149088500Y-140529818D01*
X149088500Y-140502256D01*
X149088500Y-140502250D01*
X149087996Y-140498268D01*
X149087081Y-140486629D01*
X149085710Y-140442973D01*
X149080119Y-140423730D01*
X149076173Y-140404678D01*
X149073664Y-140384808D01*
X149057579Y-140344183D01*
X149053806Y-140333162D01*
X149041618Y-140291210D01*
X149041617Y-140291209D01*
X149041617Y-140291207D01*
X149041616Y-140291206D01*
X149031423Y-140273971D01*
X149022861Y-140256494D01*
X149015487Y-140237869D01*
X148989816Y-140202537D01*
X148983405Y-140192777D01*
X148961170Y-140155180D01*
X148961168Y-140155178D01*
X148961165Y-140155174D01*
X148947006Y-140141015D01*
X148934368Y-140126219D01*
X148928521Y-140118171D01*
X148922594Y-140110013D01*
X148911329Y-140100694D01*
X148888940Y-140082172D01*
X148880299Y-140074309D01*
X148804618Y-139998628D01*
X148771133Y-139937305D01*
X148768299Y-139910947D01*
X148768299Y-139598062D01*
X148768298Y-139598044D01*
X148758149Y-139498692D01*
X148758148Y-139498689D01*
X148704874Y-139337918D01*
X148704803Y-139337703D01*
X148704799Y-139337697D01*
X148704798Y-139337694D01*
X148615770Y-139193359D01*
X148615769Y-139193358D01*
X148615768Y-139193356D01*
X148495844Y-139073432D01*
X148495843Y-139073431D01*
X148495841Y-139073429D01*
X148490390Y-139069119D01*
X148450013Y-139012097D01*
X148443300Y-138971852D01*
X148443300Y-135362899D01*
X148462985Y-135295860D01*
X148515789Y-135250105D01*
X148567300Y-135238899D01*
X148585871Y-135238899D01*
X148585872Y-135238899D01*
X148645483Y-135232491D01*
X148780331Y-135182196D01*
X148895546Y-135095946D01*
X148981796Y-134980731D01*
X149032091Y-134845883D01*
X149038500Y-134786273D01*
X149038499Y-133790528D01*
X149032091Y-133730917D01*
X149019340Y-133696732D01*
X149014357Y-133627042D01*
X149019340Y-133610069D01*
X149032091Y-133575883D01*
X149038500Y-133516273D01*
X149038499Y-132520528D01*
X149032091Y-132460917D01*
X149019340Y-132426732D01*
X149014357Y-132357042D01*
X149019340Y-132340069D01*
X149032091Y-132305883D01*
X149038500Y-132246273D01*
X149038499Y-131250528D01*
X149032091Y-131190917D01*
X149019340Y-131156732D01*
X149014357Y-131087042D01*
X149019340Y-131070069D01*
X149032091Y-131035883D01*
X149038500Y-130976273D01*
X149038499Y-129980528D01*
X149032091Y-129920917D01*
X149019340Y-129886732D01*
X149014357Y-129817042D01*
X149019340Y-129800069D01*
X149032091Y-129765883D01*
X149038500Y-129706273D01*
X149038499Y-128710528D01*
X149032091Y-128650917D01*
X149019340Y-128616732D01*
X149014357Y-128547042D01*
X149019340Y-128530069D01*
X149032091Y-128495883D01*
X149038500Y-128436273D01*
X149038499Y-127440528D01*
X149032091Y-127380917D01*
X149019340Y-127346732D01*
X149014357Y-127277042D01*
X149019340Y-127260069D01*
X149032091Y-127225883D01*
X149038500Y-127166273D01*
X149038499Y-126170528D01*
X149032091Y-126110917D01*
X149019340Y-126076732D01*
X149014357Y-126007042D01*
X149019340Y-125990069D01*
X149032091Y-125955883D01*
X149038500Y-125896273D01*
X149038499Y-124900528D01*
X149032091Y-124840917D01*
X149019340Y-124806732D01*
X149014357Y-124737042D01*
X149019340Y-124720069D01*
X149032091Y-124685883D01*
X149038500Y-124626273D01*
X149038499Y-123630528D01*
X149032091Y-123570917D01*
X149019340Y-123536732D01*
X149014357Y-123467042D01*
X149019340Y-123450069D01*
X149032091Y-123415883D01*
X149038500Y-123356273D01*
X149038499Y-122360528D01*
X149032091Y-122300917D01*
X149019340Y-122266732D01*
X149014357Y-122197042D01*
X149019340Y-122180069D01*
X149032091Y-122145883D01*
X149038500Y-122086273D01*
X149038499Y-121090528D01*
X149032091Y-121030917D01*
X149019340Y-120996732D01*
X149014357Y-120927042D01*
X149019340Y-120910069D01*
X149032091Y-120875883D01*
X149038500Y-120816273D01*
X149038499Y-119820528D01*
X149032091Y-119760917D01*
X149019340Y-119726732D01*
X149014357Y-119657042D01*
X149019340Y-119640069D01*
X149032091Y-119605883D01*
X149038500Y-119546273D01*
X149038499Y-118550528D01*
X149032091Y-118490917D01*
X149019073Y-118456016D01*
X149014090Y-118386326D01*
X149019075Y-118369349D01*
X149031597Y-118335775D01*
X149031598Y-118335772D01*
X149037999Y-118276244D01*
X149038000Y-118276227D01*
X149038000Y-118028400D01*
X146538000Y-118028400D01*
X146538000Y-118276244D01*
X146544401Y-118335772D01*
X146544403Y-118335779D01*
X146556925Y-118369352D01*
X146561909Y-118439043D01*
X146556925Y-118456017D01*
X146543909Y-118490914D01*
X146543908Y-118490916D01*
X146537501Y-118550516D01*
X146537501Y-118550523D01*
X146537500Y-118550535D01*
X146537500Y-119546270D01*
X146537501Y-119546276D01*
X146543908Y-119605881D01*
X146556659Y-119640069D01*
X146561642Y-119709761D01*
X146556659Y-119726731D01*
X146543908Y-119760918D01*
X146537501Y-119820516D01*
X146537501Y-119820523D01*
X146537500Y-119820535D01*
X146537500Y-120816270D01*
X146537501Y-120816276D01*
X146543908Y-120875881D01*
X146556659Y-120910069D01*
X146561642Y-120979761D01*
X146556659Y-120996731D01*
X146543908Y-121030918D01*
X146538507Y-121081160D01*
X146537501Y-121090523D01*
X146537500Y-121090535D01*
X146537500Y-122086270D01*
X146537501Y-122086276D01*
X146543908Y-122145881D01*
X146556659Y-122180069D01*
X146561642Y-122249761D01*
X146556659Y-122266731D01*
X146543908Y-122300918D01*
X146542548Y-122313572D01*
X146537501Y-122360523D01*
X146537500Y-122360535D01*
X146537500Y-123356270D01*
X146537501Y-123356276D01*
X146543908Y-123415881D01*
X146556659Y-123450069D01*
X146561642Y-123519761D01*
X146556659Y-123536731D01*
X146543908Y-123570918D01*
X146538702Y-123619347D01*
X146537501Y-123630523D01*
X146537500Y-123630535D01*
X146537500Y-124626270D01*
X146537501Y-124626276D01*
X146543908Y-124685881D01*
X146556659Y-124720069D01*
X146561642Y-124789761D01*
X146556659Y-124806731D01*
X146543908Y-124840918D01*
X146537544Y-124900115D01*
X146537501Y-124900523D01*
X146537500Y-124900535D01*
X146537500Y-125896270D01*
X146537501Y-125896276D01*
X146543908Y-125955881D01*
X146556659Y-125990069D01*
X146561642Y-126059761D01*
X146556659Y-126076731D01*
X146543908Y-126110918D01*
X146539162Y-126155066D01*
X146537501Y-126170523D01*
X146537500Y-126170535D01*
X146537500Y-127166270D01*
X146537501Y-127166276D01*
X146543908Y-127225881D01*
X146556659Y-127260069D01*
X146561642Y-127329761D01*
X146556659Y-127346731D01*
X146543908Y-127380918D01*
X146537544Y-127440115D01*
X146537501Y-127440523D01*
X146537500Y-127440535D01*
X146537500Y-128436270D01*
X146537501Y-128436276D01*
X146543908Y-128495881D01*
X146556659Y-128530069D01*
X146561642Y-128599761D01*
X146556659Y-128616731D01*
X146543908Y-128650918D01*
X146539269Y-128694069D01*
X146537501Y-128710523D01*
X146537500Y-128710535D01*
X146537500Y-129706270D01*
X146537501Y-129706276D01*
X146543908Y-129765881D01*
X146556659Y-129800069D01*
X146561642Y-129869761D01*
X146556659Y-129886731D01*
X146543908Y-129920918D01*
X146542944Y-129929889D01*
X146537501Y-129980523D01*
X146537500Y-129980535D01*
X146537500Y-130976270D01*
X146537501Y-130976276D01*
X146543908Y-131035881D01*
X146556659Y-131070069D01*
X146561642Y-131139761D01*
X146556659Y-131156731D01*
X146543908Y-131190918D01*
X146537501Y-131250516D01*
X146537501Y-131250523D01*
X146537500Y-131250535D01*
X146537500Y-132246270D01*
X146537501Y-132246276D01*
X146543908Y-132305881D01*
X146556659Y-132340069D01*
X146561642Y-132409761D01*
X146556659Y-132426731D01*
X146543908Y-132460918D01*
X146537501Y-132520516D01*
X146537501Y-132520523D01*
X146537500Y-132520535D01*
X146537500Y-133516270D01*
X146537501Y-133516276D01*
X146543908Y-133575881D01*
X146556659Y-133610069D01*
X146561642Y-133679761D01*
X146556659Y-133696731D01*
X146543908Y-133730918D01*
X146537501Y-133790516D01*
X146537501Y-133790523D01*
X146537500Y-133790535D01*
X146537500Y-134163900D01*
X146517815Y-134230939D01*
X146465011Y-134276694D01*
X146413500Y-134287900D01*
X145525129Y-134287900D01*
X145525123Y-134287901D01*
X145465518Y-134294308D01*
X145431331Y-134307059D01*
X145361639Y-134312042D01*
X145344669Y-134307059D01*
X145310480Y-134294308D01*
X145310482Y-134294308D01*
X145250883Y-134287901D01*
X145250881Y-134287900D01*
X145250873Y-134287900D01*
X145250864Y-134287900D01*
X144255129Y-134287900D01*
X144255123Y-134287901D01*
X144195518Y-134294308D01*
X144161331Y-134307059D01*
X144091639Y-134312042D01*
X144074669Y-134307059D01*
X144040480Y-134294308D01*
X144040482Y-134294308D01*
X143980883Y-134287901D01*
X143980881Y-134287900D01*
X143980873Y-134287900D01*
X143980864Y-134287900D01*
X142985129Y-134287900D01*
X142985123Y-134287901D01*
X142925518Y-134294308D01*
X142891331Y-134307059D01*
X142821639Y-134312042D01*
X142804669Y-134307059D01*
X142770480Y-134294308D01*
X142770482Y-134294308D01*
X142710883Y-134287901D01*
X142710881Y-134287900D01*
X142710873Y-134287900D01*
X142710864Y-134287900D01*
X141715129Y-134287900D01*
X141715123Y-134287901D01*
X141655518Y-134294308D01*
X141621331Y-134307059D01*
X141551639Y-134312042D01*
X141534669Y-134307059D01*
X141500480Y-134294308D01*
X141500482Y-134294308D01*
X141440883Y-134287901D01*
X141440881Y-134287900D01*
X141440873Y-134287900D01*
X141440864Y-134287900D01*
X140445129Y-134287900D01*
X140445123Y-134287901D01*
X140385518Y-134294308D01*
X140351331Y-134307059D01*
X140281639Y-134312042D01*
X140264669Y-134307059D01*
X140230480Y-134294308D01*
X140230482Y-134294308D01*
X140170883Y-134287901D01*
X140170881Y-134287900D01*
X140170873Y-134287900D01*
X140170864Y-134287900D01*
X139175129Y-134287900D01*
X139175123Y-134287901D01*
X139115518Y-134294308D01*
X139081331Y-134307059D01*
X139011639Y-134312042D01*
X138994669Y-134307059D01*
X138960480Y-134294308D01*
X138960482Y-134294308D01*
X138900883Y-134287901D01*
X138900881Y-134287900D01*
X138900873Y-134287900D01*
X138900864Y-134287900D01*
X137905129Y-134287900D01*
X137905123Y-134287901D01*
X137845518Y-134294308D01*
X137811331Y-134307059D01*
X137741639Y-134312042D01*
X137724669Y-134307059D01*
X137690480Y-134294308D01*
X137690482Y-134294308D01*
X137630883Y-134287901D01*
X137630881Y-134287900D01*
X137630873Y-134287900D01*
X137630864Y-134287900D01*
X136635129Y-134287900D01*
X136635123Y-134287901D01*
X136575518Y-134294308D01*
X136541331Y-134307059D01*
X136471639Y-134312042D01*
X136454669Y-134307059D01*
X136420480Y-134294308D01*
X136420482Y-134294308D01*
X136360883Y-134287901D01*
X136360881Y-134287900D01*
X136360873Y-134287900D01*
X136360864Y-134287900D01*
X135365129Y-134287900D01*
X135365123Y-134287901D01*
X135305518Y-134294308D01*
X135271331Y-134307059D01*
X135201639Y-134312042D01*
X135184669Y-134307059D01*
X135150480Y-134294308D01*
X135150482Y-134294308D01*
X135090883Y-134287901D01*
X135090881Y-134287900D01*
X135090873Y-134287900D01*
X135090864Y-134287900D01*
X134095129Y-134287900D01*
X134095123Y-134287901D01*
X134035518Y-134294308D01*
X134001331Y-134307059D01*
X133931639Y-134312042D01*
X133914669Y-134307059D01*
X133880480Y-134294308D01*
X133880482Y-134294308D01*
X133820883Y-134287901D01*
X133820881Y-134287900D01*
X133820873Y-134287900D01*
X133820864Y-134287900D01*
X132825129Y-134287900D01*
X132825123Y-134287901D01*
X132765518Y-134294308D01*
X132731331Y-134307059D01*
X132661639Y-134312042D01*
X132644669Y-134307059D01*
X132610480Y-134294308D01*
X132610482Y-134294308D01*
X132550883Y-134287901D01*
X132550881Y-134287900D01*
X132550873Y-134287900D01*
X132550865Y-134287900D01*
X131662499Y-134287900D01*
X131595460Y-134268215D01*
X131549705Y-134215411D01*
X131538499Y-134163900D01*
X131538499Y-133790529D01*
X131538498Y-133790523D01*
X131538497Y-133790516D01*
X131532091Y-133730917D01*
X131519340Y-133696732D01*
X131514357Y-133627042D01*
X131519340Y-133610069D01*
X131532091Y-133575883D01*
X131538500Y-133516273D01*
X131538499Y-132520528D01*
X131532091Y-132460917D01*
X131519340Y-132426732D01*
X131514357Y-132357042D01*
X131519340Y-132340069D01*
X131532091Y-132305883D01*
X131538500Y-132246273D01*
X131538499Y-131250528D01*
X131532091Y-131190917D01*
X131519340Y-131156732D01*
X131514357Y-131087042D01*
X131519340Y-131070069D01*
X131532091Y-131035883D01*
X131538500Y-130976273D01*
X131538499Y-129980528D01*
X131532091Y-129920917D01*
X131519340Y-129886732D01*
X131514357Y-129817042D01*
X131519340Y-129800069D01*
X131532091Y-129765883D01*
X131538500Y-129706273D01*
X131538499Y-128710528D01*
X131532091Y-128650917D01*
X131519340Y-128616732D01*
X131514357Y-128547042D01*
X131519340Y-128530069D01*
X131532091Y-128495883D01*
X131538500Y-128436273D01*
X131538499Y-127440528D01*
X131533741Y-127396270D01*
X135187500Y-127396270D01*
X135187501Y-127396276D01*
X135193908Y-127455883D01*
X135244202Y-127590728D01*
X135244206Y-127590735D01*
X135330452Y-127705944D01*
X135330455Y-127705947D01*
X135445664Y-127792193D01*
X135445671Y-127792197D01*
X135580517Y-127842491D01*
X135580516Y-127842491D01*
X135587444Y-127843235D01*
X135640127Y-127848900D01*
X136635872Y-127848899D01*
X136695483Y-127842491D01*
X136794669Y-127805496D01*
X136864358Y-127800513D01*
X136881319Y-127805492D01*
X136980517Y-127842491D01*
X137040127Y-127848900D01*
X138035872Y-127848899D01*
X138095483Y-127842491D01*
X138194669Y-127805496D01*
X138264358Y-127800513D01*
X138281319Y-127805492D01*
X138380517Y-127842491D01*
X138440127Y-127848900D01*
X139435872Y-127848899D01*
X139495483Y-127842491D01*
X139630331Y-127792196D01*
X139745546Y-127705946D01*
X139831796Y-127590731D01*
X139882091Y-127455883D01*
X139888500Y-127396273D01*
X139888499Y-126400528D01*
X139882091Y-126340917D01*
X139845096Y-126241730D01*
X139840113Y-126172042D01*
X139845092Y-126155080D01*
X139882091Y-126055883D01*
X139888500Y-125996273D01*
X139888499Y-125000528D01*
X139882091Y-124940917D01*
X139845096Y-124841730D01*
X139840113Y-124772042D01*
X139845092Y-124755080D01*
X139882091Y-124655883D01*
X139888500Y-124596273D01*
X139888499Y-123600528D01*
X139882091Y-123540917D01*
X139874200Y-123519761D01*
X139831797Y-123406071D01*
X139831793Y-123406064D01*
X139745547Y-123290855D01*
X139745544Y-123290852D01*
X139630335Y-123204606D01*
X139630328Y-123204602D01*
X139495482Y-123154308D01*
X139495483Y-123154308D01*
X139435883Y-123147901D01*
X139435881Y-123147900D01*
X139435873Y-123147900D01*
X139435864Y-123147900D01*
X138440129Y-123147900D01*
X138440123Y-123147901D01*
X138380515Y-123154309D01*
X138281332Y-123191301D01*
X138211640Y-123196285D01*
X138194668Y-123191301D01*
X138095485Y-123154309D01*
X138095483Y-123154308D01*
X138035883Y-123147901D01*
X138035881Y-123147900D01*
X138035873Y-123147900D01*
X138035864Y-123147900D01*
X137040129Y-123147900D01*
X137040123Y-123147901D01*
X136980515Y-123154309D01*
X136881332Y-123191301D01*
X136811640Y-123196285D01*
X136794668Y-123191301D01*
X136695485Y-123154309D01*
X136695483Y-123154308D01*
X136635883Y-123147901D01*
X136635881Y-123147900D01*
X136635873Y-123147900D01*
X136635864Y-123147900D01*
X135640129Y-123147900D01*
X135640123Y-123147901D01*
X135580516Y-123154308D01*
X135445671Y-123204602D01*
X135445664Y-123204606D01*
X135330455Y-123290852D01*
X135330452Y-123290855D01*
X135244206Y-123406064D01*
X135244202Y-123406071D01*
X135193908Y-123540917D01*
X135190683Y-123570918D01*
X135187501Y-123600523D01*
X135187500Y-123600535D01*
X135187500Y-124596270D01*
X135187501Y-124596276D01*
X135193909Y-124655884D01*
X135230901Y-124755068D01*
X135235885Y-124824760D01*
X135230901Y-124841732D01*
X135193909Y-124940914D01*
X135193908Y-124940916D01*
X135187704Y-124998626D01*
X135187501Y-125000523D01*
X135187500Y-125000535D01*
X135187500Y-125996270D01*
X135187501Y-125996276D01*
X135193909Y-126055884D01*
X135230901Y-126155068D01*
X135235885Y-126224760D01*
X135230901Y-126241732D01*
X135193909Y-126340914D01*
X135193908Y-126340916D01*
X135187501Y-126400516D01*
X135187501Y-126400523D01*
X135187500Y-126400535D01*
X135187500Y-127396270D01*
X131533741Y-127396270D01*
X131532091Y-127380917D01*
X131519340Y-127346732D01*
X131514357Y-127277042D01*
X131519340Y-127260069D01*
X131532091Y-127225883D01*
X131538500Y-127166273D01*
X131538499Y-126170528D01*
X131532091Y-126110917D01*
X131519340Y-126076732D01*
X131514357Y-126007042D01*
X131519340Y-125990069D01*
X131532091Y-125955883D01*
X131538500Y-125896273D01*
X131538499Y-124900528D01*
X131532091Y-124840917D01*
X131519340Y-124806732D01*
X131514357Y-124737042D01*
X131519340Y-124720069D01*
X131532091Y-124685883D01*
X131538500Y-124626273D01*
X131538499Y-123630528D01*
X131532091Y-123570917D01*
X131519340Y-123536732D01*
X131514357Y-123467042D01*
X131519340Y-123450069D01*
X131532091Y-123415883D01*
X131538500Y-123356273D01*
X131538499Y-122360528D01*
X131532091Y-122300917D01*
X131519340Y-122266732D01*
X131514357Y-122197042D01*
X131519340Y-122180069D01*
X131532091Y-122145883D01*
X131538500Y-122086273D01*
X131538499Y-121090528D01*
X131532091Y-121030917D01*
X131519340Y-120996732D01*
X131514357Y-120927042D01*
X131519340Y-120910069D01*
X131532091Y-120875883D01*
X131538500Y-120816273D01*
X131538499Y-119820528D01*
X131532091Y-119760917D01*
X131519340Y-119726732D01*
X131514357Y-119657042D01*
X131519340Y-119640069D01*
X131532091Y-119605883D01*
X131538500Y-119546273D01*
X131538499Y-118550528D01*
X131532091Y-118490917D01*
X131519073Y-118456016D01*
X131514090Y-118386326D01*
X131519075Y-118369349D01*
X131531597Y-118335775D01*
X131531598Y-118335772D01*
X131537999Y-118276244D01*
X131538000Y-118276227D01*
X131538000Y-118028400D01*
X129038000Y-118028400D01*
X129038000Y-118276234D01*
X129039012Y-118285640D01*
X129026609Y-118354400D01*
X128979001Y-118405539D01*
X128915723Y-118422900D01*
X128435300Y-118422900D01*
X128368261Y-118403215D01*
X128322506Y-118350411D01*
X128311300Y-118298900D01*
X128311300Y-117691087D01*
X128330985Y-117624048D01*
X128343150Y-117608115D01*
X128361691Y-117587522D01*
X128414926Y-117528400D01*
X129038000Y-117528400D01*
X130038000Y-117528400D01*
X130038000Y-116828400D01*
X130538000Y-116828400D01*
X130538000Y-117528400D01*
X131538000Y-117528400D01*
X146538000Y-117528400D01*
X147538000Y-117528400D01*
X147538000Y-116828400D01*
X148038000Y-116828400D01*
X148038000Y-117528400D01*
X149038000Y-117528400D01*
X149038000Y-117280572D01*
X149037999Y-117280555D01*
X149031598Y-117221027D01*
X149031596Y-117221020D01*
X148981354Y-117086313D01*
X148981350Y-117086306D01*
X148895190Y-116971212D01*
X148895187Y-116971209D01*
X148780093Y-116885049D01*
X148780086Y-116885045D01*
X148645379Y-116834803D01*
X148645372Y-116834801D01*
X148585844Y-116828400D01*
X148038000Y-116828400D01*
X147538000Y-116828400D01*
X146990155Y-116828400D01*
X146930627Y-116834801D01*
X146930620Y-116834803D01*
X146795913Y-116885045D01*
X146795906Y-116885049D01*
X146680812Y-116971209D01*
X146680809Y-116971212D01*
X146594649Y-117086306D01*
X146594645Y-117086313D01*
X146544403Y-117221020D01*
X146544401Y-117221027D01*
X146538000Y-117280555D01*
X146538000Y-117528400D01*
X131538000Y-117528400D01*
X131538000Y-117280572D01*
X131537999Y-117280555D01*
X131531598Y-117221027D01*
X131531596Y-117221020D01*
X131481354Y-117086313D01*
X131481350Y-117086306D01*
X131395190Y-116971212D01*
X131395187Y-116971209D01*
X131280093Y-116885049D01*
X131280086Y-116885045D01*
X131145379Y-116834803D01*
X131145372Y-116834801D01*
X131085844Y-116828400D01*
X130538000Y-116828400D01*
X130038000Y-116828400D01*
X129490155Y-116828400D01*
X129430627Y-116834801D01*
X129430620Y-116834803D01*
X129295913Y-116885045D01*
X129295906Y-116885049D01*
X129180812Y-116971209D01*
X129180809Y-116971212D01*
X129094649Y-117086306D01*
X129094645Y-117086313D01*
X129044403Y-117221020D01*
X129044401Y-117221027D01*
X129038000Y-117280555D01*
X129038000Y-117528400D01*
X128414926Y-117528400D01*
X128418333Y-117524616D01*
X128512979Y-117360684D01*
X128571474Y-117180656D01*
X128591260Y-116992400D01*
X128571474Y-116804144D01*
X128512979Y-116624116D01*
X128418333Y-116460184D01*
X128291671Y-116319512D01*
X128248849Y-116288400D01*
X128138534Y-116208251D01*
X128138529Y-116208248D01*
X127965607Y-116131257D01*
X127965602Y-116131255D01*
X127819801Y-116100265D01*
X127780446Y-116091900D01*
X127591154Y-116091900D01*
X127558697Y-116098798D01*
X127405997Y-116131255D01*
X127405992Y-116131257D01*
X127233070Y-116208248D01*
X127233065Y-116208251D01*
X127079929Y-116319511D01*
X126953266Y-116460185D01*
X126858621Y-116624115D01*
X126858618Y-116624122D01*
X126812465Y-116766168D01*
X126800126Y-116804144D01*
X126780340Y-116992400D01*
X126800126Y-117180656D01*
X126800127Y-117180659D01*
X126858618Y-117360677D01*
X126858621Y-117360684D01*
X126953267Y-117524616D01*
X126996572Y-117572710D01*
X127028450Y-117608115D01*
X127058680Y-117671106D01*
X127060300Y-117691087D01*
X127060300Y-118298900D01*
X127040615Y-118365939D01*
X126987811Y-118411694D01*
X126936300Y-118422900D01*
X121898852Y-118422900D01*
X121831813Y-118403215D01*
X121811171Y-118386581D01*
X121124818Y-117700228D01*
X121091333Y-117638905D01*
X121088499Y-117612555D01*
X121088499Y-117035492D01*
X121081932Y-116971209D01*
X121077999Y-116932703D01*
X121077998Y-116932700D01*
X121062208Y-116885049D01*
X121022814Y-116766166D01*
X120930712Y-116616844D01*
X120806656Y-116492788D01*
X120657334Y-116400686D01*
X120575095Y-116373434D01*
X120517651Y-116333662D01*
X120490828Y-116269146D01*
X120490100Y-116255729D01*
X120490100Y-111381474D01*
X120509785Y-111314435D01*
X120562589Y-111268680D01*
X120631747Y-111258736D01*
X120695303Y-111287761D01*
X120701781Y-111293793D01*
X120720955Y-111312967D01*
X120720959Y-111312970D01*
X120865294Y-111401998D01*
X120865297Y-111401999D01*
X120865303Y-111402003D01*
X121026292Y-111455349D01*
X121125655Y-111465500D01*
X121672344Y-111465499D01*
X121672352Y-111465498D01*
X121672355Y-111465498D01*
X121726760Y-111459940D01*
X121771708Y-111455349D01*
X121932697Y-111402003D01*
X122077044Y-111312968D01*
X122086668Y-111303343D01*
X122147987Y-111269856D01*
X122217679Y-111274835D01*
X122262034Y-111303339D01*
X122271267Y-111312572D01*
X122271271Y-111312575D01*
X122415507Y-111401542D01*
X122415518Y-111401547D01*
X122576393Y-111454855D01*
X122675683Y-111464999D01*
X122699000Y-111464998D01*
X122699000Y-110740000D01*
X123199000Y-110740000D01*
X123199000Y-111464999D01*
X123222308Y-111464999D01*
X123222322Y-111464998D01*
X123321607Y-111454855D01*
X123482481Y-111401547D01*
X123482492Y-111401542D01*
X123626728Y-111312575D01*
X123626732Y-111312572D01*
X123746572Y-111192732D01*
X123746575Y-111192728D01*
X123835542Y-111048492D01*
X123835547Y-111048481D01*
X123888855Y-110887606D01*
X123898999Y-110788322D01*
X123899000Y-110788301D01*
X123899000Y-110740000D01*
X123199000Y-110740000D01*
X122699000Y-110740000D01*
X122699000Y-110364000D01*
X122718685Y-110296961D01*
X122728565Y-110288400D01*
X130038000Y-110288400D01*
X130038000Y-116288400D01*
X148038000Y-116288400D01*
X148038000Y-110288400D01*
X130038000Y-110288400D01*
X122728565Y-110288400D01*
X122771489Y-110251206D01*
X122823000Y-110240000D01*
X123898999Y-110240000D01*
X123903530Y-110235468D01*
X123918684Y-110183861D01*
X123971488Y-110138106D01*
X124022999Y-110126900D01*
X126914232Y-110126900D01*
X126930279Y-110128671D01*
X126930302Y-110128434D01*
X126938068Y-110129168D01*
X126938068Y-110129167D01*
X126938069Y-110129168D01*
X126969401Y-110128183D01*
X127008305Y-110126961D01*
X127012199Y-110126900D01*
X127041071Y-110126900D01*
X127041075Y-110126900D01*
X127045471Y-110126344D01*
X127057118Y-110125426D01*
X127102948Y-110123987D01*
X127123449Y-110118030D01*
X127142476Y-110114089D01*
X127163660Y-110111414D01*
X127206285Y-110094536D01*
X127217328Y-110090756D01*
X127261359Y-110077965D01*
X127279730Y-110067100D01*
X127297196Y-110058543D01*
X127317037Y-110050688D01*
X127354123Y-110023742D01*
X127363888Y-110017328D01*
X127365005Y-110016667D01*
X127403348Y-109993992D01*
X127418443Y-109978895D01*
X127433224Y-109966272D01*
X127450493Y-109953726D01*
X127479724Y-109918390D01*
X127487566Y-109909772D01*
X131421826Y-105975512D01*
X131483147Y-105942029D01*
X131552839Y-105947013D01*
X131583815Y-105963928D01*
X131599665Y-105975793D01*
X131599668Y-105975795D01*
X131599671Y-105975797D01*
X131734517Y-106026091D01*
X131734516Y-106026091D01*
X131741444Y-106026835D01*
X131794127Y-106032500D01*
X133889872Y-106032499D01*
X133949483Y-106026091D01*
X134084331Y-105975796D01*
X134199546Y-105889546D01*
X134285796Y-105774331D01*
X134336091Y-105639483D01*
X134342500Y-105579873D01*
X134342499Y-101684128D01*
X134336091Y-101624517D01*
X134330159Y-101608613D01*
X134285797Y-101489671D01*
X134285793Y-101489664D01*
X134199547Y-101374455D01*
X134199544Y-101374452D01*
X134084335Y-101288206D01*
X134084328Y-101288202D01*
X133949482Y-101237908D01*
X133949483Y-101237908D01*
X133889883Y-101231501D01*
X133889881Y-101231500D01*
X133889873Y-101231500D01*
X133889864Y-101231500D01*
X131794129Y-101231500D01*
X131794123Y-101231501D01*
X131734516Y-101237908D01*
X131599671Y-101288202D01*
X131599664Y-101288206D01*
X131484455Y-101374452D01*
X131484452Y-101374455D01*
X131398206Y-101489664D01*
X131398202Y-101489671D01*
X131347908Y-101624517D01*
X131341501Y-101684116D01*
X131341501Y-101684123D01*
X131341500Y-101684135D01*
X131341500Y-102855100D01*
X131321815Y-102922139D01*
X131269011Y-102967894D01*
X131217500Y-102979100D01*
X128166499Y-102979100D01*
X128099460Y-102959415D01*
X128053705Y-102906611D01*
X128042499Y-102855100D01*
X128042499Y-102834129D01*
X128042498Y-102834123D01*
X128042497Y-102834116D01*
X128036091Y-102774517D01*
X128023815Y-102741604D01*
X127985797Y-102639671D01*
X127985795Y-102639668D01*
X127923081Y-102555893D01*
X127898664Y-102490431D01*
X127913515Y-102422158D01*
X127923082Y-102407271D01*
X127985352Y-102324089D01*
X127985354Y-102324086D01*
X128035596Y-102189379D01*
X128035598Y-102189372D01*
X128041999Y-102129844D01*
X128042000Y-102129827D01*
X128042000Y-101582000D01*
X125042000Y-101582000D01*
X125042000Y-102129844D01*
X125048401Y-102189372D01*
X125048403Y-102189379D01*
X125098645Y-102324086D01*
X125098646Y-102324088D01*
X125160918Y-102407272D01*
X125185335Y-102472736D01*
X125170484Y-102541009D01*
X125160918Y-102555894D01*
X125098204Y-102639669D01*
X125098202Y-102639671D01*
X125047908Y-102774517D01*
X125041501Y-102834116D01*
X125041501Y-102834123D01*
X125041500Y-102834135D01*
X125041500Y-104429870D01*
X125041501Y-104429876D01*
X125047908Y-104489483D01*
X125098202Y-104624328D01*
X125098203Y-104624330D01*
X125160606Y-104707689D01*
X125185023Y-104773153D01*
X125170172Y-104841426D01*
X125160606Y-104856311D01*
X125098203Y-104939669D01*
X125098202Y-104939671D01*
X125047908Y-105074517D01*
X125041501Y-105134116D01*
X125041501Y-105134123D01*
X125041500Y-105134135D01*
X125041500Y-105143100D01*
X125021815Y-105210139D01*
X124969011Y-105255894D01*
X124917500Y-105267100D01*
X123115004Y-105267100D01*
X123047965Y-105247415D01*
X123009465Y-105208196D01*
X122997969Y-105189558D01*
X122997968Y-105189556D01*
X122878044Y-105069632D01*
X122878043Y-105069631D01*
X122878041Y-105069629D01*
X122872590Y-105065319D01*
X122832213Y-105008297D01*
X122825500Y-104968052D01*
X122825500Y-104850675D01*
X122845185Y-104783636D01*
X122857351Y-104767702D01*
X122875100Y-104747990D01*
X122921215Y-104696775D01*
X123011195Y-104540925D01*
X123066805Y-104369774D01*
X123085616Y-104190800D01*
X123066805Y-104011826D01*
X123011195Y-103840675D01*
X122921215Y-103684825D01*
X122800798Y-103551089D01*
X122655208Y-103445311D01*
X122490807Y-103372115D01*
X122490806Y-103372114D01*
X122490802Y-103372113D01*
X122314780Y-103334700D01*
X122134820Y-103334700D01*
X121958797Y-103372113D01*
X121794388Y-103445313D01*
X121648800Y-103551090D01*
X121528384Y-103684826D01*
X121438404Y-103840676D01*
X121382796Y-104011822D01*
X121382795Y-104011824D01*
X121363984Y-104190800D01*
X121382795Y-104369775D01*
X121382796Y-104369777D01*
X121421690Y-104489483D01*
X121438405Y-104540925D01*
X121528385Y-104696775D01*
X121542648Y-104712615D01*
X121572879Y-104775606D01*
X121574500Y-104795589D01*
X121574500Y-104968052D01*
X121554815Y-105035091D01*
X121527415Y-105065315D01*
X121521954Y-105069632D01*
X121512324Y-105079263D01*
X121451000Y-105112746D01*
X121381308Y-105107759D01*
X121336965Y-105079260D01*
X121327732Y-105070027D01*
X121327728Y-105070024D01*
X121183492Y-104981057D01*
X121183481Y-104981052D01*
X121022606Y-104927744D01*
X120923322Y-104917600D01*
X120900000Y-104917600D01*
X120900000Y-106867599D01*
X120923308Y-106867599D01*
X120923322Y-106867598D01*
X121022607Y-106857455D01*
X121183481Y-106804147D01*
X121183492Y-106804142D01*
X121327731Y-106715173D01*
X121336959Y-106705945D01*
X121398279Y-106672456D01*
X121467971Y-106677435D01*
X121512327Y-106705939D01*
X121521956Y-106715568D01*
X121521963Y-106715572D01*
X121527404Y-106719874D01*
X121567785Y-106776893D01*
X121574500Y-106817146D01*
X121574500Y-107192810D01*
X121554815Y-107259849D01*
X121542650Y-107275782D01*
X121528384Y-107291625D01*
X121438404Y-107447476D01*
X121382796Y-107618622D01*
X121382795Y-107618624D01*
X121363984Y-107797600D01*
X121382795Y-107976575D01*
X121382796Y-107976577D01*
X121431549Y-108126626D01*
X121438405Y-108147725D01*
X121528385Y-108303575D01*
X121648802Y-108437311D01*
X121794392Y-108543089D01*
X121958793Y-108616285D01*
X121958796Y-108616285D01*
X121958797Y-108616286D01*
X122106658Y-108647714D01*
X122168140Y-108680906D01*
X122201917Y-108742069D01*
X122197265Y-108811783D01*
X122155661Y-108867916D01*
X122143998Y-108875737D01*
X122135271Y-108880898D01*
X122117804Y-108889455D01*
X122097966Y-108897310D01*
X122097965Y-108897310D01*
X122060873Y-108924258D01*
X122051117Y-108930666D01*
X122011649Y-108954009D01*
X121996560Y-108969098D01*
X121981772Y-108981729D01*
X121964508Y-108994273D01*
X121964503Y-108994277D01*
X121935284Y-109029596D01*
X121927424Y-109038234D01*
X121487477Y-109478181D01*
X121426154Y-109511666D01*
X121399796Y-109514500D01*
X121125663Y-109514500D01*
X121125644Y-109514501D01*
X121026292Y-109524650D01*
X121026289Y-109524651D01*
X120865305Y-109577996D01*
X120865294Y-109578001D01*
X120720959Y-109667029D01*
X120720955Y-109667032D01*
X120601032Y-109786955D01*
X120601029Y-109786959D01*
X120575100Y-109828997D01*
X120523152Y-109875722D01*
X120469562Y-109887900D01*
X120062580Y-109887900D01*
X120046395Y-109886839D01*
X120015001Y-109882706D01*
X120015000Y-109882706D01*
X120005206Y-109883995D01*
X119979576Y-109887369D01*
X119979575Y-109887368D01*
X119979564Y-109887370D01*
X119862081Y-109902836D01*
X119862081Y-109902837D01*
X119857820Y-109903398D01*
X119711356Y-109964065D01*
X119711353Y-109964066D01*
X119711353Y-109964067D01*
X119701011Y-109972003D01*
X119618814Y-110035073D01*
X119618787Y-110035095D01*
X119585578Y-110060578D01*
X119566292Y-110085710D01*
X119555601Y-110097899D01*
X119495895Y-110157605D01*
X119483704Y-110168297D01*
X119458578Y-110187577D01*
X119440195Y-110211534D01*
X119434351Y-110219150D01*
X119434349Y-110219153D01*
X119384128Y-110284603D01*
X119374645Y-110296961D01*
X119362065Y-110313355D01*
X119301398Y-110459819D01*
X119301397Y-110459821D01*
X119285370Y-110581564D01*
X119285368Y-110581575D01*
X119285369Y-110581576D01*
X119280706Y-110617001D01*
X119284839Y-110648394D01*
X119285900Y-110664579D01*
X119285900Y-116255729D01*
X119266215Y-116322768D01*
X119213411Y-116368523D01*
X119200904Y-116373435D01*
X119118668Y-116400685D01*
X119118663Y-116400687D01*
X118969342Y-116492789D01*
X118845289Y-116616842D01*
X118753187Y-116766163D01*
X118753185Y-116766168D01*
X118740601Y-116804144D01*
X118698001Y-116932703D01*
X118698001Y-116932704D01*
X118698000Y-116932704D01*
X118687500Y-117035483D01*
X118687500Y-117660501D01*
X118687501Y-117660519D01*
X118698000Y-117763296D01*
X118698001Y-117763299D01*
X118753185Y-117929831D01*
X118753187Y-117929836D01*
X118845289Y-118079157D01*
X118938951Y-118172819D01*
X118972436Y-118234142D01*
X118967452Y-118303834D01*
X118938951Y-118348181D01*
X118845289Y-118441842D01*
X118753187Y-118591163D01*
X118753185Y-118591168D01*
X118727433Y-118668882D01*
X118698001Y-118757703D01*
X118698001Y-118757704D01*
X118698000Y-118757704D01*
X118687500Y-118860483D01*
X118687500Y-119485501D01*
X118687501Y-119485519D01*
X118698000Y-119588296D01*
X118698001Y-119588299D01*
X118726034Y-119672896D01*
X118728436Y-119742725D01*
X118692704Y-119802766D01*
X118630184Y-119833959D01*
X118608328Y-119835900D01*
X116733164Y-119835900D01*
X116666125Y-119816215D01*
X116620370Y-119763411D01*
X116616982Y-119755233D01*
X116566197Y-119619071D01*
X116566193Y-119619064D01*
X116479947Y-119503855D01*
X116479944Y-119503852D01*
X116364735Y-119417606D01*
X116364728Y-119417602D01*
X116229882Y-119367308D01*
X116229883Y-119367308D01*
X116170283Y-119360901D01*
X116170281Y-119360900D01*
X116170273Y-119360900D01*
X116170264Y-119360900D01*
X113574529Y-119360900D01*
X113574523Y-119360901D01*
X113514916Y-119367308D01*
X113380071Y-119417602D01*
X113380064Y-119417606D01*
X113264855Y-119503852D01*
X113264852Y-119503855D01*
X113178606Y-119619064D01*
X113178602Y-119619071D01*
X113128308Y-119753917D01*
X113123057Y-119802766D01*
X113121901Y-119813523D01*
X113121900Y-119813535D01*
X113121900Y-121109270D01*
X113121901Y-121109276D01*
X113128308Y-121168883D01*
X113178602Y-121303728D01*
X113178606Y-121303735D01*
X113264852Y-121418944D01*
X113264855Y-121418947D01*
X113380064Y-121505193D01*
X113380071Y-121505197D01*
X113514917Y-121555491D01*
X113514916Y-121555491D01*
X113521844Y-121556235D01*
X113574527Y-121561900D01*
X116170272Y-121561899D01*
X116229883Y-121555491D01*
X116364731Y-121505196D01*
X116479946Y-121418946D01*
X116566196Y-121303731D01*
X116616491Y-121168883D01*
X116616490Y-121168883D01*
X116616982Y-121167567D01*
X116658853Y-121111633D01*
X116724317Y-121087216D01*
X116733164Y-121086900D01*
X118788500Y-121086900D01*
X118855539Y-121106585D01*
X118901294Y-121159389D01*
X118912500Y-121210900D01*
X118912500Y-121456136D01*
X118912501Y-121456155D01*
X118922650Y-121555507D01*
X118922651Y-121555510D01*
X118975996Y-121716494D01*
X118976001Y-121716505D01*
X119065029Y-121860840D01*
X119065032Y-121860844D01*
X119074660Y-121870472D01*
X119108145Y-121931795D01*
X119103161Y-122001487D01*
X119074663Y-122045831D01*
X119065428Y-122055065D01*
X119065424Y-122055071D01*
X118976457Y-122199307D01*
X118976452Y-122199318D01*
X118923144Y-122360193D01*
X118913000Y-122459477D01*
X118913000Y-122482800D01*
X120862999Y-122482800D01*
X120862999Y-122459492D01*
X120862998Y-122459477D01*
X120852855Y-122360192D01*
X120799547Y-122199318D01*
X120799542Y-122199307D01*
X120710575Y-122055071D01*
X120710572Y-122055067D01*
X120701339Y-122045834D01*
X120667854Y-121984511D01*
X120672838Y-121914819D01*
X120701343Y-121870468D01*
X120710968Y-121860844D01*
X120800003Y-121716497D01*
X120853349Y-121555508D01*
X120863500Y-121456145D01*
X120863499Y-121143253D01*
X120883183Y-121076215D01*
X120899818Y-121055572D01*
X120975173Y-120980218D01*
X121036497Y-120946734D01*
X121062854Y-120943900D01*
X128915219Y-120943900D01*
X128982258Y-120963585D01*
X129028013Y-121016389D01*
X129038507Y-121081156D01*
X129037500Y-121090527D01*
X129037500Y-121090529D01*
X129037500Y-122086270D01*
X129037501Y-122086276D01*
X129043908Y-122145881D01*
X129056659Y-122180069D01*
X129061642Y-122249761D01*
X129056659Y-122266731D01*
X129043908Y-122300918D01*
X129042548Y-122313572D01*
X129037501Y-122360523D01*
X129037500Y-122360535D01*
X129037500Y-123356270D01*
X129037501Y-123356276D01*
X129043908Y-123415881D01*
X129056659Y-123450069D01*
X129061642Y-123519761D01*
X129056659Y-123536731D01*
X129043908Y-123570918D01*
X129038702Y-123619347D01*
X129037501Y-123630523D01*
X129037500Y-123630535D01*
X129037501Y-124604100D01*
X129017817Y-124671139D01*
X128965013Y-124716894D01*
X128913501Y-124728100D01*
X126835202Y-124728100D01*
X126768163Y-124708415D01*
X126729086Y-124668251D01*
X126714071Y-124643414D01*
X126714068Y-124643410D01*
X126593788Y-124523130D01*
X126448206Y-124435122D01*
X126285796Y-124384514D01*
X126285794Y-124384513D01*
X126285792Y-124384513D01*
X126236378Y-124380023D01*
X126215216Y-124378100D01*
X125701984Y-124378100D01*
X125682745Y-124379848D01*
X125631407Y-124384513D01*
X125468993Y-124435122D01*
X125323411Y-124523130D01*
X125323410Y-124523131D01*
X125221281Y-124625261D01*
X125159958Y-124658746D01*
X125090266Y-124653762D01*
X125045919Y-124625261D01*
X124943788Y-124523130D01*
X124798206Y-124435122D01*
X124635796Y-124384514D01*
X124635794Y-124384513D01*
X124635792Y-124384513D01*
X124586378Y-124380023D01*
X124565216Y-124378100D01*
X124051984Y-124378100D01*
X124032745Y-124379848D01*
X123981407Y-124384513D01*
X123818993Y-124435122D01*
X123673413Y-124523129D01*
X123614488Y-124582055D01*
X123555560Y-124640982D01*
X123494240Y-124674466D01*
X123467881Y-124677300D01*
X122369065Y-124677300D01*
X122302026Y-124657615D01*
X122263527Y-124618398D01*
X122250581Y-124597409D01*
X122131691Y-124478519D01*
X122131687Y-124478516D01*
X121988595Y-124390255D01*
X121988589Y-124390252D01*
X121988587Y-124390251D01*
X121828985Y-124337364D01*
X121828983Y-124337363D01*
X121730481Y-124327300D01*
X121730474Y-124327300D01*
X121197126Y-124327300D01*
X121197118Y-124327300D01*
X121098616Y-124337363D01*
X121098615Y-124337364D01*
X121019519Y-124363573D01*
X120939015Y-124390250D01*
X120939004Y-124390255D01*
X120795912Y-124478516D01*
X120795907Y-124478519D01*
X120763627Y-124510800D01*
X120702303Y-124544285D01*
X120632612Y-124539299D01*
X120588267Y-124510800D01*
X120556380Y-124478914D01*
X120413377Y-124390708D01*
X120413372Y-124390706D01*
X120253883Y-124337857D01*
X120155450Y-124327800D01*
X120138800Y-124327800D01*
X120138800Y-126277799D01*
X120155436Y-126277799D01*
X120155452Y-126277798D01*
X120253883Y-126267743D01*
X120413372Y-126214893D01*
X120413377Y-126214891D01*
X120556380Y-126126685D01*
X120588266Y-126094800D01*
X120649589Y-126061315D01*
X120719281Y-126066299D01*
X120763628Y-126094800D01*
X120795908Y-126127080D01*
X120795912Y-126127083D01*
X120939004Y-126215344D01*
X120939007Y-126215345D01*
X120939013Y-126215349D01*
X121098615Y-126268236D01*
X121197126Y-126278300D01*
X121197131Y-126278300D01*
X121730469Y-126278300D01*
X121730474Y-126278300D01*
X121828985Y-126268236D01*
X121988587Y-126215349D01*
X122131691Y-126127081D01*
X122250581Y-126008191D01*
X122263527Y-125987201D01*
X122315474Y-125940479D01*
X122369065Y-125928300D01*
X123401288Y-125928300D01*
X123468327Y-125947985D01*
X123507404Y-125988149D01*
X123551635Y-126061315D01*
X123553130Y-126063788D01*
X123673411Y-126184069D01*
X123673413Y-126184070D01*
X123673415Y-126184072D01*
X123818994Y-126272078D01*
X123981404Y-126322686D01*
X124051984Y-126329100D01*
X124051987Y-126329100D01*
X124565213Y-126329100D01*
X124565216Y-126329100D01*
X124635796Y-126322686D01*
X124798206Y-126272078D01*
X124943785Y-126184072D01*
X124972791Y-126155066D01*
X125045919Y-126081939D01*
X125107242Y-126048454D01*
X125176934Y-126053438D01*
X125221281Y-126081939D01*
X125323411Y-126184069D01*
X125323413Y-126184070D01*
X125323415Y-126184072D01*
X125468994Y-126272078D01*
X125631404Y-126322686D01*
X125701984Y-126329100D01*
X125701987Y-126329100D01*
X126215213Y-126329100D01*
X126215216Y-126329100D01*
X126285796Y-126322686D01*
X126448206Y-126272078D01*
X126593785Y-126184072D01*
X126714072Y-126063785D01*
X126729086Y-126038949D01*
X126780614Y-125991762D01*
X126835202Y-125979100D01*
X128920035Y-125979100D01*
X128987074Y-125998785D01*
X129032829Y-126051589D01*
X129043324Y-126116352D01*
X129037500Y-126170527D01*
X129037500Y-126170534D01*
X129037500Y-126170535D01*
X129037500Y-127166270D01*
X129037501Y-127166276D01*
X129043908Y-127225881D01*
X129056659Y-127260069D01*
X129061642Y-127329761D01*
X129056659Y-127346731D01*
X129043908Y-127380918D01*
X129037544Y-127440115D01*
X129037501Y-127440523D01*
X129037500Y-127440535D01*
X129037500Y-128436270D01*
X129037501Y-128436276D01*
X129043908Y-128495881D01*
X129056659Y-128530069D01*
X129061642Y-128599761D01*
X129056659Y-128616731D01*
X129043908Y-128650918D01*
X129039269Y-128694069D01*
X129037501Y-128710523D01*
X129037500Y-128710535D01*
X129037500Y-129706270D01*
X129037501Y-129706279D01*
X129042286Y-129750791D01*
X129029879Y-129819550D01*
X128982267Y-129870686D01*
X128914567Y-129887964D01*
X128848274Y-129865898D01*
X128831315Y-129851724D01*
X126895419Y-127915828D01*
X126861934Y-127854505D01*
X126859100Y-127828147D01*
X126859100Y-127531986D01*
X126852686Y-127461407D01*
X126852686Y-127461404D01*
X126802078Y-127298994D01*
X126714072Y-127153415D01*
X126714070Y-127153413D01*
X126714069Y-127153411D01*
X126593788Y-127033130D01*
X126448206Y-126945122D01*
X126401949Y-126930708D01*
X126285796Y-126894514D01*
X126285794Y-126894513D01*
X126285792Y-126894513D01*
X126236378Y-126890023D01*
X126215216Y-126888100D01*
X125701984Y-126888100D01*
X125682745Y-126889848D01*
X125631407Y-126894513D01*
X125468993Y-126945122D01*
X125323411Y-127033130D01*
X125323410Y-127033131D01*
X125221281Y-127135261D01*
X125159958Y-127168746D01*
X125090266Y-127163762D01*
X125045919Y-127135261D01*
X124943788Y-127033130D01*
X124798206Y-126945122D01*
X124751949Y-126930708D01*
X124635796Y-126894514D01*
X124635794Y-126894513D01*
X124635792Y-126894513D01*
X124586378Y-126890023D01*
X124565216Y-126888100D01*
X124051984Y-126888100D01*
X124032745Y-126889848D01*
X123981407Y-126894513D01*
X123818993Y-126945122D01*
X123673411Y-127033130D01*
X123553131Y-127153410D01*
X123553128Y-127153414D01*
X123538114Y-127178251D01*
X123486586Y-127225438D01*
X123431998Y-127238100D01*
X122381895Y-127238100D01*
X122314856Y-127218415D01*
X122276357Y-127179197D01*
X122250583Y-127137412D01*
X122250580Y-127137408D01*
X122131691Y-127018519D01*
X122131687Y-127018516D01*
X121988595Y-126930255D01*
X121988589Y-126930252D01*
X121988587Y-126930251D01*
X121828985Y-126877364D01*
X121828983Y-126877363D01*
X121730481Y-126867300D01*
X121730474Y-126867300D01*
X121197126Y-126867300D01*
X121197118Y-126867300D01*
X121098616Y-126877363D01*
X121098615Y-126877364D01*
X121046863Y-126894513D01*
X120939015Y-126930250D01*
X120939004Y-126930255D01*
X120795912Y-127018516D01*
X120795907Y-127018519D01*
X120763627Y-127050800D01*
X120702303Y-127084285D01*
X120632612Y-127079299D01*
X120588267Y-127050800D01*
X120556380Y-127018914D01*
X120413377Y-126930708D01*
X120413372Y-126930706D01*
X120253883Y-126877857D01*
X120155450Y-126867800D01*
X120138800Y-126867800D01*
X120138800Y-127968800D01*
X120119115Y-128035839D01*
X120066311Y-128081594D01*
X120014800Y-128092800D01*
X118951301Y-128092800D01*
X118951301Y-128146952D01*
X118961356Y-128245383D01*
X119014206Y-128404871D01*
X119014684Y-128405896D01*
X119014800Y-128406665D01*
X119016479Y-128411730D01*
X119015613Y-128412016D01*
X119025175Y-128474974D01*
X118996654Y-128538758D01*
X118938178Y-128576997D01*
X118902301Y-128582300D01*
X118673471Y-128582300D01*
X118606432Y-128562615D01*
X118589762Y-128548444D01*
X118589228Y-128549038D01*
X118584400Y-128544691D01*
X118584399Y-128544690D01*
X118584398Y-128544689D01*
X118447189Y-128445000D01*
X118438811Y-128438913D01*
X118438810Y-128438912D01*
X118438808Y-128438911D01*
X118274407Y-128365715D01*
X118274406Y-128365714D01*
X118274402Y-128365713D01*
X118098380Y-128328300D01*
X117918420Y-128328300D01*
X117742397Y-128365713D01*
X117660192Y-128402313D01*
X117583911Y-128436276D01*
X117577988Y-128438913D01*
X117432400Y-128544690D01*
X117311984Y-128678426D01*
X117222004Y-128834276D01*
X117166396Y-129005422D01*
X117166395Y-129005426D01*
X117157152Y-129093363D01*
X117151079Y-129151143D01*
X117124494Y-129215757D01*
X117115440Y-129225861D01*
X116914719Y-129426582D01*
X116853399Y-129460066D01*
X116827040Y-129462900D01*
X114701123Y-129462900D01*
X114634084Y-129443215D01*
X114601857Y-129413212D01*
X114597549Y-129407457D01*
X114597546Y-129407455D01*
X114597546Y-129407454D01*
X114597542Y-129407451D01*
X114482335Y-129321206D01*
X114482328Y-129321202D01*
X114347482Y-129270908D01*
X114347483Y-129270908D01*
X114287883Y-129264501D01*
X114287881Y-129264500D01*
X114287873Y-129264500D01*
X114287865Y-129264500D01*
X113539000Y-129264500D01*
X113471961Y-129244815D01*
X113426206Y-129192011D01*
X113415000Y-129140500D01*
X113415000Y-129139000D01*
X113434685Y-129071961D01*
X113487489Y-129026206D01*
X113539000Y-129015000D01*
X114740000Y-129015000D01*
X114740000Y-128917172D01*
X114739999Y-128917155D01*
X114733598Y-128857627D01*
X114733596Y-128857620D01*
X114683354Y-128722913D01*
X114683352Y-128722910D01*
X114599711Y-128611181D01*
X114575293Y-128545717D01*
X114581760Y-128500376D01*
X114581012Y-128500183D01*
X114608246Y-128395000D01*
X113806111Y-128395000D01*
X113845610Y-128370543D01*
X113913201Y-128281038D01*
X113943895Y-128173160D01*
X113933546Y-128061479D01*
X113883552Y-127961078D01*
X113811069Y-127895000D01*
X114613366Y-127895000D01*
X114613068Y-127893053D01*
X114613066Y-127893047D01*
X114542437Y-127702342D01*
X114542434Y-127702335D01*
X114474160Y-127592800D01*
X118951300Y-127592800D01*
X119638800Y-127592800D01*
X119638800Y-126867799D01*
X119622156Y-126867800D01*
X119523715Y-126877857D01*
X119364227Y-126930706D01*
X119364222Y-126930708D01*
X119221219Y-127018914D01*
X119102414Y-127137719D01*
X119014208Y-127280722D01*
X119014206Y-127280727D01*
X118961357Y-127440216D01*
X118951300Y-127538649D01*
X118951300Y-127592800D01*
X114474160Y-127592800D01*
X114434850Y-127529732D01*
X114294735Y-127382331D01*
X114294733Y-127382330D01*
X114127804Y-127266143D01*
X113940907Y-127185940D01*
X113741690Y-127145000D01*
X113340000Y-127145000D01*
X113340000Y-127845000D01*
X112840000Y-127845000D01*
X112840000Y-127145000D01*
X112489287Y-127145000D01*
X112337661Y-127160418D01*
X112143618Y-127221299D01*
X112143608Y-127221304D01*
X111965784Y-127320005D01*
X111965783Y-127320005D01*
X111811469Y-127452478D01*
X111811468Y-127452479D01*
X111686981Y-127613304D01*
X111597411Y-127795906D01*
X111571754Y-127895000D01*
X112373889Y-127895000D01*
X112334390Y-127919457D01*
X112266799Y-128008962D01*
X112236105Y-128116840D01*
X112246454Y-128228521D01*
X112296448Y-128328922D01*
X112368931Y-128395000D01*
X111566634Y-128395000D01*
X111566931Y-128396946D01*
X111566933Y-128396952D01*
X111637562Y-128587657D01*
X111637565Y-128587664D01*
X111745149Y-128760267D01*
X111885264Y-128907668D01*
X111885266Y-128907669D01*
X112032350Y-129010043D01*
X112076129Y-129064497D01*
X112083517Y-129133975D01*
X112057058Y-129190857D01*
X112032144Y-129220972D01*
X111961626Y-129370831D01*
X111930594Y-129533516D01*
X111940993Y-129698804D01*
X111940993Y-129698807D01*
X111987975Y-129843400D01*
X111992172Y-129856317D01*
X112080914Y-129996152D01*
X112201644Y-130109526D01*
X112346776Y-130189313D01*
X112496342Y-130227714D01*
X112556376Y-130263450D01*
X112587562Y-130325974D01*
X112589501Y-130347817D01*
X112589501Y-130412878D01*
X112593679Y-130451745D01*
X112593679Y-130478250D01*
X112589500Y-130517122D01*
X112589500Y-130912869D01*
X112589501Y-130912878D01*
X112593679Y-130951745D01*
X112593679Y-130978248D01*
X112590938Y-131003751D01*
X112564202Y-131068303D01*
X112506811Y-131108153D01*
X112467648Y-131114500D01*
X111105687Y-131114500D01*
X111089502Y-131113439D01*
X111058200Y-131109318D01*
X111058199Y-131109318D01*
X110955034Y-131122900D01*
X110901439Y-131129955D01*
X110901437Y-131129956D01*
X110755357Y-131190464D01*
X110629918Y-131286716D01*
X110610689Y-131311775D01*
X110599998Y-131323965D01*
X110460818Y-131463145D01*
X110423573Y-131488743D01*
X110313594Y-131537709D01*
X110168000Y-131643490D01*
X110047584Y-131777226D01*
X109957604Y-131933076D01*
X109901996Y-132104222D01*
X109901995Y-132104224D01*
X109883184Y-132283200D01*
X105664500Y-132283200D01*
X105664500Y-127895000D01*
X107510000Y-127895000D01*
X108343889Y-127895000D01*
X108304390Y-127919457D01*
X108236799Y-128008962D01*
X108206105Y-128116840D01*
X108216454Y-128228521D01*
X108266448Y-128328922D01*
X108338931Y-128395000D01*
X107510001Y-128395000D01*
X107510001Y-128444986D01*
X107520494Y-128547697D01*
X107575641Y-128714119D01*
X107575643Y-128714124D01*
X107667684Y-128863345D01*
X107791654Y-128987315D01*
X107940875Y-129079356D01*
X107940880Y-129079358D01*
X108107302Y-129134505D01*
X108107309Y-129134506D01*
X108210019Y-129144999D01*
X108659999Y-129144999D01*
X108660000Y-129144998D01*
X108660000Y-128445000D01*
X109160000Y-128445000D01*
X109160000Y-129144999D01*
X109609972Y-129144999D01*
X109609986Y-129144998D01*
X109712697Y-129134505D01*
X109879119Y-129079358D01*
X109879124Y-129079356D01*
X110028345Y-128987315D01*
X110152315Y-128863345D01*
X110244356Y-128714124D01*
X110244358Y-128714119D01*
X110299505Y-128547697D01*
X110299506Y-128547690D01*
X110309999Y-128444986D01*
X110310000Y-128444973D01*
X110310000Y-128395000D01*
X109476111Y-128395000D01*
X109515610Y-128370543D01*
X109583201Y-128281038D01*
X109613895Y-128173160D01*
X109603546Y-128061479D01*
X109553552Y-127961078D01*
X109481069Y-127895000D01*
X110309999Y-127895000D01*
X110309999Y-127845028D01*
X110309998Y-127845013D01*
X110299505Y-127742302D01*
X110244358Y-127575880D01*
X110244356Y-127575875D01*
X110152315Y-127426654D01*
X110028345Y-127302684D01*
X109879124Y-127210643D01*
X109879119Y-127210641D01*
X109712697Y-127155494D01*
X109712690Y-127155493D01*
X109609986Y-127145000D01*
X109160000Y-127145000D01*
X109160000Y-127845000D01*
X108660000Y-127845000D01*
X108660000Y-127145000D01*
X108210028Y-127145000D01*
X108210012Y-127145001D01*
X108107302Y-127155494D01*
X107940880Y-127210641D01*
X107940875Y-127210643D01*
X107791654Y-127302684D01*
X107667684Y-127426654D01*
X107575643Y-127575875D01*
X107575641Y-127575880D01*
X107520494Y-127742302D01*
X107520493Y-127742309D01*
X107510000Y-127845013D01*
X107510000Y-127895000D01*
X105664500Y-127895000D01*
X105664500Y-125552800D01*
X118951301Y-125552800D01*
X118951301Y-125606952D01*
X118961356Y-125705383D01*
X119014206Y-125864872D01*
X119014208Y-125864877D01*
X119102414Y-126007880D01*
X119221219Y-126126685D01*
X119364222Y-126214891D01*
X119364227Y-126214893D01*
X119523716Y-126267742D01*
X119622156Y-126277799D01*
X119638800Y-126277798D01*
X119638800Y-125552800D01*
X118951301Y-125552800D01*
X105664500Y-125552800D01*
X105664500Y-125052800D01*
X118951300Y-125052800D01*
X119638800Y-125052800D01*
X119638800Y-124327799D01*
X119622156Y-124327800D01*
X119523715Y-124337857D01*
X119364227Y-124390706D01*
X119364222Y-124390708D01*
X119221219Y-124478914D01*
X119102414Y-124597719D01*
X119014208Y-124740722D01*
X119014206Y-124740727D01*
X118961357Y-124900216D01*
X118951300Y-124998649D01*
X118951300Y-125052800D01*
X105664500Y-125052800D01*
X105664500Y-123609270D01*
X107621900Y-123609270D01*
X107621901Y-123609276D01*
X107628308Y-123668883D01*
X107678602Y-123803728D01*
X107678606Y-123803735D01*
X107764852Y-123918944D01*
X107764855Y-123918947D01*
X107880064Y-124005193D01*
X107880071Y-124005197D01*
X108014917Y-124055491D01*
X108014916Y-124055491D01*
X108021844Y-124056235D01*
X108074527Y-124061900D01*
X110670272Y-124061899D01*
X110729883Y-124055491D01*
X110864731Y-124005196D01*
X110979946Y-123918946D01*
X111066196Y-123803731D01*
X111116491Y-123668883D01*
X111122900Y-123609273D01*
X111122900Y-123211400D01*
X113122400Y-123211400D01*
X113122400Y-123609244D01*
X113128801Y-123668772D01*
X113128803Y-123668779D01*
X113179045Y-123803486D01*
X113179049Y-123803493D01*
X113265209Y-123918587D01*
X113265212Y-123918590D01*
X113380306Y-124004750D01*
X113380313Y-124004754D01*
X113515020Y-124054996D01*
X113515027Y-124054998D01*
X113574555Y-124061399D01*
X113574572Y-124061400D01*
X114622400Y-124061400D01*
X114622400Y-123211400D01*
X115122400Y-123211400D01*
X115122400Y-124061400D01*
X116170228Y-124061400D01*
X116170244Y-124061399D01*
X116229772Y-124054998D01*
X116229779Y-124054996D01*
X116364486Y-124004754D01*
X116364493Y-124004750D01*
X116479587Y-123918590D01*
X116479590Y-123918587D01*
X116565750Y-123803493D01*
X116565754Y-123803486D01*
X116615996Y-123668779D01*
X116615998Y-123668772D01*
X116622399Y-123609244D01*
X116622400Y-123609227D01*
X116622400Y-123211400D01*
X115122400Y-123211400D01*
X114622400Y-123211400D01*
X113122400Y-123211400D01*
X111122900Y-123211400D01*
X111122900Y-122982800D01*
X118913001Y-122982800D01*
X118913001Y-123006122D01*
X118923144Y-123105407D01*
X118976452Y-123266281D01*
X118976457Y-123266292D01*
X119065424Y-123410528D01*
X119065427Y-123410532D01*
X119185267Y-123530372D01*
X119185271Y-123530375D01*
X119329507Y-123619342D01*
X119329518Y-123619347D01*
X119490393Y-123672655D01*
X119589683Y-123682799D01*
X119637999Y-123682798D01*
X119638000Y-123682798D01*
X119638000Y-122982800D01*
X120138000Y-122982800D01*
X120138000Y-123682799D01*
X120186308Y-123682799D01*
X120186322Y-123682798D01*
X120285607Y-123672655D01*
X120446481Y-123619347D01*
X120446492Y-123619342D01*
X120590728Y-123530375D01*
X120590732Y-123530372D01*
X120710572Y-123410532D01*
X120710575Y-123410528D01*
X120799542Y-123266292D01*
X120799547Y-123266281D01*
X120852855Y-123105406D01*
X120862999Y-123006122D01*
X120863000Y-123006109D01*
X120863000Y-122982800D01*
X120138000Y-122982800D01*
X119638000Y-122982800D01*
X118913001Y-122982800D01*
X111122900Y-122982800D01*
X111122899Y-122711400D01*
X113122400Y-122711400D01*
X114622400Y-122711400D01*
X114622400Y-121861400D01*
X115122400Y-121861400D01*
X115122400Y-122711400D01*
X116622400Y-122711400D01*
X116622400Y-122313572D01*
X116622399Y-122313555D01*
X116615998Y-122254027D01*
X116615996Y-122254020D01*
X116565754Y-122119313D01*
X116565750Y-122119306D01*
X116479590Y-122004212D01*
X116479587Y-122004209D01*
X116364493Y-121918049D01*
X116364486Y-121918045D01*
X116229779Y-121867803D01*
X116229772Y-121867801D01*
X116170244Y-121861400D01*
X115122400Y-121861400D01*
X114622400Y-121861400D01*
X113574555Y-121861400D01*
X113515027Y-121867801D01*
X113515020Y-121867803D01*
X113380313Y-121918045D01*
X113380306Y-121918049D01*
X113265212Y-122004209D01*
X113265209Y-122004212D01*
X113179049Y-122119306D01*
X113179045Y-122119313D01*
X113128803Y-122254020D01*
X113128801Y-122254027D01*
X113122400Y-122313555D01*
X113122400Y-122711400D01*
X111122899Y-122711400D01*
X111122899Y-122313528D01*
X111116491Y-122253917D01*
X111088946Y-122180066D01*
X111066197Y-122119071D01*
X111066193Y-122119064D01*
X110979947Y-122003855D01*
X110979944Y-122003852D01*
X110864735Y-121917606D01*
X110864728Y-121917602D01*
X110729882Y-121867308D01*
X110729883Y-121867308D01*
X110670283Y-121860901D01*
X110670281Y-121860900D01*
X110670273Y-121860900D01*
X110670264Y-121860900D01*
X108074529Y-121860900D01*
X108074523Y-121860901D01*
X108014916Y-121867308D01*
X107880071Y-121917602D01*
X107880064Y-121917606D01*
X107764855Y-122003852D01*
X107764852Y-122003855D01*
X107678606Y-122119064D01*
X107678602Y-122119071D01*
X107628308Y-122253917D01*
X107621901Y-122313516D01*
X107621901Y-122313523D01*
X107621900Y-122313535D01*
X107621900Y-123609270D01*
X105664500Y-123609270D01*
X105664500Y-121109270D01*
X107621900Y-121109270D01*
X107621901Y-121109276D01*
X107628308Y-121168883D01*
X107678602Y-121303728D01*
X107678606Y-121303735D01*
X107764852Y-121418944D01*
X107764855Y-121418947D01*
X107880064Y-121505193D01*
X107880071Y-121505197D01*
X108014917Y-121555491D01*
X108014916Y-121555491D01*
X108021844Y-121556235D01*
X108074527Y-121561900D01*
X110670272Y-121561899D01*
X110729883Y-121555491D01*
X110864731Y-121505196D01*
X110979946Y-121418946D01*
X111066196Y-121303731D01*
X111116491Y-121168883D01*
X111122900Y-121109273D01*
X111122899Y-119813528D01*
X111117244Y-119760918D01*
X111116491Y-119753916D01*
X111066197Y-119619071D01*
X111066193Y-119619064D01*
X110979947Y-119503855D01*
X110979944Y-119503852D01*
X110864735Y-119417606D01*
X110864728Y-119417602D01*
X110729882Y-119367308D01*
X110729883Y-119367308D01*
X110670283Y-119360901D01*
X110670281Y-119360900D01*
X110670273Y-119360900D01*
X110670264Y-119360900D01*
X108074529Y-119360900D01*
X108074523Y-119360901D01*
X108014916Y-119367308D01*
X107880071Y-119417602D01*
X107880064Y-119417606D01*
X107764855Y-119503852D01*
X107764852Y-119503855D01*
X107678606Y-119619064D01*
X107678602Y-119619071D01*
X107628308Y-119753917D01*
X107623057Y-119802766D01*
X107621901Y-119813523D01*
X107621900Y-119813535D01*
X107621900Y-121109270D01*
X105664500Y-121109270D01*
X105664500Y-118609270D01*
X107621900Y-118609270D01*
X107621901Y-118609276D01*
X107628308Y-118668883D01*
X107678602Y-118803728D01*
X107678606Y-118803735D01*
X107764852Y-118918944D01*
X107764855Y-118918947D01*
X107880064Y-119005193D01*
X107880071Y-119005197D01*
X108014917Y-119055491D01*
X108014916Y-119055491D01*
X108021844Y-119056235D01*
X108074527Y-119061900D01*
X110670272Y-119061899D01*
X110729883Y-119055491D01*
X110864731Y-119005196D01*
X110979946Y-118918946D01*
X111066196Y-118803731D01*
X111116491Y-118668883D01*
X111122900Y-118609273D01*
X111122900Y-118609270D01*
X113121900Y-118609270D01*
X113121901Y-118609276D01*
X113128308Y-118668883D01*
X113178602Y-118803728D01*
X113178606Y-118803735D01*
X113264852Y-118918944D01*
X113264855Y-118918947D01*
X113380064Y-119005193D01*
X113380071Y-119005197D01*
X113514917Y-119055491D01*
X113514916Y-119055491D01*
X113521844Y-119056235D01*
X113574527Y-119061900D01*
X116170272Y-119061899D01*
X116229883Y-119055491D01*
X116364731Y-119005196D01*
X116479946Y-118918946D01*
X116566196Y-118803731D01*
X116616491Y-118668883D01*
X116622900Y-118609273D01*
X116622899Y-117313528D01*
X116616491Y-117253917D01*
X116604221Y-117221020D01*
X116566197Y-117119071D01*
X116566193Y-117119064D01*
X116479947Y-117003855D01*
X116479944Y-117003852D01*
X116364735Y-116917606D01*
X116364728Y-116917602D01*
X116229882Y-116867308D01*
X116229883Y-116867308D01*
X116170283Y-116860901D01*
X116170281Y-116860900D01*
X116170273Y-116860900D01*
X116170264Y-116860900D01*
X113574529Y-116860900D01*
X113574523Y-116860901D01*
X113514916Y-116867308D01*
X113380071Y-116917602D01*
X113380064Y-116917606D01*
X113264855Y-117003852D01*
X113264852Y-117003855D01*
X113178606Y-117119064D01*
X113178602Y-117119071D01*
X113128308Y-117253917D01*
X113125443Y-117280572D01*
X113121901Y-117313523D01*
X113121900Y-117313535D01*
X113121900Y-118609270D01*
X111122900Y-118609270D01*
X111122899Y-117313528D01*
X111116491Y-117253917D01*
X111104221Y-117221020D01*
X111066197Y-117119071D01*
X111066193Y-117119064D01*
X110979947Y-117003855D01*
X110979944Y-117003852D01*
X110864735Y-116917606D01*
X110864728Y-116917602D01*
X110729882Y-116867308D01*
X110729883Y-116867308D01*
X110670283Y-116860901D01*
X110670281Y-116860900D01*
X110670273Y-116860900D01*
X110670264Y-116860900D01*
X108074529Y-116860900D01*
X108074523Y-116860901D01*
X108014916Y-116867308D01*
X107880071Y-116917602D01*
X107880064Y-116917606D01*
X107764855Y-117003852D01*
X107764852Y-117003855D01*
X107678606Y-117119064D01*
X107678602Y-117119071D01*
X107628308Y-117253917D01*
X107625443Y-117280572D01*
X107621901Y-117313523D01*
X107621900Y-117313535D01*
X107621900Y-118609270D01*
X105664500Y-118609270D01*
X105664500Y-111641870D01*
X108123500Y-111641870D01*
X108123501Y-111641876D01*
X108129908Y-111701483D01*
X108180202Y-111836328D01*
X108180206Y-111836335D01*
X108266452Y-111951544D01*
X108266455Y-111951547D01*
X108381664Y-112037793D01*
X108381671Y-112037797D01*
X108443902Y-112061007D01*
X108513598Y-112087002D01*
X108569531Y-112128873D01*
X108593949Y-112194337D01*
X108579098Y-112262610D01*
X108557947Y-112290865D01*
X108435886Y-112412926D01*
X108300400Y-112606420D01*
X108300399Y-112606422D01*
X108200570Y-112820507D01*
X108200567Y-112820513D01*
X108143364Y-113033999D01*
X108143364Y-113034000D01*
X109040314Y-113034000D01*
X109014507Y-113074156D01*
X108974000Y-113212111D01*
X108974000Y-113355889D01*
X109014507Y-113493844D01*
X109040314Y-113534000D01*
X108143364Y-113534000D01*
X108200567Y-113747486D01*
X108200570Y-113747492D01*
X108300399Y-113961578D01*
X108435894Y-114155082D01*
X108602917Y-114322105D01*
X108796421Y-114457600D01*
X109010507Y-114557429D01*
X109010516Y-114557433D01*
X109224000Y-114614634D01*
X109224000Y-113719501D01*
X109331685Y-113768680D01*
X109438237Y-113784000D01*
X109509763Y-113784000D01*
X109616315Y-113768680D01*
X109724000Y-113719501D01*
X109724000Y-114614633D01*
X109937483Y-114557433D01*
X109937492Y-114557429D01*
X110151578Y-114457600D01*
X110345082Y-114322105D01*
X110512105Y-114155082D01*
X110647600Y-113961578D01*
X110747429Y-113747492D01*
X110747432Y-113747486D01*
X110804636Y-113534000D01*
X109907686Y-113534000D01*
X109933493Y-113493844D01*
X109974000Y-113355889D01*
X109974000Y-113212111D01*
X109933493Y-113074156D01*
X109907686Y-113034000D01*
X110861140Y-113034000D01*
X110928179Y-113053685D01*
X110948821Y-113070319D01*
X111907445Y-114028943D01*
X111940930Y-114090266D01*
X111937798Y-114149485D01*
X111938668Y-114149672D01*
X111937500Y-114155124D01*
X111937475Y-114155612D01*
X111937252Y-114156282D01*
X111937251Y-114156290D01*
X111927100Y-114255647D01*
X111927100Y-114852337D01*
X111927101Y-114852355D01*
X111937250Y-114951707D01*
X111937251Y-114951710D01*
X111990596Y-115112694D01*
X111990601Y-115112705D01*
X112079629Y-115257040D01*
X112079632Y-115257044D01*
X112199555Y-115376967D01*
X112199559Y-115376970D01*
X112343894Y-115465998D01*
X112343897Y-115465999D01*
X112343903Y-115466003D01*
X112504892Y-115519349D01*
X112604255Y-115529500D01*
X113150944Y-115529499D01*
X113150952Y-115529498D01*
X113150955Y-115529498D01*
X113205360Y-115523940D01*
X113250308Y-115519349D01*
X113411297Y-115466003D01*
X113555644Y-115376968D01*
X113565268Y-115367343D01*
X113626587Y-115333856D01*
X113696279Y-115338835D01*
X113740634Y-115367339D01*
X113749867Y-115376572D01*
X113749871Y-115376575D01*
X113894107Y-115465542D01*
X113894118Y-115465547D01*
X114054993Y-115518855D01*
X114154283Y-115528999D01*
X114177600Y-115528998D01*
X114177600Y-114804000D01*
X114677600Y-114804000D01*
X114677600Y-115528999D01*
X114700908Y-115528999D01*
X114700922Y-115528998D01*
X114800207Y-115518855D01*
X114961081Y-115465547D01*
X114961092Y-115465542D01*
X115105328Y-115376575D01*
X115105332Y-115376572D01*
X115225172Y-115256732D01*
X115225175Y-115256728D01*
X115314142Y-115112492D01*
X115314147Y-115112481D01*
X115367455Y-114951606D01*
X115377599Y-114852322D01*
X115377600Y-114852309D01*
X115377600Y-114804000D01*
X114677600Y-114804000D01*
X114177600Y-114804000D01*
X114177600Y-113579000D01*
X114677600Y-113579000D01*
X114677600Y-114304000D01*
X115377599Y-114304000D01*
X115377599Y-114255692D01*
X115377598Y-114255677D01*
X115367455Y-114156392D01*
X115314147Y-113995518D01*
X115314142Y-113995507D01*
X115225175Y-113851271D01*
X115225172Y-113851267D01*
X115105332Y-113731427D01*
X115105328Y-113731424D01*
X114961092Y-113642457D01*
X114961081Y-113642452D01*
X114800206Y-113589144D01*
X114700922Y-113579000D01*
X114677600Y-113579000D01*
X114177600Y-113579000D01*
X114177600Y-113578999D01*
X114154293Y-113579000D01*
X114154274Y-113579001D01*
X114054992Y-113589144D01*
X113894118Y-113642452D01*
X113894107Y-113642457D01*
X113749871Y-113731424D01*
X113749865Y-113731428D01*
X113740631Y-113740663D01*
X113679307Y-113774146D01*
X113609615Y-113769159D01*
X113565272Y-113740660D01*
X113555644Y-113731032D01*
X113555640Y-113731029D01*
X113411305Y-113642001D01*
X113411299Y-113641998D01*
X113411297Y-113641997D01*
X113411294Y-113641996D01*
X113250309Y-113588651D01*
X113204912Y-113584013D01*
X113140220Y-113557616D01*
X113129834Y-113548336D01*
X110860818Y-111279320D01*
X110827333Y-111217997D01*
X110824499Y-111191639D01*
X110824499Y-109846129D01*
X110824498Y-109846123D01*
X110824497Y-109846116D01*
X110818091Y-109786517D01*
X110812045Y-109770308D01*
X110767797Y-109651671D01*
X110767793Y-109651664D01*
X110746036Y-109622600D01*
X111927601Y-109622600D01*
X111927601Y-109670922D01*
X111937744Y-109770207D01*
X111991052Y-109931081D01*
X111991057Y-109931092D01*
X112080024Y-110075328D01*
X112080027Y-110075332D01*
X112199867Y-110195172D01*
X112199871Y-110195175D01*
X112344107Y-110284142D01*
X112344118Y-110284147D01*
X112504993Y-110337455D01*
X112604283Y-110347599D01*
X112627600Y-110347598D01*
X112627600Y-109622600D01*
X111927601Y-109622600D01*
X110746036Y-109622600D01*
X110681547Y-109536455D01*
X110681544Y-109536452D01*
X110566335Y-109450206D01*
X110566328Y-109450202D01*
X110431482Y-109399908D01*
X110431483Y-109399908D01*
X110371883Y-109393501D01*
X110371881Y-109393500D01*
X110371873Y-109393500D01*
X110371865Y-109393500D01*
X110200100Y-109393500D01*
X110133061Y-109373815D01*
X110087306Y-109321011D01*
X110076100Y-109269500D01*
X110076100Y-109122600D01*
X111927600Y-109122600D01*
X112627600Y-109122600D01*
X112627600Y-108397599D01*
X112604293Y-108397600D01*
X112604274Y-108397601D01*
X112504992Y-108407744D01*
X112344118Y-108461052D01*
X112344107Y-108461057D01*
X112199871Y-108550024D01*
X112199867Y-108550027D01*
X112080027Y-108669867D01*
X112080024Y-108669871D01*
X111991057Y-108814107D01*
X111991052Y-108814118D01*
X111937744Y-108974993D01*
X111927600Y-109074277D01*
X111927600Y-109122600D01*
X110076100Y-109122600D01*
X110076100Y-108963920D01*
X110095785Y-108896881D01*
X110107951Y-108880947D01*
X110112642Y-108875737D01*
X110170415Y-108811575D01*
X110260395Y-108655725D01*
X110316005Y-108484574D01*
X110334816Y-108305600D01*
X110316005Y-108126626D01*
X110260395Y-107955475D01*
X110170415Y-107799625D01*
X110049998Y-107665889D01*
X109904408Y-107560111D01*
X109740007Y-107486915D01*
X109740006Y-107486914D01*
X109740002Y-107486913D01*
X109563980Y-107449500D01*
X109384020Y-107449500D01*
X109207997Y-107486913D01*
X109043588Y-107560113D01*
X108898000Y-107665890D01*
X108777584Y-107799626D01*
X108687604Y-107955476D01*
X108631996Y-108126622D01*
X108631995Y-108126624D01*
X108613184Y-108305600D01*
X108631995Y-108484575D01*
X108631996Y-108484577D01*
X108674790Y-108616286D01*
X108687605Y-108655725D01*
X108777585Y-108811575D01*
X108835358Y-108875737D01*
X108840049Y-108880947D01*
X108870279Y-108943938D01*
X108871900Y-108963920D01*
X108871900Y-109269500D01*
X108852215Y-109336539D01*
X108799411Y-109382294D01*
X108747901Y-109393500D01*
X108576130Y-109393500D01*
X108576123Y-109393501D01*
X108516516Y-109399908D01*
X108381671Y-109450202D01*
X108381664Y-109450206D01*
X108266455Y-109536452D01*
X108266452Y-109536455D01*
X108180206Y-109651664D01*
X108180202Y-109651671D01*
X108129908Y-109786517D01*
X108123501Y-109846116D01*
X108123501Y-109846123D01*
X108123500Y-109846135D01*
X108123500Y-111641870D01*
X105664500Y-111641870D01*
X105664500Y-102440813D01*
X111724300Y-102440813D01*
X111730713Y-102511392D01*
X111781322Y-102673806D01*
X111869330Y-102819388D01*
X111869331Y-102819389D01*
X111920582Y-102870639D01*
X111954068Y-102931962D01*
X111949084Y-103001654D01*
X111940290Y-103020320D01*
X111862604Y-103154877D01*
X111806996Y-103326022D01*
X111806995Y-103326024D01*
X111788184Y-103505000D01*
X111802231Y-103638653D01*
X111806995Y-103683974D01*
X111862605Y-103855125D01*
X111952585Y-104010975D01*
X112010424Y-104075211D01*
X112073002Y-104144711D01*
X112130013Y-104186132D01*
X112172679Y-104241462D01*
X112178658Y-104311075D01*
X112149279Y-104369422D01*
X112126032Y-104395240D01*
X112079585Y-104446825D01*
X112079583Y-104446826D01*
X112079582Y-104446829D01*
X111989604Y-104602676D01*
X111933996Y-104773822D01*
X111933995Y-104773824D01*
X111915184Y-104952800D01*
X111928475Y-105079260D01*
X111933995Y-105131774D01*
X111989605Y-105302925D01*
X112079585Y-105458775D01*
X112137139Y-105522695D01*
X112188614Y-105579864D01*
X112200002Y-105592511D01*
X112345592Y-105698289D01*
X112509993Y-105771485D01*
X112509996Y-105771485D01*
X112509997Y-105771486D01*
X112523401Y-105774335D01*
X112686020Y-105808900D01*
X112865980Y-105808900D01*
X113042007Y-105771485D01*
X113206408Y-105698289D01*
X113351998Y-105592511D01*
X113472415Y-105458775D01*
X113492268Y-105424389D01*
X113498324Y-105413900D01*
X113548891Y-105365684D01*
X113605711Y-105351900D01*
X113862732Y-105351900D01*
X113929771Y-105371585D01*
X113975526Y-105424389D01*
X113981808Y-105441304D01*
X114005454Y-105522695D01*
X114005455Y-105522696D01*
X114089117Y-105664162D01*
X114089123Y-105664170D01*
X114205329Y-105780376D01*
X114205340Y-105780385D01*
X114205655Y-105780571D01*
X114205850Y-105780780D01*
X114211498Y-105785161D01*
X114210791Y-105786072D01*
X114253336Y-105831643D01*
X114265837Y-105900385D01*
X114239188Y-105964973D01*
X114211278Y-105989156D01*
X114211498Y-105989439D01*
X114206292Y-105993476D01*
X114205655Y-105994029D01*
X114205340Y-105994214D01*
X114205329Y-105994223D01*
X114089123Y-106110429D01*
X114089117Y-106110437D01*
X114005455Y-106251903D01*
X114005454Y-106251906D01*
X113959602Y-106409726D01*
X113959601Y-106409732D01*
X113956700Y-106446598D01*
X113956700Y-107603001D01*
X113959601Y-107639867D01*
X113959602Y-107639873D01*
X114005454Y-107797693D01*
X114005455Y-107797696D01*
X114005456Y-107797698D01*
X114089119Y-107939165D01*
X114095379Y-107945425D01*
X114128865Y-108006745D01*
X114131700Y-108033108D01*
X114131700Y-108292257D01*
X114112015Y-108359296D01*
X114059211Y-108405051D01*
X114046705Y-108409963D01*
X113893903Y-108460597D01*
X113893894Y-108460601D01*
X113749559Y-108549629D01*
X113749553Y-108549633D01*
X113739924Y-108559263D01*
X113678600Y-108592746D01*
X113608908Y-108587759D01*
X113564565Y-108559260D01*
X113555332Y-108550027D01*
X113555328Y-108550024D01*
X113411092Y-108461057D01*
X113411081Y-108461052D01*
X113250206Y-108407744D01*
X113150922Y-108397600D01*
X113127600Y-108397600D01*
X113127600Y-110347599D01*
X113150908Y-110347599D01*
X113150922Y-110347598D01*
X113250207Y-110337455D01*
X113411081Y-110284147D01*
X113411088Y-110284144D01*
X113532827Y-110209053D01*
X113600219Y-110190612D01*
X113666883Y-110211534D01*
X113711653Y-110265175D01*
X113720315Y-110334506D01*
X113705313Y-110376589D01*
X113666004Y-110444675D01*
X113610396Y-110615822D01*
X113610395Y-110615824D01*
X113591584Y-110794800D01*
X113610395Y-110973775D01*
X113610396Y-110973777D01*
X113634668Y-111048481D01*
X113666005Y-111144925D01*
X113755985Y-111300775D01*
X113876402Y-111434511D01*
X114021992Y-111540289D01*
X114186393Y-111613485D01*
X114186396Y-111613485D01*
X114186397Y-111613486D01*
X114214528Y-111619465D01*
X114362420Y-111650900D01*
X114542380Y-111650900D01*
X114718407Y-111613485D01*
X114882808Y-111540289D01*
X115028398Y-111434511D01*
X115148815Y-111300775D01*
X115208499Y-111197400D01*
X115712601Y-111197400D01*
X115712601Y-111203982D01*
X115719008Y-111274502D01*
X115719009Y-111274507D01*
X115769581Y-111436796D01*
X115857527Y-111582277D01*
X115977722Y-111702472D01*
X116123204Y-111790419D01*
X116123203Y-111790419D01*
X116285494Y-111840990D01*
X116285492Y-111840990D01*
X116356018Y-111847399D01*
X116437599Y-111847398D01*
X116437600Y-111847398D01*
X116437600Y-111197400D01*
X116937600Y-111197400D01*
X116937600Y-111847399D01*
X117019181Y-111847399D01*
X117089702Y-111840991D01*
X117089707Y-111840990D01*
X117251996Y-111790418D01*
X117397477Y-111702472D01*
X117517672Y-111582277D01*
X117605619Y-111436795D01*
X117656190Y-111274506D01*
X117662600Y-111203972D01*
X117662600Y-111197400D01*
X116937600Y-111197400D01*
X116437600Y-111197400D01*
X115712601Y-111197400D01*
X115208499Y-111197400D01*
X115238795Y-111144925D01*
X115294405Y-110973774D01*
X115313216Y-110794800D01*
X115294405Y-110615826D01*
X115238795Y-110444675D01*
X115175189Y-110334506D01*
X115146453Y-110284733D01*
X115129980Y-110216832D01*
X115152833Y-110150806D01*
X115166148Y-110135063D01*
X115225568Y-110075644D01*
X115314603Y-109931297D01*
X115367949Y-109770308D01*
X115378100Y-109670945D01*
X115378100Y-109554013D01*
X115712100Y-109554013D01*
X115718513Y-109624592D01*
X115718513Y-109624594D01*
X115718514Y-109624596D01*
X115769122Y-109787006D01*
X115856349Y-109931297D01*
X115857130Y-109932588D01*
X115959615Y-110035073D01*
X115993100Y-110096396D01*
X115988116Y-110166088D01*
X115959615Y-110210435D01*
X115857528Y-110312521D01*
X115857527Y-110312522D01*
X115769580Y-110458004D01*
X115719009Y-110620293D01*
X115712600Y-110690827D01*
X115712600Y-110697400D01*
X117662599Y-110697400D01*
X117662599Y-110690817D01*
X117656191Y-110620297D01*
X117656190Y-110620292D01*
X117605618Y-110458003D01*
X117517672Y-110312522D01*
X117415584Y-110210434D01*
X117382099Y-110149111D01*
X117387083Y-110079419D01*
X117415583Y-110035073D01*
X117518072Y-109932585D01*
X117606078Y-109787006D01*
X117656686Y-109624596D01*
X117663100Y-109554016D01*
X117663100Y-109040784D01*
X117656686Y-108970204D01*
X117606078Y-108807794D01*
X117518072Y-108662215D01*
X117518070Y-108662213D01*
X117518069Y-108662211D01*
X117397789Y-108541931D01*
X117397785Y-108541928D01*
X117342549Y-108508536D01*
X117295362Y-108457008D01*
X117282700Y-108402420D01*
X117282700Y-108033108D01*
X117302385Y-107966069D01*
X117319017Y-107945428D01*
X117325281Y-107939165D01*
X117408944Y-107797698D01*
X117454798Y-107639869D01*
X117457700Y-107602994D01*
X117457700Y-106446606D01*
X117454798Y-106409731D01*
X117408944Y-106251902D01*
X117344303Y-106142600D01*
X119700001Y-106142600D01*
X119700001Y-106190922D01*
X119710144Y-106290207D01*
X119763452Y-106451081D01*
X119763457Y-106451092D01*
X119852424Y-106595328D01*
X119852427Y-106595332D01*
X119972267Y-106715172D01*
X119972271Y-106715175D01*
X120116507Y-106804142D01*
X120116518Y-106804147D01*
X120277393Y-106857455D01*
X120376683Y-106867599D01*
X120400000Y-106867598D01*
X120400000Y-106142600D01*
X119700001Y-106142600D01*
X117344303Y-106142600D01*
X117325281Y-106110435D01*
X117325279Y-106110433D01*
X117325276Y-106110429D01*
X117209070Y-105994223D01*
X117209067Y-105994221D01*
X117209065Y-105994219D01*
X117208749Y-105994032D01*
X117208553Y-105993822D01*
X117202902Y-105989439D01*
X117203609Y-105988527D01*
X117161066Y-105942964D01*
X117148562Y-105874223D01*
X117175206Y-105809633D01*
X117203121Y-105785444D01*
X117202902Y-105785161D01*
X117208111Y-105781120D01*
X117208750Y-105780567D01*
X117209065Y-105780381D01*
X117325281Y-105664165D01*
X117338034Y-105642600D01*
X119700000Y-105642600D01*
X120400000Y-105642600D01*
X120400000Y-104917599D01*
X120376693Y-104917600D01*
X120376674Y-104917601D01*
X120277392Y-104927744D01*
X120116518Y-104981052D01*
X120116507Y-104981057D01*
X119972271Y-105070024D01*
X119972267Y-105070027D01*
X119852427Y-105189867D01*
X119852424Y-105189871D01*
X119763457Y-105334107D01*
X119763452Y-105334118D01*
X119710144Y-105494993D01*
X119700000Y-105594277D01*
X119700000Y-105642600D01*
X117338034Y-105642600D01*
X117408944Y-105522698D01*
X117425270Y-105466502D01*
X117462876Y-105407620D01*
X117526348Y-105378413D01*
X117544346Y-105377100D01*
X117698929Y-105377100D01*
X117765968Y-105396785D01*
X117782637Y-105410955D01*
X117783172Y-105410362D01*
X117787999Y-105414708D01*
X117788002Y-105414711D01*
X117933592Y-105520489D01*
X118097993Y-105593685D01*
X118097996Y-105593685D01*
X118097997Y-105593686D01*
X118100778Y-105594277D01*
X118274020Y-105631100D01*
X118453980Y-105631100D01*
X118630007Y-105593685D01*
X118794408Y-105520489D01*
X118939998Y-105414711D01*
X119060415Y-105280975D01*
X119150395Y-105125125D01*
X119206005Y-104953974D01*
X119224816Y-104775000D01*
X119206005Y-104596026D01*
X119150395Y-104424875D01*
X119060415Y-104269025D01*
X118939998Y-104135289D01*
X118794408Y-104029511D01*
X118630007Y-103956315D01*
X118630006Y-103956314D01*
X118630002Y-103956313D01*
X118453980Y-103918900D01*
X118274020Y-103918900D01*
X118097997Y-103956313D01*
X117933588Y-104029513D01*
X117787999Y-104135291D01*
X117783172Y-104139638D01*
X117781493Y-104137773D01*
X117731610Y-104168516D01*
X117698929Y-104172900D01*
X117558989Y-104172900D01*
X117491950Y-104153215D01*
X117446195Y-104100411D01*
X117439913Y-104083495D01*
X117408945Y-103976906D01*
X117408945Y-103976905D01*
X117408944Y-103976902D01*
X117325281Y-103835435D01*
X117325279Y-103835433D01*
X117325276Y-103835429D01*
X117209070Y-103719223D01*
X117209062Y-103719217D01*
X117073619Y-103639117D01*
X117067598Y-103635556D01*
X117067597Y-103635555D01*
X117067596Y-103635555D01*
X117067593Y-103635554D01*
X116909773Y-103589702D01*
X116909767Y-103589701D01*
X116872901Y-103586800D01*
X116872894Y-103586800D01*
X116441506Y-103586800D01*
X116441498Y-103586800D01*
X116404632Y-103589701D01*
X116404626Y-103589702D01*
X116246807Y-103635554D01*
X116246794Y-103635559D01*
X116244820Y-103636727D01*
X116243072Y-103637170D01*
X116239641Y-103638655D01*
X116239401Y-103638101D01*
X116177095Y-103653903D01*
X116124801Y-103638548D01*
X116124556Y-103639116D01*
X116119958Y-103637126D01*
X116118598Y-103636727D01*
X116117403Y-103636020D01*
X116117393Y-103636016D01*
X115959694Y-103590200D01*
X115959697Y-103590200D01*
X115957200Y-103590003D01*
X115957200Y-103855484D01*
X115939933Y-103918604D01*
X115905454Y-103976905D01*
X115905454Y-103976906D01*
X115859602Y-104134726D01*
X115859601Y-104134732D01*
X115856700Y-104171598D01*
X115856700Y-105328001D01*
X115859601Y-105364867D01*
X115859602Y-105364873D01*
X115905454Y-105522693D01*
X115905455Y-105522695D01*
X115905456Y-105522698D01*
X115939932Y-105580994D01*
X115957200Y-105644114D01*
X115957200Y-105909595D01*
X115983447Y-105933858D01*
X116019314Y-105993819D01*
X116017069Y-106063653D01*
X115992671Y-106103314D01*
X115993902Y-106104269D01*
X115989117Y-106110437D01*
X115905455Y-106251903D01*
X115905454Y-106251906D01*
X115859602Y-106409726D01*
X115859601Y-106409732D01*
X115856700Y-106446598D01*
X115856700Y-107603001D01*
X115859601Y-107639867D01*
X115859602Y-107639873D01*
X115905454Y-107797693D01*
X115905455Y-107797696D01*
X115905456Y-107797698D01*
X115989119Y-107939165D01*
X115995379Y-107945425D01*
X116028865Y-108006745D01*
X116031700Y-108033108D01*
X116031700Y-108439175D01*
X116012015Y-108506214D01*
X115981914Y-108535518D01*
X115983315Y-108537306D01*
X115977410Y-108541931D01*
X115857130Y-108662211D01*
X115769122Y-108807793D01*
X115718513Y-108970207D01*
X115714579Y-109013507D01*
X115712708Y-109034100D01*
X115712100Y-109040786D01*
X115712100Y-109554013D01*
X115378100Y-109554013D01*
X115378099Y-109155601D01*
X115381995Y-109124763D01*
X115382700Y-109122019D01*
X115382700Y-109101983D01*
X115384227Y-109082582D01*
X115387360Y-109062804D01*
X115383250Y-109019324D01*
X115382700Y-109007655D01*
X115382700Y-108033108D01*
X115402385Y-107966069D01*
X115419017Y-107945428D01*
X115425281Y-107939165D01*
X115508944Y-107797698D01*
X115554798Y-107639869D01*
X115557700Y-107602994D01*
X115557700Y-106446606D01*
X115554798Y-106409731D01*
X115508944Y-106251902D01*
X115425281Y-106110435D01*
X115425278Y-106110432D01*
X115420498Y-106104269D01*
X115422182Y-106102962D01*
X115393957Y-106051272D01*
X115398941Y-105981580D01*
X115430952Y-105933857D01*
X115457200Y-105909593D01*
X115457200Y-105644114D01*
X115474467Y-105580994D01*
X115508944Y-105522698D01*
X115554798Y-105364869D01*
X115557700Y-105327994D01*
X115557700Y-104171606D01*
X115554798Y-104134731D01*
X115549699Y-104117181D01*
X115508945Y-103976906D01*
X115508945Y-103976905D01*
X115508944Y-103976904D01*
X115508944Y-103976902D01*
X115474467Y-103918604D01*
X115457200Y-103855484D01*
X115457200Y-103590003D01*
X115454704Y-103590200D01*
X115297006Y-103636016D01*
X115296991Y-103636022D01*
X115295799Y-103636728D01*
X115294743Y-103636995D01*
X115289841Y-103639117D01*
X115289498Y-103638325D01*
X115228073Y-103653903D01*
X115174910Y-103638292D01*
X115174754Y-103638653D01*
X115171830Y-103637387D01*
X115169577Y-103636726D01*
X115167599Y-103635556D01*
X115167593Y-103635554D01*
X115009773Y-103589702D01*
X115009767Y-103589701D01*
X114972901Y-103586800D01*
X114972894Y-103586800D01*
X114541506Y-103586800D01*
X114541498Y-103586800D01*
X114504632Y-103589701D01*
X114504626Y-103589702D01*
X114346806Y-103635554D01*
X114346803Y-103635555D01*
X114205337Y-103719217D01*
X114205329Y-103719223D01*
X114089123Y-103835429D01*
X114089117Y-103835437D01*
X114005455Y-103976903D01*
X114005454Y-103976904D01*
X113981808Y-104058296D01*
X113944202Y-104117181D01*
X113880729Y-104146387D01*
X113862732Y-104147700D01*
X113481251Y-104147700D01*
X113414212Y-104128015D01*
X113368457Y-104075211D01*
X113358513Y-104006053D01*
X113373864Y-103961700D01*
X113377755Y-103954959D01*
X113435395Y-103855125D01*
X113491005Y-103683974D01*
X113509816Y-103505000D01*
X113491005Y-103326026D01*
X113435395Y-103154875D01*
X113394897Y-103084731D01*
X113378425Y-103016833D01*
X113401277Y-102950806D01*
X113414593Y-102935063D01*
X113530272Y-102819385D01*
X113618278Y-102673806D01*
X113668886Y-102511396D01*
X113675300Y-102440816D01*
X113675300Y-101927584D01*
X113668886Y-101857004D01*
X113618278Y-101694594D01*
X113530272Y-101549015D01*
X113530270Y-101549013D01*
X113530269Y-101549011D01*
X113428139Y-101446881D01*
X113394654Y-101385558D01*
X113399638Y-101315866D01*
X113428139Y-101271519D01*
X113503639Y-101196019D01*
X113564962Y-101162534D01*
X113591320Y-101159700D01*
X115880039Y-101159700D01*
X115947078Y-101179385D01*
X115985579Y-101218606D01*
X115990318Y-101226289D01*
X115990319Y-101226291D01*
X116022247Y-101258219D01*
X116055732Y-101319542D01*
X116050748Y-101389234D01*
X116022247Y-101433581D01*
X115990319Y-101465508D01*
X115990316Y-101465512D01*
X115902055Y-101608604D01*
X115902051Y-101608613D01*
X115849164Y-101768215D01*
X115849164Y-101768216D01*
X115849163Y-101768216D01*
X115839100Y-101866718D01*
X115839100Y-102400081D01*
X115849163Y-102498583D01*
X115902050Y-102658184D01*
X115902055Y-102658195D01*
X115990316Y-102801287D01*
X115990319Y-102801291D01*
X116109208Y-102920180D01*
X116109212Y-102920183D01*
X116252304Y-103008444D01*
X116252307Y-103008445D01*
X116252313Y-103008449D01*
X116411915Y-103061336D01*
X116510426Y-103071400D01*
X116510431Y-103071400D01*
X117118769Y-103071400D01*
X117118774Y-103071400D01*
X117217285Y-103061336D01*
X117376887Y-103008449D01*
X117519991Y-102920181D01*
X117638881Y-102801291D01*
X117675697Y-102741603D01*
X117727644Y-102694879D01*
X117781235Y-102682700D01*
X118642552Y-102682700D01*
X118709591Y-102702385D01*
X118715431Y-102706377D01*
X118847992Y-102802689D01*
X119012393Y-102875885D01*
X119012396Y-102875885D01*
X119012397Y-102875886D01*
X119040528Y-102881865D01*
X119188420Y-102913300D01*
X119368380Y-102913300D01*
X119544407Y-102875885D01*
X119708808Y-102802689D01*
X119854398Y-102696911D01*
X119974815Y-102563175D01*
X120064795Y-102407325D01*
X120120405Y-102236174D01*
X120139216Y-102057200D01*
X120120405Y-101878226D01*
X120064795Y-101707075D01*
X119974815Y-101551225D01*
X119854398Y-101417489D01*
X119737892Y-101332842D01*
X119708811Y-101311713D01*
X119708810Y-101311712D01*
X119708808Y-101311711D01*
X119544407Y-101238515D01*
X119544406Y-101238514D01*
X119544402Y-101238513D01*
X119368380Y-101201100D01*
X119188420Y-101201100D01*
X119012397Y-101238513D01*
X119012393Y-101238515D01*
X118897493Y-101289672D01*
X118847988Y-101311713D01*
X118715438Y-101408018D01*
X118649631Y-101431498D01*
X118642552Y-101431700D01*
X117732590Y-101431700D01*
X117665551Y-101412015D01*
X117619796Y-101359211D01*
X117609852Y-101290053D01*
X117635325Y-101230788D01*
X117638883Y-101226288D01*
X117727144Y-101083195D01*
X117727143Y-101083195D01*
X117727149Y-101083187D01*
X117727542Y-101082000D01*
X125042000Y-101082000D01*
X126292000Y-101082000D01*
X126292000Y-100082000D01*
X126792000Y-100082000D01*
X126792000Y-101082000D01*
X128042000Y-101082000D01*
X128042000Y-100534172D01*
X128041999Y-100534155D01*
X128035598Y-100474627D01*
X128035596Y-100474620D01*
X127985354Y-100339913D01*
X127985350Y-100339906D01*
X127899190Y-100224812D01*
X127899187Y-100224809D01*
X127784093Y-100138649D01*
X127784086Y-100138645D01*
X127649379Y-100088403D01*
X127649372Y-100088401D01*
X127589844Y-100082000D01*
X126792000Y-100082000D01*
X126292000Y-100082000D01*
X125494155Y-100082000D01*
X125434627Y-100088401D01*
X125434620Y-100088403D01*
X125299913Y-100138645D01*
X125299906Y-100138649D01*
X125184812Y-100224809D01*
X125184809Y-100224812D01*
X125098649Y-100339906D01*
X125098645Y-100339913D01*
X125048403Y-100474620D01*
X125048401Y-100474627D01*
X125042000Y-100534155D01*
X125042000Y-101082000D01*
X117727542Y-101082000D01*
X117780036Y-100923585D01*
X117790100Y-100825074D01*
X117790100Y-100291726D01*
X117780036Y-100193215D01*
X117727149Y-100033613D01*
X117727145Y-100033607D01*
X117727144Y-100033604D01*
X117638883Y-99890512D01*
X117638880Y-99890508D01*
X117519991Y-99771619D01*
X117519987Y-99771616D01*
X117376895Y-99683355D01*
X117376889Y-99683352D01*
X117376887Y-99683351D01*
X117217285Y-99630464D01*
X117217283Y-99630463D01*
X117118781Y-99620400D01*
X117118774Y-99620400D01*
X116510426Y-99620400D01*
X116510418Y-99620400D01*
X116411916Y-99630463D01*
X116411915Y-99630464D01*
X116332819Y-99656673D01*
X116252315Y-99683350D01*
X116252304Y-99683355D01*
X116109212Y-99771616D01*
X116109208Y-99771619D01*
X116008447Y-99872381D01*
X115947124Y-99905866D01*
X115920766Y-99908700D01*
X113591320Y-99908700D01*
X113524281Y-99889015D01*
X113503639Y-99872381D01*
X113409988Y-99778730D01*
X113264406Y-99690722D01*
X113240748Y-99683350D01*
X113101996Y-99640114D01*
X113101994Y-99640113D01*
X113101992Y-99640113D01*
X113052578Y-99635623D01*
X113031416Y-99633700D01*
X112368184Y-99633700D01*
X112348945Y-99635448D01*
X112297607Y-99640113D01*
X112135193Y-99690722D01*
X111989611Y-99778730D01*
X111869330Y-99899011D01*
X111781322Y-100044593D01*
X111730713Y-100207007D01*
X111724300Y-100277586D01*
X111724300Y-100790813D01*
X111730713Y-100861392D01*
X111730713Y-100861394D01*
X111730714Y-100861396D01*
X111781322Y-101023806D01*
X111865186Y-101162534D01*
X111869330Y-101169388D01*
X111971461Y-101271519D01*
X112004946Y-101332842D01*
X111999962Y-101402534D01*
X111971461Y-101446881D01*
X111869331Y-101549010D01*
X111869330Y-101549011D01*
X111781322Y-101694593D01*
X111730713Y-101857007D01*
X111724300Y-101927586D01*
X111724300Y-102440813D01*
X105664500Y-102440813D01*
X105664500Y-98803500D01*
X105684185Y-98736461D01*
X105736989Y-98690706D01*
X105788500Y-98679500D01*
X151386500Y-98679500D01*
X151453539Y-98699185D01*
G37*
G04 #@! TD.AperFunction*
M02*
