G04 #@! TF.GenerationSoftware,KiCad,Pcbnew,7.0.10*
G04 #@! TF.CreationDate,2024-04-11T23:27:50-07:00*
G04 #@! TF.ProjectId,vibration_circuit,76696272-6174-4696-9f6e-5f6369726375,rev?*
G04 #@! TF.SameCoordinates,Original*
G04 #@! TF.FileFunction,Legend,Top*
G04 #@! TF.FilePolarity,Positive*
%FSLAX46Y46*%
G04 Gerber Fmt 4.6, Leading zero omitted, Abs format (unit mm)*
G04 Created by KiCad (PCBNEW 7.0.10) date 2024-04-11 23:27:50*
%MOMM*%
%LPD*%
G01*
G04 APERTURE LIST*
G04 Aperture macros list*
%AMRoundRect*
0 Rectangle with rounded corners*
0 $1 Rounding radius*
0 $2 $3 $4 $5 $6 $7 $8 $9 X,Y pos of 4 corners*
0 Add a 4 corners polygon primitive as box body*
4,1,4,$2,$3,$4,$5,$6,$7,$8,$9,$2,$3,0*
0 Add four circle primitives for the rounded corners*
1,1,$1+$1,$2,$3*
1,1,$1+$1,$4,$5*
1,1,$1+$1,$6,$7*
1,1,$1+$1,$8,$9*
0 Add four rect primitives between the rounded corners*
20,1,$1+$1,$2,$3,$4,$5,0*
20,1,$1+$1,$4,$5,$6,$7,0*
20,1,$1+$1,$6,$7,$8,$9,0*
20,1,$1+$1,$8,$9,$2,$3,0*%
G04 Aperture macros list end*
%ADD10C,0.150000*%
%ADD11C,0.200000*%
%ADD12C,0.127000*%
%ADD13C,0.120000*%
%ADD14C,0.650000*%
%ADD15RoundRect,0.102000X-0.575000X0.300000X-0.575000X-0.300000X0.575000X-0.300000X0.575000X0.300000X0*%
%ADD16RoundRect,0.102000X-0.575000X0.150000X-0.575000X-0.150000X0.575000X-0.150000X0.575000X0.150000X0*%
%ADD17O,2.304000X1.204000*%
%ADD18RoundRect,0.301000X-0.701000X0.301000X-0.701000X-0.301000X0.701000X-0.301000X0.701000X0.301000X0*%
%ADD19RoundRect,0.102000X-0.450000X-0.450000X0.450000X-0.450000X0.450000X0.450000X-0.450000X0.450000X0*%
%ADD20RoundRect,0.102000X-0.750000X-0.450000X0.750000X-0.450000X0.750000X0.450000X-0.750000X0.450000X0*%
%ADD21RoundRect,0.102000X-0.450000X-0.750000X0.450000X-0.750000X0.450000X0.750000X-0.450000X0.750000X0*%
%ADD22R,2.000000X1.500000*%
%ADD23R,2.000000X3.800000*%
%ADD24RoundRect,0.225000X0.250000X-0.225000X0.250000X0.225000X-0.250000X0.225000X-0.250000X-0.225000X0*%
%ADD25RoundRect,0.200000X0.200000X0.275000X-0.200000X0.275000X-0.200000X-0.275000X0.200000X-0.275000X0*%
%ADD26RoundRect,0.218750X-0.218750X-0.256250X0.218750X-0.256250X0.218750X0.256250X-0.218750X0.256250X0*%
%ADD27R,1.700000X1.700000*%
%ADD28O,1.700000X1.700000*%
%ADD29RoundRect,0.225000X0.225000X0.250000X-0.225000X0.250000X-0.225000X-0.250000X0.225000X-0.250000X0*%
%ADD30RoundRect,0.200000X-0.200000X-0.275000X0.200000X-0.275000X0.200000X0.275000X-0.200000X0.275000X0*%
%ADD31RoundRect,0.150000X-0.150000X0.512500X-0.150000X-0.512500X0.150000X-0.512500X0.150000X0.512500X0*%
%ADD32RoundRect,0.200000X-0.275000X0.200000X-0.275000X-0.200000X0.275000X-0.200000X0.275000X0.200000X0*%
%ADD33RoundRect,0.102000X0.600000X1.250000X-0.600000X1.250000X-0.600000X-1.250000X0.600000X-1.250000X0*%
%ADD34RoundRect,0.225000X-0.225000X-0.250000X0.225000X-0.250000X0.225000X0.250000X-0.225000X0.250000X0*%
%ADD35RoundRect,0.218750X-0.256250X0.218750X-0.256250X-0.218750X0.256250X-0.218750X0.256250X0.218750X0*%
%ADD36RoundRect,0.102000X1.250000X-0.600000X1.250000X0.600000X-1.250000X0.600000X-1.250000X-0.600000X0*%
%ADD37R,1.600000X0.900000*%
%ADD38R,0.250000X0.500000*%
%ADD39RoundRect,0.250000X-0.450000X0.262500X-0.450000X-0.262500X0.450000X-0.262500X0.450000X0.262500X0*%
G04 APERTURE END LIST*
D10*
X108251666Y-125819819D02*
X108251666Y-126534104D01*
X108251666Y-126534104D02*
X108204047Y-126676961D01*
X108204047Y-126676961D02*
X108108809Y-126772200D01*
X108108809Y-126772200D02*
X107965952Y-126819819D01*
X107965952Y-126819819D02*
X107870714Y-126819819D01*
X108680238Y-125915057D02*
X108727857Y-125867438D01*
X108727857Y-125867438D02*
X108823095Y-125819819D01*
X108823095Y-125819819D02*
X109061190Y-125819819D01*
X109061190Y-125819819D02*
X109156428Y-125867438D01*
X109156428Y-125867438D02*
X109204047Y-125915057D01*
X109204047Y-125915057D02*
X109251666Y-126010295D01*
X109251666Y-126010295D02*
X109251666Y-126105533D01*
X109251666Y-126105533D02*
X109204047Y-126248390D01*
X109204047Y-126248390D02*
X108632619Y-126819819D01*
X108632619Y-126819819D02*
X109251666Y-126819819D01*
X138430095Y-108608219D02*
X138430095Y-109417742D01*
X138430095Y-109417742D02*
X138477714Y-109512980D01*
X138477714Y-109512980D02*
X138525333Y-109560600D01*
X138525333Y-109560600D02*
X138620571Y-109608219D01*
X138620571Y-109608219D02*
X138811047Y-109608219D01*
X138811047Y-109608219D02*
X138906285Y-109560600D01*
X138906285Y-109560600D02*
X138953904Y-109512980D01*
X138953904Y-109512980D02*
X139001523Y-109417742D01*
X139001523Y-109417742D02*
X139001523Y-108608219D01*
X139906285Y-108941552D02*
X139906285Y-109608219D01*
X139668190Y-108560600D02*
X139430095Y-109274885D01*
X139430095Y-109274885D02*
X140049142Y-109274885D01*
X134874095Y-103086819D02*
X134874095Y-103896342D01*
X134874095Y-103896342D02*
X134921714Y-103991580D01*
X134921714Y-103991580D02*
X134969333Y-104039200D01*
X134969333Y-104039200D02*
X135064571Y-104086819D01*
X135064571Y-104086819D02*
X135255047Y-104086819D01*
X135255047Y-104086819D02*
X135350285Y-104039200D01*
X135350285Y-104039200D02*
X135397904Y-103991580D01*
X135397904Y-103991580D02*
X135445523Y-103896342D01*
X135445523Y-103896342D02*
X135445523Y-103086819D01*
X136445523Y-104086819D02*
X135874095Y-104086819D01*
X136159809Y-104086819D02*
X136159809Y-103086819D01*
X136159809Y-103086819D02*
X136064571Y-103229676D01*
X136064571Y-103229676D02*
X135969333Y-103324914D01*
X135969333Y-103324914D02*
X135874095Y-103372533D01*
X121880333Y-122533580D02*
X121832714Y-122581200D01*
X121832714Y-122581200D02*
X121689857Y-122628819D01*
X121689857Y-122628819D02*
X121594619Y-122628819D01*
X121594619Y-122628819D02*
X121451762Y-122581200D01*
X121451762Y-122581200D02*
X121356524Y-122485961D01*
X121356524Y-122485961D02*
X121308905Y-122390723D01*
X121308905Y-122390723D02*
X121261286Y-122200247D01*
X121261286Y-122200247D02*
X121261286Y-122057390D01*
X121261286Y-122057390D02*
X121308905Y-121866914D01*
X121308905Y-121866914D02*
X121356524Y-121771676D01*
X121356524Y-121771676D02*
X121451762Y-121676438D01*
X121451762Y-121676438D02*
X121594619Y-121628819D01*
X121594619Y-121628819D02*
X121689857Y-121628819D01*
X121689857Y-121628819D02*
X121832714Y-121676438D01*
X121832714Y-121676438D02*
X121880333Y-121724057D01*
X122785095Y-121628819D02*
X122308905Y-121628819D01*
X122308905Y-121628819D02*
X122261286Y-122105009D01*
X122261286Y-122105009D02*
X122308905Y-122057390D01*
X122308905Y-122057390D02*
X122404143Y-122009771D01*
X122404143Y-122009771D02*
X122642238Y-122009771D01*
X122642238Y-122009771D02*
X122737476Y-122057390D01*
X122737476Y-122057390D02*
X122785095Y-122105009D01*
X122785095Y-122105009D02*
X122832714Y-122200247D01*
X122832714Y-122200247D02*
X122832714Y-122438342D01*
X122832714Y-122438342D02*
X122785095Y-122533580D01*
X122785095Y-122533580D02*
X122737476Y-122581200D01*
X122737476Y-122581200D02*
X122642238Y-122628819D01*
X122642238Y-122628819D02*
X122404143Y-122628819D01*
X122404143Y-122628819D02*
X122308905Y-122581200D01*
X122308905Y-122581200D02*
X122261286Y-122533580D01*
X123277333Y-135328819D02*
X122944000Y-134852628D01*
X122705905Y-135328819D02*
X122705905Y-134328819D01*
X122705905Y-134328819D02*
X123086857Y-134328819D01*
X123086857Y-134328819D02*
X123182095Y-134376438D01*
X123182095Y-134376438D02*
X123229714Y-134424057D01*
X123229714Y-134424057D02*
X123277333Y-134519295D01*
X123277333Y-134519295D02*
X123277333Y-134662152D01*
X123277333Y-134662152D02*
X123229714Y-134757390D01*
X123229714Y-134757390D02*
X123182095Y-134805009D01*
X123182095Y-134805009D02*
X123086857Y-134852628D01*
X123086857Y-134852628D02*
X122705905Y-134852628D01*
X124182095Y-134328819D02*
X123705905Y-134328819D01*
X123705905Y-134328819D02*
X123658286Y-134805009D01*
X123658286Y-134805009D02*
X123705905Y-134757390D01*
X123705905Y-134757390D02*
X123801143Y-134709771D01*
X123801143Y-134709771D02*
X124039238Y-134709771D01*
X124039238Y-134709771D02*
X124134476Y-134757390D01*
X124134476Y-134757390D02*
X124182095Y-134805009D01*
X124182095Y-134805009D02*
X124229714Y-134900247D01*
X124229714Y-134900247D02*
X124229714Y-135138342D01*
X124229714Y-135138342D02*
X124182095Y-135233580D01*
X124182095Y-135233580D02*
X124134476Y-135281200D01*
X124134476Y-135281200D02*
X124039238Y-135328819D01*
X124039238Y-135328819D02*
X123801143Y-135328819D01*
X123801143Y-135328819D02*
X123705905Y-135281200D01*
X123705905Y-135281200D02*
X123658286Y-135233580D01*
X116609905Y-128216819D02*
X116609905Y-127216819D01*
X116609905Y-127216819D02*
X116848000Y-127216819D01*
X116848000Y-127216819D02*
X116990857Y-127264438D01*
X116990857Y-127264438D02*
X117086095Y-127359676D01*
X117086095Y-127359676D02*
X117133714Y-127454914D01*
X117133714Y-127454914D02*
X117181333Y-127645390D01*
X117181333Y-127645390D02*
X117181333Y-127788247D01*
X117181333Y-127788247D02*
X117133714Y-127978723D01*
X117133714Y-127978723D02*
X117086095Y-128073961D01*
X117086095Y-128073961D02*
X116990857Y-128169200D01*
X116990857Y-128169200D02*
X116848000Y-128216819D01*
X116848000Y-128216819D02*
X116609905Y-128216819D01*
X117562286Y-127312057D02*
X117609905Y-127264438D01*
X117609905Y-127264438D02*
X117705143Y-127216819D01*
X117705143Y-127216819D02*
X117943238Y-127216819D01*
X117943238Y-127216819D02*
X118038476Y-127264438D01*
X118038476Y-127264438D02*
X118086095Y-127312057D01*
X118086095Y-127312057D02*
X118133714Y-127407295D01*
X118133714Y-127407295D02*
X118133714Y-127502533D01*
X118133714Y-127502533D02*
X118086095Y-127645390D01*
X118086095Y-127645390D02*
X117514667Y-128216819D01*
X117514667Y-128216819D02*
X118133714Y-128216819D01*
X134191476Y-150187819D02*
X134191476Y-149187819D01*
X134191476Y-149187819D02*
X134524809Y-149902104D01*
X134524809Y-149902104D02*
X134858142Y-149187819D01*
X134858142Y-149187819D02*
X134858142Y-150187819D01*
X135858142Y-150187819D02*
X135286714Y-150187819D01*
X135572428Y-150187819D02*
X135572428Y-149187819D01*
X135572428Y-149187819D02*
X135477190Y-149330676D01*
X135477190Y-149330676D02*
X135381952Y-149425914D01*
X135381952Y-149425914D02*
X135286714Y-149473533D01*
X149896533Y-140313580D02*
X149848914Y-140361200D01*
X149848914Y-140361200D02*
X149706057Y-140408819D01*
X149706057Y-140408819D02*
X149610819Y-140408819D01*
X149610819Y-140408819D02*
X149467962Y-140361200D01*
X149467962Y-140361200D02*
X149372724Y-140265961D01*
X149372724Y-140265961D02*
X149325105Y-140170723D01*
X149325105Y-140170723D02*
X149277486Y-139980247D01*
X149277486Y-139980247D02*
X149277486Y-139837390D01*
X149277486Y-139837390D02*
X149325105Y-139646914D01*
X149325105Y-139646914D02*
X149372724Y-139551676D01*
X149372724Y-139551676D02*
X149467962Y-139456438D01*
X149467962Y-139456438D02*
X149610819Y-139408819D01*
X149610819Y-139408819D02*
X149706057Y-139408819D01*
X149706057Y-139408819D02*
X149848914Y-139456438D01*
X149848914Y-139456438D02*
X149896533Y-139504057D01*
X150467962Y-139837390D02*
X150372724Y-139789771D01*
X150372724Y-139789771D02*
X150325105Y-139742152D01*
X150325105Y-139742152D02*
X150277486Y-139646914D01*
X150277486Y-139646914D02*
X150277486Y-139599295D01*
X150277486Y-139599295D02*
X150325105Y-139504057D01*
X150325105Y-139504057D02*
X150372724Y-139456438D01*
X150372724Y-139456438D02*
X150467962Y-139408819D01*
X150467962Y-139408819D02*
X150658438Y-139408819D01*
X150658438Y-139408819D02*
X150753676Y-139456438D01*
X150753676Y-139456438D02*
X150801295Y-139504057D01*
X150801295Y-139504057D02*
X150848914Y-139599295D01*
X150848914Y-139599295D02*
X150848914Y-139646914D01*
X150848914Y-139646914D02*
X150801295Y-139742152D01*
X150801295Y-139742152D02*
X150753676Y-139789771D01*
X150753676Y-139789771D02*
X150658438Y-139837390D01*
X150658438Y-139837390D02*
X150467962Y-139837390D01*
X150467962Y-139837390D02*
X150372724Y-139885009D01*
X150372724Y-139885009D02*
X150325105Y-139932628D01*
X150325105Y-139932628D02*
X150277486Y-140027866D01*
X150277486Y-140027866D02*
X150277486Y-140218342D01*
X150277486Y-140218342D02*
X150325105Y-140313580D01*
X150325105Y-140313580D02*
X150372724Y-140361200D01*
X150372724Y-140361200D02*
X150467962Y-140408819D01*
X150467962Y-140408819D02*
X150658438Y-140408819D01*
X150658438Y-140408819D02*
X150753676Y-140361200D01*
X150753676Y-140361200D02*
X150801295Y-140313580D01*
X150801295Y-140313580D02*
X150848914Y-140218342D01*
X150848914Y-140218342D02*
X150848914Y-140027866D01*
X150848914Y-140027866D02*
X150801295Y-139932628D01*
X150801295Y-139932628D02*
X150753676Y-139885009D01*
X150753676Y-139885009D02*
X150658438Y-139837390D01*
X124966933Y-124025819D02*
X124633600Y-123549628D01*
X124395505Y-124025819D02*
X124395505Y-123025819D01*
X124395505Y-123025819D02*
X124776457Y-123025819D01*
X124776457Y-123025819D02*
X124871695Y-123073438D01*
X124871695Y-123073438D02*
X124919314Y-123121057D01*
X124919314Y-123121057D02*
X124966933Y-123216295D01*
X124966933Y-123216295D02*
X124966933Y-123359152D01*
X124966933Y-123359152D02*
X124919314Y-123454390D01*
X124919314Y-123454390D02*
X124871695Y-123502009D01*
X124871695Y-123502009D02*
X124776457Y-123549628D01*
X124776457Y-123549628D02*
X124395505Y-123549628D01*
X125300267Y-123025819D02*
X125966933Y-123025819D01*
X125966933Y-123025819D02*
X125538362Y-124025819D01*
X112609333Y-108182580D02*
X112561714Y-108230200D01*
X112561714Y-108230200D02*
X112418857Y-108277819D01*
X112418857Y-108277819D02*
X112323619Y-108277819D01*
X112323619Y-108277819D02*
X112180762Y-108230200D01*
X112180762Y-108230200D02*
X112085524Y-108134961D01*
X112085524Y-108134961D02*
X112037905Y-108039723D01*
X112037905Y-108039723D02*
X111990286Y-107849247D01*
X111990286Y-107849247D02*
X111990286Y-107706390D01*
X111990286Y-107706390D02*
X112037905Y-107515914D01*
X112037905Y-107515914D02*
X112085524Y-107420676D01*
X112085524Y-107420676D02*
X112180762Y-107325438D01*
X112180762Y-107325438D02*
X112323619Y-107277819D01*
X112323619Y-107277819D02*
X112418857Y-107277819D01*
X112418857Y-107277819D02*
X112561714Y-107325438D01*
X112561714Y-107325438D02*
X112609333Y-107373057D01*
X113466476Y-107611152D02*
X113466476Y-108277819D01*
X113228381Y-107230200D02*
X112990286Y-107944485D01*
X112990286Y-107944485D02*
X113609333Y-107944485D01*
X124928333Y-130121819D02*
X124595000Y-129645628D01*
X124356905Y-130121819D02*
X124356905Y-129121819D01*
X124356905Y-129121819D02*
X124737857Y-129121819D01*
X124737857Y-129121819D02*
X124833095Y-129169438D01*
X124833095Y-129169438D02*
X124880714Y-129217057D01*
X124880714Y-129217057D02*
X124928333Y-129312295D01*
X124928333Y-129312295D02*
X124928333Y-129455152D01*
X124928333Y-129455152D02*
X124880714Y-129550390D01*
X124880714Y-129550390D02*
X124833095Y-129598009D01*
X124833095Y-129598009D02*
X124737857Y-129645628D01*
X124737857Y-129645628D02*
X124356905Y-129645628D01*
X125785476Y-129121819D02*
X125595000Y-129121819D01*
X125595000Y-129121819D02*
X125499762Y-129169438D01*
X125499762Y-129169438D02*
X125452143Y-129217057D01*
X125452143Y-129217057D02*
X125356905Y-129359914D01*
X125356905Y-129359914D02*
X125309286Y-129550390D01*
X125309286Y-129550390D02*
X125309286Y-129931342D01*
X125309286Y-129931342D02*
X125356905Y-130026580D01*
X125356905Y-130026580D02*
X125404524Y-130074200D01*
X125404524Y-130074200D02*
X125499762Y-130121819D01*
X125499762Y-130121819D02*
X125690238Y-130121819D01*
X125690238Y-130121819D02*
X125785476Y-130074200D01*
X125785476Y-130074200D02*
X125833095Y-130026580D01*
X125833095Y-130026580D02*
X125880714Y-129931342D01*
X125880714Y-129931342D02*
X125880714Y-129693247D01*
X125880714Y-129693247D02*
X125833095Y-129598009D01*
X125833095Y-129598009D02*
X125785476Y-129550390D01*
X125785476Y-129550390D02*
X125690238Y-129502771D01*
X125690238Y-129502771D02*
X125499762Y-129502771D01*
X125499762Y-129502771D02*
X125404524Y-129550390D01*
X125404524Y-129550390D02*
X125356905Y-129598009D01*
X125356905Y-129598009D02*
X125309286Y-129693247D01*
X123277333Y-131772819D02*
X122944000Y-131296628D01*
X122705905Y-131772819D02*
X122705905Y-130772819D01*
X122705905Y-130772819D02*
X123086857Y-130772819D01*
X123086857Y-130772819D02*
X123182095Y-130820438D01*
X123182095Y-130820438D02*
X123229714Y-130868057D01*
X123229714Y-130868057D02*
X123277333Y-130963295D01*
X123277333Y-130963295D02*
X123277333Y-131106152D01*
X123277333Y-131106152D02*
X123229714Y-131201390D01*
X123229714Y-131201390D02*
X123182095Y-131249009D01*
X123182095Y-131249009D02*
X123086857Y-131296628D01*
X123086857Y-131296628D02*
X122705905Y-131296628D01*
X124134476Y-131106152D02*
X124134476Y-131772819D01*
X123896381Y-130725200D02*
X123658286Y-131439485D01*
X123658286Y-131439485D02*
X124277333Y-131439485D01*
X117945819Y-107441904D02*
X118755342Y-107441904D01*
X118755342Y-107441904D02*
X118850580Y-107394285D01*
X118850580Y-107394285D02*
X118898200Y-107346666D01*
X118898200Y-107346666D02*
X118945819Y-107251428D01*
X118945819Y-107251428D02*
X118945819Y-107060952D01*
X118945819Y-107060952D02*
X118898200Y-106965714D01*
X118898200Y-106965714D02*
X118850580Y-106918095D01*
X118850580Y-106918095D02*
X118755342Y-106870476D01*
X118755342Y-106870476D02*
X117945819Y-106870476D01*
X117945819Y-106489523D02*
X117945819Y-105870476D01*
X117945819Y-105870476D02*
X118326771Y-106203809D01*
X118326771Y-106203809D02*
X118326771Y-106060952D01*
X118326771Y-106060952D02*
X118374390Y-105965714D01*
X118374390Y-105965714D02*
X118422009Y-105918095D01*
X118422009Y-105918095D02*
X118517247Y-105870476D01*
X118517247Y-105870476D02*
X118755342Y-105870476D01*
X118755342Y-105870476D02*
X118850580Y-105918095D01*
X118850580Y-105918095D02*
X118898200Y-105965714D01*
X118898200Y-105965714D02*
X118945819Y-106060952D01*
X118945819Y-106060952D02*
X118945819Y-106346666D01*
X118945819Y-106346666D02*
X118898200Y-106441904D01*
X118898200Y-106441904D02*
X118850580Y-106489523D01*
X106753066Y-110122419D02*
X106753066Y-110836704D01*
X106753066Y-110836704D02*
X106705447Y-110979561D01*
X106705447Y-110979561D02*
X106610209Y-111074800D01*
X106610209Y-111074800D02*
X106467352Y-111122419D01*
X106467352Y-111122419D02*
X106372114Y-111122419D01*
X107753066Y-111122419D02*
X107181638Y-111122419D01*
X107467352Y-111122419D02*
X107467352Y-110122419D01*
X107467352Y-110122419D02*
X107372114Y-110265276D01*
X107372114Y-110265276D02*
X107276876Y-110360514D01*
X107276876Y-110360514D02*
X107181638Y-110408133D01*
X116520933Y-113129219D02*
X116187600Y-112653028D01*
X115949505Y-113129219D02*
X115949505Y-112129219D01*
X115949505Y-112129219D02*
X116330457Y-112129219D01*
X116330457Y-112129219D02*
X116425695Y-112176838D01*
X116425695Y-112176838D02*
X116473314Y-112224457D01*
X116473314Y-112224457D02*
X116520933Y-112319695D01*
X116520933Y-112319695D02*
X116520933Y-112462552D01*
X116520933Y-112462552D02*
X116473314Y-112557790D01*
X116473314Y-112557790D02*
X116425695Y-112605409D01*
X116425695Y-112605409D02*
X116330457Y-112653028D01*
X116330457Y-112653028D02*
X115949505Y-112653028D01*
X116901886Y-112224457D02*
X116949505Y-112176838D01*
X116949505Y-112176838D02*
X117044743Y-112129219D01*
X117044743Y-112129219D02*
X117282838Y-112129219D01*
X117282838Y-112129219D02*
X117378076Y-112176838D01*
X117378076Y-112176838D02*
X117425695Y-112224457D01*
X117425695Y-112224457D02*
X117473314Y-112319695D01*
X117473314Y-112319695D02*
X117473314Y-112414933D01*
X117473314Y-112414933D02*
X117425695Y-112557790D01*
X117425695Y-112557790D02*
X116854267Y-113129219D01*
X116854267Y-113129219D02*
X117473314Y-113129219D01*
X144589667Y-152172200D02*
X144732524Y-152219819D01*
X144732524Y-152219819D02*
X144970619Y-152219819D01*
X144970619Y-152219819D02*
X145065857Y-152172200D01*
X145065857Y-152172200D02*
X145113476Y-152124580D01*
X145113476Y-152124580D02*
X145161095Y-152029342D01*
X145161095Y-152029342D02*
X145161095Y-151934104D01*
X145161095Y-151934104D02*
X145113476Y-151838866D01*
X145113476Y-151838866D02*
X145065857Y-151791247D01*
X145065857Y-151791247D02*
X144970619Y-151743628D01*
X144970619Y-151743628D02*
X144780143Y-151696009D01*
X144780143Y-151696009D02*
X144684905Y-151648390D01*
X144684905Y-151648390D02*
X144637286Y-151600771D01*
X144637286Y-151600771D02*
X144589667Y-151505533D01*
X144589667Y-151505533D02*
X144589667Y-151410295D01*
X144589667Y-151410295D02*
X144637286Y-151315057D01*
X144637286Y-151315057D02*
X144684905Y-151267438D01*
X144684905Y-151267438D02*
X144780143Y-151219819D01*
X144780143Y-151219819D02*
X145018238Y-151219819D01*
X145018238Y-151219819D02*
X145161095Y-151267438D01*
X145494429Y-151219819D02*
X145732524Y-152219819D01*
X145732524Y-152219819D02*
X145923000Y-151505533D01*
X145923000Y-151505533D02*
X146113476Y-152219819D01*
X146113476Y-152219819D02*
X146351572Y-151219819D01*
X146684905Y-151315057D02*
X146732524Y-151267438D01*
X146732524Y-151267438D02*
X146827762Y-151219819D01*
X146827762Y-151219819D02*
X147065857Y-151219819D01*
X147065857Y-151219819D02*
X147161095Y-151267438D01*
X147161095Y-151267438D02*
X147208714Y-151315057D01*
X147208714Y-151315057D02*
X147256333Y-151410295D01*
X147256333Y-151410295D02*
X147256333Y-151505533D01*
X147256333Y-151505533D02*
X147208714Y-151648390D01*
X147208714Y-151648390D02*
X146637286Y-152219819D01*
X146637286Y-152219819D02*
X147256333Y-152219819D01*
X128629580Y-145454666D02*
X128677200Y-145502285D01*
X128677200Y-145502285D02*
X128724819Y-145645142D01*
X128724819Y-145645142D02*
X128724819Y-145740380D01*
X128724819Y-145740380D02*
X128677200Y-145883237D01*
X128677200Y-145883237D02*
X128581961Y-145978475D01*
X128581961Y-145978475D02*
X128486723Y-146026094D01*
X128486723Y-146026094D02*
X128296247Y-146073713D01*
X128296247Y-146073713D02*
X128153390Y-146073713D01*
X128153390Y-146073713D02*
X127962914Y-146026094D01*
X127962914Y-146026094D02*
X127867676Y-145978475D01*
X127867676Y-145978475D02*
X127772438Y-145883237D01*
X127772438Y-145883237D02*
X127724819Y-145740380D01*
X127724819Y-145740380D02*
X127724819Y-145645142D01*
X127724819Y-145645142D02*
X127772438Y-145502285D01*
X127772438Y-145502285D02*
X127820057Y-145454666D01*
X127724819Y-145121332D02*
X127724819Y-144454666D01*
X127724819Y-144454666D02*
X128724819Y-144883237D01*
X125004533Y-110951180D02*
X124956914Y-110998800D01*
X124956914Y-110998800D02*
X124814057Y-111046419D01*
X124814057Y-111046419D02*
X124718819Y-111046419D01*
X124718819Y-111046419D02*
X124575962Y-110998800D01*
X124575962Y-110998800D02*
X124480724Y-110903561D01*
X124480724Y-110903561D02*
X124433105Y-110808323D01*
X124433105Y-110808323D02*
X124385486Y-110617847D01*
X124385486Y-110617847D02*
X124385486Y-110474990D01*
X124385486Y-110474990D02*
X124433105Y-110284514D01*
X124433105Y-110284514D02*
X124480724Y-110189276D01*
X124480724Y-110189276D02*
X124575962Y-110094038D01*
X124575962Y-110094038D02*
X124718819Y-110046419D01*
X124718819Y-110046419D02*
X124814057Y-110046419D01*
X124814057Y-110046419D02*
X124956914Y-110094038D01*
X124956914Y-110094038D02*
X125004533Y-110141657D01*
X125385486Y-110141657D02*
X125433105Y-110094038D01*
X125433105Y-110094038D02*
X125528343Y-110046419D01*
X125528343Y-110046419D02*
X125766438Y-110046419D01*
X125766438Y-110046419D02*
X125861676Y-110094038D01*
X125861676Y-110094038D02*
X125909295Y-110141657D01*
X125909295Y-110141657D02*
X125956914Y-110236895D01*
X125956914Y-110236895D02*
X125956914Y-110332133D01*
X125956914Y-110332133D02*
X125909295Y-110474990D01*
X125909295Y-110474990D02*
X125337867Y-111046419D01*
X125337867Y-111046419D02*
X125956914Y-111046419D01*
X131296580Y-145581666D02*
X131344200Y-145629285D01*
X131344200Y-145629285D02*
X131391819Y-145772142D01*
X131391819Y-145772142D02*
X131391819Y-145867380D01*
X131391819Y-145867380D02*
X131344200Y-146010237D01*
X131344200Y-146010237D02*
X131248961Y-146105475D01*
X131248961Y-146105475D02*
X131153723Y-146153094D01*
X131153723Y-146153094D02*
X130963247Y-146200713D01*
X130963247Y-146200713D02*
X130820390Y-146200713D01*
X130820390Y-146200713D02*
X130629914Y-146153094D01*
X130629914Y-146153094D02*
X130534676Y-146105475D01*
X130534676Y-146105475D02*
X130439438Y-146010237D01*
X130439438Y-146010237D02*
X130391819Y-145867380D01*
X130391819Y-145867380D02*
X130391819Y-145772142D01*
X130391819Y-145772142D02*
X130439438Y-145629285D01*
X130439438Y-145629285D02*
X130487057Y-145581666D01*
X130391819Y-144724523D02*
X130391819Y-144914999D01*
X130391819Y-144914999D02*
X130439438Y-145010237D01*
X130439438Y-145010237D02*
X130487057Y-145057856D01*
X130487057Y-145057856D02*
X130629914Y-145153094D01*
X130629914Y-145153094D02*
X130820390Y-145200713D01*
X130820390Y-145200713D02*
X131201342Y-145200713D01*
X131201342Y-145200713D02*
X131296580Y-145153094D01*
X131296580Y-145153094D02*
X131344200Y-145105475D01*
X131344200Y-145105475D02*
X131391819Y-145010237D01*
X131391819Y-145010237D02*
X131391819Y-144819761D01*
X131391819Y-144819761D02*
X131344200Y-144724523D01*
X131344200Y-144724523D02*
X131296580Y-144676904D01*
X131296580Y-144676904D02*
X131201342Y-144629285D01*
X131201342Y-144629285D02*
X130963247Y-144629285D01*
X130963247Y-144629285D02*
X130868009Y-144676904D01*
X130868009Y-144676904D02*
X130820390Y-144724523D01*
X130820390Y-144724523D02*
X130772771Y-144819761D01*
X130772771Y-144819761D02*
X130772771Y-145010237D01*
X130772771Y-145010237D02*
X130820390Y-145105475D01*
X130820390Y-145105475D02*
X130868009Y-145153094D01*
X130868009Y-145153094D02*
X130963247Y-145200713D01*
X116317733Y-114913580D02*
X116270114Y-114961200D01*
X116270114Y-114961200D02*
X116127257Y-115008819D01*
X116127257Y-115008819D02*
X116032019Y-115008819D01*
X116032019Y-115008819D02*
X115889162Y-114961200D01*
X115889162Y-114961200D02*
X115793924Y-114865961D01*
X115793924Y-114865961D02*
X115746305Y-114770723D01*
X115746305Y-114770723D02*
X115698686Y-114580247D01*
X115698686Y-114580247D02*
X115698686Y-114437390D01*
X115698686Y-114437390D02*
X115746305Y-114246914D01*
X115746305Y-114246914D02*
X115793924Y-114151676D01*
X115793924Y-114151676D02*
X115889162Y-114056438D01*
X115889162Y-114056438D02*
X116032019Y-114008819D01*
X116032019Y-114008819D02*
X116127257Y-114008819D01*
X116127257Y-114008819D02*
X116270114Y-114056438D01*
X116270114Y-114056438D02*
X116317733Y-114104057D01*
X116651067Y-114008819D02*
X117270114Y-114008819D01*
X117270114Y-114008819D02*
X116936781Y-114389771D01*
X116936781Y-114389771D02*
X117079638Y-114389771D01*
X117079638Y-114389771D02*
X117174876Y-114437390D01*
X117174876Y-114437390D02*
X117222495Y-114485009D01*
X117222495Y-114485009D02*
X117270114Y-114580247D01*
X117270114Y-114580247D02*
X117270114Y-114818342D01*
X117270114Y-114818342D02*
X117222495Y-114913580D01*
X117222495Y-114913580D02*
X117174876Y-114961200D01*
X117174876Y-114961200D02*
X117079638Y-115008819D01*
X117079638Y-115008819D02*
X116793924Y-115008819D01*
X116793924Y-115008819D02*
X116698686Y-114961200D01*
X116698686Y-114961200D02*
X116651067Y-114913580D01*
X118133905Y-101038819D02*
X118133905Y-100038819D01*
X118133905Y-100038819D02*
X118372000Y-100038819D01*
X118372000Y-100038819D02*
X118514857Y-100086438D01*
X118514857Y-100086438D02*
X118610095Y-100181676D01*
X118610095Y-100181676D02*
X118657714Y-100276914D01*
X118657714Y-100276914D02*
X118705333Y-100467390D01*
X118705333Y-100467390D02*
X118705333Y-100610247D01*
X118705333Y-100610247D02*
X118657714Y-100800723D01*
X118657714Y-100800723D02*
X118610095Y-100895961D01*
X118610095Y-100895961D02*
X118514857Y-100991200D01*
X118514857Y-100991200D02*
X118372000Y-101038819D01*
X118372000Y-101038819D02*
X118133905Y-101038819D01*
X119657714Y-101038819D02*
X119086286Y-101038819D01*
X119372000Y-101038819D02*
X119372000Y-100038819D01*
X119372000Y-100038819D02*
X119276762Y-100181676D01*
X119276762Y-100181676D02*
X119181524Y-100276914D01*
X119181524Y-100276914D02*
X119086286Y-100324533D01*
X111071819Y-102528666D02*
X110595628Y-102861999D01*
X111071819Y-103100094D02*
X110071819Y-103100094D01*
X110071819Y-103100094D02*
X110071819Y-102719142D01*
X110071819Y-102719142D02*
X110119438Y-102623904D01*
X110119438Y-102623904D02*
X110167057Y-102576285D01*
X110167057Y-102576285D02*
X110262295Y-102528666D01*
X110262295Y-102528666D02*
X110405152Y-102528666D01*
X110405152Y-102528666D02*
X110500390Y-102576285D01*
X110500390Y-102576285D02*
X110548009Y-102623904D01*
X110548009Y-102623904D02*
X110595628Y-102719142D01*
X110595628Y-102719142D02*
X110595628Y-103100094D01*
X111071819Y-101576285D02*
X111071819Y-102147713D01*
X111071819Y-101861999D02*
X110071819Y-101861999D01*
X110071819Y-101861999D02*
X110214676Y-101957237D01*
X110214676Y-101957237D02*
X110309914Y-102052475D01*
X110309914Y-102052475D02*
X110357533Y-102147713D01*
X107214200Y-121729332D02*
X107261819Y-121586475D01*
X107261819Y-121586475D02*
X107261819Y-121348380D01*
X107261819Y-121348380D02*
X107214200Y-121253142D01*
X107214200Y-121253142D02*
X107166580Y-121205523D01*
X107166580Y-121205523D02*
X107071342Y-121157904D01*
X107071342Y-121157904D02*
X106976104Y-121157904D01*
X106976104Y-121157904D02*
X106880866Y-121205523D01*
X106880866Y-121205523D02*
X106833247Y-121253142D01*
X106833247Y-121253142D02*
X106785628Y-121348380D01*
X106785628Y-121348380D02*
X106738009Y-121538856D01*
X106738009Y-121538856D02*
X106690390Y-121634094D01*
X106690390Y-121634094D02*
X106642771Y-121681713D01*
X106642771Y-121681713D02*
X106547533Y-121729332D01*
X106547533Y-121729332D02*
X106452295Y-121729332D01*
X106452295Y-121729332D02*
X106357057Y-121681713D01*
X106357057Y-121681713D02*
X106309438Y-121634094D01*
X106309438Y-121634094D02*
X106261819Y-121538856D01*
X106261819Y-121538856D02*
X106261819Y-121300761D01*
X106261819Y-121300761D02*
X106309438Y-121157904D01*
X106261819Y-120824570D02*
X107261819Y-120586475D01*
X107261819Y-120586475D02*
X106547533Y-120395999D01*
X106547533Y-120395999D02*
X107261819Y-120205523D01*
X107261819Y-120205523D02*
X106261819Y-119967428D01*
X107261819Y-119062666D02*
X107261819Y-119634094D01*
X107261819Y-119348380D02*
X106261819Y-119348380D01*
X106261819Y-119348380D02*
X106404676Y-119443618D01*
X106404676Y-119443618D02*
X106499914Y-119538856D01*
X106499914Y-119538856D02*
X106547533Y-119634094D01*
X137072019Y-144221104D02*
X137881542Y-144221104D01*
X137881542Y-144221104D02*
X137976780Y-144173485D01*
X137976780Y-144173485D02*
X138024400Y-144125866D01*
X138024400Y-144125866D02*
X138072019Y-144030628D01*
X138072019Y-144030628D02*
X138072019Y-143840152D01*
X138072019Y-143840152D02*
X138024400Y-143744914D01*
X138024400Y-143744914D02*
X137976780Y-143697295D01*
X137976780Y-143697295D02*
X137881542Y-143649676D01*
X137881542Y-143649676D02*
X137072019Y-143649676D01*
X137167257Y-143221104D02*
X137119638Y-143173485D01*
X137119638Y-143173485D02*
X137072019Y-143078247D01*
X137072019Y-143078247D02*
X137072019Y-142840152D01*
X137072019Y-142840152D02*
X137119638Y-142744914D01*
X137119638Y-142744914D02*
X137167257Y-142697295D01*
X137167257Y-142697295D02*
X137262495Y-142649676D01*
X137262495Y-142649676D02*
X137357733Y-142649676D01*
X137357733Y-142649676D02*
X137500590Y-142697295D01*
X137500590Y-142697295D02*
X138072019Y-143268723D01*
X138072019Y-143268723D02*
X138072019Y-142649676D01*
X116609905Y-125803819D02*
X116609905Y-124803819D01*
X116609905Y-124803819D02*
X116848000Y-124803819D01*
X116848000Y-124803819D02*
X116990857Y-124851438D01*
X116990857Y-124851438D02*
X117086095Y-124946676D01*
X117086095Y-124946676D02*
X117133714Y-125041914D01*
X117133714Y-125041914D02*
X117181333Y-125232390D01*
X117181333Y-125232390D02*
X117181333Y-125375247D01*
X117181333Y-125375247D02*
X117133714Y-125565723D01*
X117133714Y-125565723D02*
X117086095Y-125660961D01*
X117086095Y-125660961D02*
X116990857Y-125756200D01*
X116990857Y-125756200D02*
X116848000Y-125803819D01*
X116848000Y-125803819D02*
X116609905Y-125803819D01*
X117514667Y-124803819D02*
X118133714Y-124803819D01*
X118133714Y-124803819D02*
X117800381Y-125184771D01*
X117800381Y-125184771D02*
X117943238Y-125184771D01*
X117943238Y-125184771D02*
X118038476Y-125232390D01*
X118038476Y-125232390D02*
X118086095Y-125280009D01*
X118086095Y-125280009D02*
X118133714Y-125375247D01*
X118133714Y-125375247D02*
X118133714Y-125613342D01*
X118133714Y-125613342D02*
X118086095Y-125708580D01*
X118086095Y-125708580D02*
X118038476Y-125756200D01*
X118038476Y-125756200D02*
X117943238Y-125803819D01*
X117943238Y-125803819D02*
X117657524Y-125803819D01*
X117657524Y-125803819D02*
X117562286Y-125756200D01*
X117562286Y-125756200D02*
X117514667Y-125708580D01*
X120330933Y-104499580D02*
X120283314Y-104547200D01*
X120283314Y-104547200D02*
X120140457Y-104594819D01*
X120140457Y-104594819D02*
X120045219Y-104594819D01*
X120045219Y-104594819D02*
X119902362Y-104547200D01*
X119902362Y-104547200D02*
X119807124Y-104451961D01*
X119807124Y-104451961D02*
X119759505Y-104356723D01*
X119759505Y-104356723D02*
X119711886Y-104166247D01*
X119711886Y-104166247D02*
X119711886Y-104023390D01*
X119711886Y-104023390D02*
X119759505Y-103832914D01*
X119759505Y-103832914D02*
X119807124Y-103737676D01*
X119807124Y-103737676D02*
X119902362Y-103642438D01*
X119902362Y-103642438D02*
X120045219Y-103594819D01*
X120045219Y-103594819D02*
X120140457Y-103594819D01*
X120140457Y-103594819D02*
X120283314Y-103642438D01*
X120283314Y-103642438D02*
X120330933Y-103690057D01*
X121283314Y-104594819D02*
X120711886Y-104594819D01*
X120997600Y-104594819D02*
X120997600Y-103594819D01*
X120997600Y-103594819D02*
X120902362Y-103737676D01*
X120902362Y-103737676D02*
X120807124Y-103832914D01*
X120807124Y-103832914D02*
X120711886Y-103880533D01*
X122261333Y-117675819D02*
X121928000Y-117199628D01*
X121689905Y-117675819D02*
X121689905Y-116675819D01*
X121689905Y-116675819D02*
X122070857Y-116675819D01*
X122070857Y-116675819D02*
X122166095Y-116723438D01*
X122166095Y-116723438D02*
X122213714Y-116771057D01*
X122213714Y-116771057D02*
X122261333Y-116866295D01*
X122261333Y-116866295D02*
X122261333Y-117009152D01*
X122261333Y-117009152D02*
X122213714Y-117104390D01*
X122213714Y-117104390D02*
X122166095Y-117152009D01*
X122166095Y-117152009D02*
X122070857Y-117199628D01*
X122070857Y-117199628D02*
X121689905Y-117199628D01*
X122594667Y-116675819D02*
X123213714Y-116675819D01*
X123213714Y-116675819D02*
X122880381Y-117056771D01*
X122880381Y-117056771D02*
X123023238Y-117056771D01*
X123023238Y-117056771D02*
X123118476Y-117104390D01*
X123118476Y-117104390D02*
X123166095Y-117152009D01*
X123166095Y-117152009D02*
X123213714Y-117247247D01*
X123213714Y-117247247D02*
X123213714Y-117485342D01*
X123213714Y-117485342D02*
X123166095Y-117580580D01*
X123166095Y-117580580D02*
X123118476Y-117628200D01*
X123118476Y-117628200D02*
X123023238Y-117675819D01*
X123023238Y-117675819D02*
X122737524Y-117675819D01*
X122737524Y-117675819D02*
X122642286Y-117628200D01*
X122642286Y-117628200D02*
X122594667Y-117580580D01*
D11*
X111560000Y-127995000D02*
X110310000Y-127995000D01*
X107590000Y-127995000D02*
X106310000Y-127995000D01*
X111560000Y-136935000D02*
X110310000Y-136935000D01*
X106310000Y-136935000D02*
X107590000Y-136935000D01*
X115010000Y-129215000D02*
G75*
G03*
X114810000Y-129215000I-100000J0D01*
G01*
X114810000Y-129215000D02*
G75*
G03*
X115010000Y-129215000I100000J0D01*
G01*
X129138000Y-117778400D02*
G75*
G03*
X128938000Y-117778400I-100000J0D01*
G01*
X128938000Y-117778400D02*
G75*
G03*
X129138000Y-117778400I100000J0D01*
G01*
D12*
X148038000Y-135788400D02*
X148038000Y-135058400D01*
X148038000Y-135788400D02*
X146793000Y-135788400D01*
X148038000Y-110288400D02*
X148038000Y-117008400D01*
X131283000Y-135788400D02*
X130038000Y-135788400D01*
X130038000Y-135788400D02*
X130038000Y-135058400D01*
X130038000Y-117008400D02*
X130038000Y-110288400D01*
X130038000Y-110288400D02*
X148038000Y-110288400D01*
D13*
X125592000Y-100222000D02*
X131602000Y-100222000D01*
X127842000Y-107042000D02*
X131602000Y-107042000D01*
X131602000Y-100222000D02*
X131602000Y-101482000D01*
X131602000Y-107042000D02*
X131602000Y-105782000D01*
X119378000Y-122098380D02*
X119378000Y-121817220D01*
X120398000Y-122098380D02*
X120398000Y-121817220D01*
X120336958Y-135046400D02*
X119862442Y-135046400D01*
X120336958Y-134001400D02*
X119862442Y-134001400D01*
X119191300Y-127107800D02*
X119191300Y-128577800D01*
X119191300Y-128577800D02*
X121476300Y-128577800D01*
X121476300Y-127107800D02*
X119191300Y-127107800D01*
X135178800Y-148573800D02*
X137778800Y-148573800D01*
X135178800Y-148573800D02*
X135178800Y-145913800D01*
X137778800Y-148573800D02*
X137778800Y-145913800D01*
X132578800Y-147243800D02*
X132578800Y-145913800D01*
X132578800Y-145913800D02*
X133908800Y-145913800D01*
X135178800Y-145913800D02*
X137778800Y-145913800D01*
X147183380Y-140406400D02*
X146902220Y-140406400D01*
X147183380Y-139386400D02*
X146902220Y-139386400D01*
X125370858Y-125876100D02*
X124896342Y-125876100D01*
X125370858Y-124831100D02*
X124896342Y-124831100D01*
X113793180Y-109882600D02*
X113512020Y-109882600D01*
X113793180Y-108862600D02*
X113512020Y-108862600D01*
X124896342Y-127341100D02*
X125370858Y-127341100D01*
X124896342Y-128386100D02*
X125370858Y-128386100D01*
X119823842Y-130851800D02*
X120298358Y-130851800D01*
X119823842Y-131896800D02*
X120298358Y-131896800D01*
X114147200Y-105887300D02*
X114147200Y-106687300D01*
X114147200Y-105887300D02*
X114147200Y-105087300D01*
X117267200Y-105887300D02*
X117267200Y-106687300D01*
X117267200Y-105887300D02*
X117267200Y-104087300D01*
X108144000Y-112014000D02*
X108144000Y-114614000D01*
X108144000Y-112014000D02*
X110804000Y-112014000D01*
X108144000Y-114614000D02*
X110804000Y-114614000D01*
X109474000Y-109414000D02*
X110804000Y-109414000D01*
X110804000Y-109414000D02*
X110804000Y-110744000D01*
X110804000Y-112014000D02*
X110804000Y-114614000D01*
X117210100Y-109885142D02*
X117210100Y-110359658D01*
X116165100Y-109885142D02*
X116165100Y-110359658D01*
D12*
X150463000Y-148097200D02*
X150463000Y-144497200D01*
X150463000Y-144497200D02*
X149383000Y-144497200D01*
X149383000Y-148097200D02*
X150463000Y-148097200D01*
X142543000Y-144497200D02*
X141463000Y-144497200D01*
X141463000Y-148097200D02*
X142543000Y-148097200D01*
X141463000Y-144497200D02*
X141463000Y-148097200D01*
D11*
X149903000Y-143547200D02*
G75*
G03*
X149703000Y-143547200I-100000J0D01*
G01*
X149703000Y-143547200D02*
G75*
G03*
X149903000Y-143547200I100000J0D01*
G01*
D13*
X127861600Y-142519980D02*
X127861600Y-142238820D01*
X128881600Y-142519980D02*
X128881600Y-142238820D01*
X122033420Y-109980000D02*
X122314580Y-109980000D01*
X122033420Y-111000000D02*
X122314580Y-111000000D01*
X130452400Y-142519980D02*
X130452400Y-142238820D01*
X131472400Y-142519980D02*
X131472400Y-142238820D01*
X113512020Y-114044000D02*
X113793180Y-114044000D01*
X113512020Y-115064000D02*
X113793180Y-115064000D01*
X117549600Y-99860900D02*
X116079600Y-99860900D01*
X116079600Y-99860900D02*
X116079600Y-102145900D01*
X117549600Y-102145900D02*
X117549600Y-99860900D01*
X113222300Y-101121942D02*
X113222300Y-101596458D01*
X112177300Y-101121942D02*
X112177300Y-101596458D01*
D12*
X110322400Y-124961400D02*
X113922400Y-124961400D01*
X113922400Y-124961400D02*
X113922400Y-123881400D01*
X110322400Y-123881400D02*
X110322400Y-124961400D01*
X113922400Y-117041400D02*
X113922400Y-115961400D01*
X110322400Y-115961400D02*
X110322400Y-117041400D01*
X113922400Y-115961400D02*
X110322400Y-115961400D01*
D11*
X114972400Y-124301400D02*
G75*
G03*
X114772400Y-124301400I-100000J0D01*
G01*
X114772400Y-124301400D02*
G75*
G03*
X114972400Y-124301400I100000J0D01*
G01*
D13*
X136221600Y-141866600D02*
X136221600Y-142866600D01*
X133981600Y-143866600D02*
X133981600Y-141866600D01*
X119191300Y-124567800D02*
X119191300Y-126037800D01*
X119191300Y-126037800D02*
X121476300Y-126037800D01*
X121476300Y-124567800D02*
X119191300Y-124567800D01*
X121565580Y-105382600D02*
X121284420Y-105382600D01*
X121565580Y-106402600D02*
X121284420Y-106402600D01*
X120623000Y-118033436D02*
X120623000Y-118487564D01*
X119153000Y-118033436D02*
X119153000Y-118487564D01*
%LPC*%
D14*
X112590000Y-129575000D03*
X112590000Y-135355000D03*
D15*
X113665000Y-129265000D03*
X113665000Y-130065000D03*
D16*
X113665000Y-131215000D03*
X113665000Y-132215000D03*
X113665000Y-132715000D03*
X113665000Y-133715000D03*
D15*
X113665000Y-135665000D03*
X113665000Y-134865000D03*
D16*
X113665000Y-134215000D03*
X113665000Y-133215000D03*
X113665000Y-131715000D03*
X113665000Y-130715000D03*
D17*
X113090000Y-128145000D03*
X113090000Y-136785000D03*
D18*
X108910000Y-128145000D03*
X108910000Y-136785000D03*
D19*
X138938000Y-126898400D03*
X137538000Y-126898400D03*
X136138000Y-126898400D03*
X138938000Y-125498400D03*
X137538000Y-125498400D03*
X136138000Y-125498400D03*
X138938000Y-124098400D03*
X137538000Y-124098400D03*
X136138000Y-124098400D03*
D20*
X147788000Y-117778400D03*
X147788000Y-119048400D03*
X147788000Y-120318400D03*
X147788000Y-121588400D03*
X147788000Y-122858400D03*
X147788000Y-124128400D03*
X147788000Y-125398400D03*
X147788000Y-126668400D03*
X147788000Y-127938400D03*
X147788000Y-129208400D03*
X147788000Y-130478400D03*
X147788000Y-131748400D03*
X147788000Y-133018400D03*
X147788000Y-134288400D03*
D21*
X146023000Y-135538400D03*
X144753000Y-135538400D03*
X143483000Y-135538400D03*
X142213000Y-135538400D03*
X140943000Y-135538400D03*
X139673000Y-135538400D03*
X138403000Y-135538400D03*
X137133000Y-135538400D03*
X135863000Y-135538400D03*
X134593000Y-135538400D03*
X133323000Y-135538400D03*
X132053000Y-135538400D03*
D20*
X130288000Y-134288400D03*
X130288000Y-133018400D03*
X130288000Y-131748400D03*
X130288000Y-130478400D03*
X130288000Y-129208400D03*
X130288000Y-127938400D03*
X130288000Y-126668400D03*
X130288000Y-125398400D03*
X130288000Y-124128400D03*
X130288000Y-122858400D03*
X130288000Y-121588400D03*
X130288000Y-120318400D03*
X130288000Y-119048400D03*
X130288000Y-117778400D03*
D22*
X126542000Y-101332000D03*
X126542000Y-103632000D03*
D23*
X132842000Y-103632000D03*
D22*
X126542000Y-105932000D03*
D24*
X119888000Y-122732800D03*
X119888000Y-121182800D03*
D25*
X120924700Y-134523900D03*
X119274700Y-134523900D03*
D26*
X119888800Y-127842800D03*
X121463800Y-127842800D03*
D27*
X133908800Y-147243800D03*
D28*
X136448800Y-147243800D03*
D29*
X147817800Y-139896400D03*
X146267800Y-139896400D03*
D25*
X125958600Y-125353600D03*
X124308600Y-125353600D03*
D29*
X114427600Y-109372600D03*
X112877600Y-109372600D03*
D30*
X124308600Y-127863600D03*
X125958600Y-127863600D03*
X119236100Y-131374300D03*
X120886100Y-131374300D03*
D31*
X116657200Y-107024800D03*
X114757200Y-107024800D03*
X114757200Y-104749800D03*
X115707200Y-104749800D03*
X116657200Y-104749800D03*
D27*
X109474000Y-110744000D03*
D28*
X109474000Y-113284000D03*
D32*
X116687600Y-109297400D03*
X116687600Y-110947400D03*
D33*
X148463000Y-143547200D03*
X145963000Y-143547200D03*
X143463000Y-143547200D03*
X148463000Y-149047200D03*
X145963000Y-149047200D03*
X143463000Y-149047200D03*
D24*
X128371600Y-143154400D03*
X128371600Y-141604400D03*
D34*
X121399000Y-110490000D03*
X122949000Y-110490000D03*
D24*
X130962400Y-143154400D03*
X130962400Y-141604400D03*
D34*
X112877600Y-114554000D03*
X114427600Y-114554000D03*
D35*
X116814600Y-100558400D03*
X116814600Y-102133400D03*
D32*
X112699800Y-100534200D03*
X112699800Y-102184200D03*
D36*
X114872400Y-122961400D03*
X114872400Y-120461400D03*
X114872400Y-117961400D03*
X109372400Y-122961400D03*
X109372400Y-120461400D03*
X109372400Y-117961400D03*
D37*
X135101600Y-142366600D03*
D38*
X134351600Y-141416600D03*
X134851600Y-141416600D03*
X135351600Y-141416600D03*
X135851600Y-141416600D03*
X135851600Y-143316600D03*
X135351600Y-143316600D03*
X134851600Y-143316600D03*
X134351600Y-143316600D03*
D26*
X119888800Y-125302800D03*
X121463800Y-125302800D03*
D29*
X120650000Y-105892600D03*
X122200000Y-105892600D03*
D39*
X119888000Y-117348000D03*
X119888000Y-119173000D03*
%LPD*%
M02*
