M48
; DRILL file {KiCad 7.0.10} date Thu Apr 11 23:27:46 2024
; FORMAT={-:-/ absolute / metric / decimal}
; #@! TF.CreationDate,2024-04-11T23:27:46-07:00
; #@! TF.GenerationSoftware,Kicad,Pcbnew,7.0.10
; #@! TF.FileFunction,Plated,1,2,PTH
FMAT,2
METRIC
; #@! TA.AperFunction,Plated,PTH,ViaDrill
T1C0.305
; #@! TA.AperFunction,Plated,PTH,ViaDrill
T2C0.400
; #@! TA.AperFunction,Plated,PTH,ComponentDrill
T3C0.600
; #@! TA.AperFunction,Plated,PTH,ComponentDrill
T4C1.000
%
G90
G05
T1
X109.474Y-108.306
X109.626Y-149.454
X110.744Y-132.283
X111.455Y-134.214
X112.649Y-103.505
X112.776Y-104.953
X114.452Y-110.795
X116.942Y-132.791
X117.145Y-134.823
X118.008Y-129.184
X118.364Y-104.775
X119.278Y-102.057
X119.99Y-149.504
X122.225Y-104.191
X122.225Y-107.798
X123.038Y-136.347
X124.816Y-132.791
X128.168Y-133.045
X148.946Y-101.448
T2
X126.771Y-138.786
X127.686Y-116.992
T4
X109.474Y-110.744
X109.474Y-113.284
X133.909Y-147.244
X136.449Y-147.244
T3
X109.31Y-128.145G85X108.51Y-128.145
G05
X109.31Y-136.785G85X108.51Y-136.785
G05
X113.64Y-128.145G85X112.54Y-128.145
G05
X113.64Y-136.785G85X112.54Y-136.785
G05
M30
