%TF.GenerationSoftware,KiCad,Pcbnew,7.0.9*%
%TF.CreationDate,2024-04-11T22:47:46-07:00*%
%TF.ProjectId,Microphone_Final,4d696372-6f70-4686-9f6e-655f46696e61,rev?*%
%TF.SameCoordinates,Original*%
%TF.FileFunction,Paste,Top*%
%TF.FilePolarity,Positive*%
%FSLAX46Y46*%
G04 Gerber Fmt 4.6, Leading zero omitted, Abs format (unit mm)*
G04 Created by KiCad (PCBNEW 7.0.9) date 2024-04-11 22:47:46*
%MOMM*%
%LPD*%
G01*
G04 APERTURE LIST*
G04 Aperture macros list*
%AMRoundRect*
0 Rectangle with rounded corners*
0 $1 Rounding radius*
0 $2 $3 $4 $5 $6 $7 $8 $9 X,Y pos of 4 corners*
0 Add a 4 corners polygon primitive as box body*
4,1,4,$2,$3,$4,$5,$6,$7,$8,$9,$2,$3,0*
0 Add four circle primitives for the rounded corners*
1,1,$1+$1,$2,$3*
1,1,$1+$1,$4,$5*
1,1,$1+$1,$6,$7*
1,1,$1+$1,$8,$9*
0 Add four rect primitives between the rounded corners*
20,1,$1+$1,$2,$3,$4,$5,0*
20,1,$1+$1,$4,$5,$6,$7,0*
20,1,$1+$1,$6,$7,$8,$9,0*
20,1,$1+$1,$8,$9,$2,$3,0*%
G04 Aperture macros list end*
%ADD10RoundRect,0.225000X0.225000X0.250000X-0.225000X0.250000X-0.225000X-0.250000X0.225000X-0.250000X0*%
%ADD11RoundRect,0.225000X-0.225000X-0.250000X0.225000X-0.250000X0.225000X0.250000X-0.225000X0.250000X0*%
%ADD12RoundRect,0.200000X0.200000X0.275000X-0.200000X0.275000X-0.200000X-0.275000X0.200000X-0.275000X0*%
%ADD13RoundRect,0.218750X-0.218750X-0.256250X0.218750X-0.256250X0.218750X0.256250X-0.218750X0.256250X0*%
%ADD14RoundRect,0.200000X0.275000X-0.200000X0.275000X0.200000X-0.275000X0.200000X-0.275000X-0.200000X0*%
%ADD15R,2.000000X1.500000*%
%ADD16R,2.000000X3.800000*%
%ADD17RoundRect,0.225000X0.250000X-0.225000X0.250000X0.225000X-0.250000X0.225000X-0.250000X-0.225000X0*%
%ADD18R,1.150000X0.600000*%
%ADD19R,1.150000X0.300000*%
%ADD20RoundRect,0.200000X-0.200000X-0.275000X0.200000X-0.275000X0.200000X0.275000X-0.200000X0.275000X0*%
%ADD21RoundRect,0.150000X0.512500X0.150000X-0.512500X0.150000X-0.512500X-0.150000X0.512500X-0.150000X0*%
%ADD22R,1.500000X0.900000*%
%ADD23R,0.900000X1.500000*%
%ADD24R,0.900000X0.900000*%
%ADD25R,1.016000X0.457200*%
G04 APERTURE END LIST*
D10*
%TO.C,C8*%
X100610000Y-73025000D03*
X99060000Y-73025000D03*
%TD*%
D11*
%TO.C,C6*%
X159105000Y-63500000D03*
X160655000Y-63500000D03*
%TD*%
D12*
%TO.C,R2*%
X85470000Y-59055000D03*
X83820000Y-59055000D03*
%TD*%
D13*
%TO.C,D2*%
X99060000Y-105410000D03*
X100635000Y-105410000D03*
%TD*%
D10*
%TO.C,C3*%
X93625000Y-73025000D03*
X92075000Y-73025000D03*
%TD*%
D14*
%TO.C,R9*%
X100520000Y-91630000D03*
X100520000Y-89980000D03*
%TD*%
D15*
%TO.C,U1*%
X140385000Y-112635000D03*
X140385000Y-114935000D03*
D16*
X146685000Y-114935000D03*
D15*
X140385000Y-117235000D03*
%TD*%
D17*
%TO.C,C2*%
X158750000Y-116980000D03*
X158750000Y-115430000D03*
%TD*%
D12*
%TO.C,R6*%
X92075000Y-93345000D03*
X90425000Y-93345000D03*
%TD*%
D11*
%TO.C,C5*%
X159105000Y-59055000D03*
X160655000Y-59055000D03*
%TD*%
D14*
%TO.C,R4*%
X142430000Y-61785000D03*
X142430000Y-60135000D03*
%TD*%
D13*
%TO.C,D1*%
X134620000Y-57785000D03*
X136195000Y-57785000D03*
%TD*%
D10*
%TO.C,C9*%
X109500000Y-65405000D03*
X107950000Y-65405000D03*
%TD*%
D18*
%TO.C,J1*%
X73335000Y-54075000D03*
X73335000Y-54875000D03*
D19*
X73335000Y-56025000D03*
X73335000Y-57025000D03*
X73335000Y-57525000D03*
X73335000Y-58525000D03*
D18*
X73335000Y-60475000D03*
X73335000Y-59675000D03*
D19*
X73335000Y-59025000D03*
X73335000Y-58025000D03*
X73335000Y-56525000D03*
X73335000Y-55525000D03*
%TD*%
D10*
%TO.C,C7*%
X100610000Y-68580000D03*
X99060000Y-68580000D03*
%TD*%
D20*
%TO.C,R1*%
X83820000Y-53975000D03*
X85470000Y-53975000D03*
%TD*%
D13*
%TO.C,D3*%
X97155000Y-95885000D03*
X98730000Y-95885000D03*
%TD*%
D11*
%TO.C,C4*%
X83185000Y-90805000D03*
X84735000Y-90805000D03*
%TD*%
D21*
%TO.C,U2*%
X149595000Y-62225000D03*
X149595000Y-61275000D03*
X149595000Y-60325000D03*
X147320000Y-60325000D03*
X147320000Y-62225000D03*
%TD*%
D22*
%TO.C,U4*%
X106680000Y-77470000D03*
X106680000Y-78740000D03*
X106680000Y-80010000D03*
X106680000Y-81280000D03*
X106680000Y-82550000D03*
X106680000Y-83820000D03*
X106680000Y-85090000D03*
X106680000Y-86360000D03*
X106680000Y-87630000D03*
X106680000Y-88900000D03*
X106680000Y-90170000D03*
X106680000Y-91440000D03*
X106680000Y-92710000D03*
X106680000Y-93980000D03*
D23*
X108445000Y-95230000D03*
X109715000Y-95230000D03*
X110985000Y-95230000D03*
X112255000Y-95230000D03*
X113525000Y-95230000D03*
X114795000Y-95230000D03*
X116065000Y-95230000D03*
X117335000Y-95230000D03*
X118605000Y-95230000D03*
X119875000Y-95230000D03*
X121145000Y-95230000D03*
X122415000Y-95230000D03*
D22*
X124180000Y-93980000D03*
X124180000Y-92710000D03*
X124180000Y-91440000D03*
X124180000Y-90170000D03*
X124180000Y-88900000D03*
X124180000Y-87630000D03*
X124180000Y-86360000D03*
X124180000Y-85090000D03*
X124180000Y-83820000D03*
X124180000Y-82550000D03*
X124180000Y-81280000D03*
X124180000Y-80010000D03*
X124180000Y-78740000D03*
X124180000Y-77470000D03*
D24*
X112530000Y-83790000D03*
X113930000Y-83790000D03*
X115330000Y-83790000D03*
X112530000Y-85190000D03*
X113930000Y-85190000D03*
X115330000Y-85190000D03*
X112530000Y-86590000D03*
X113930000Y-86590000D03*
X115330000Y-86590000D03*
%TD*%
D25*
%TO.C,U3*%
X85267800Y-97150002D03*
X85267800Y-96200001D03*
X85267800Y-95250000D03*
X83185000Y-95250000D03*
X83185000Y-97150002D03*
%TD*%
D20*
%TO.C,R3*%
X134620000Y-62865000D03*
X136270000Y-62865000D03*
%TD*%
D17*
%TO.C,C1*%
X129045000Y-116345000D03*
X129045000Y-114795000D03*
%TD*%
D20*
%TO.C,R5*%
X90615000Y-97980000D03*
X92265000Y-97980000D03*
%TD*%
%TO.C,R7*%
X88265000Y-78105000D03*
X89915000Y-78105000D03*
%TD*%
D14*
%TO.C,R8*%
X103695000Y-97345000D03*
X103695000Y-95695000D03*
%TD*%
M02*
